<svg width="473" height="413" viewBox="0 0 473 413" fill="none" xmlns="http://www.w3.org/2000/svg">
<g clip-path="url(#clip0)">
<path opacity="0.24" d="M67.4865 149.032C73.3197 140.777 82.8558 133.318 83.2241 123.985C83.4829 117.159 78.685 110.897 75.1712 104.583C57.2536 72.4341 75.8082 31.4133 116.113 13.9296C138.111 4.38825 164.181 1.66642 189.575 0.595532C218.393 -0.62406 247.3 0.0303555 275.967 2.55139C292.77 4.03873 310.359 6.44079 323.359 14.5245C343.735 27.1669 346.612 49.2019 354.356 68.1357C367.963 101.393 401.559 129.764 444.073 143.916C451.768 146.474 459.92 148.675 466.141 152.914C479.789 162.195 479.928 178.898 471.517 191.169C463.105 203.439 448.105 212.311 433.522 220.789L388.27 247.152C379.112 252.484 369.735 257.913 358.756 260.732C322.174 270.132 272.553 259.081 234.577 257.824C210.06 257.006 184.07 258.82 160.11 254.046C107.074 243.464 36.3499 193.154 67.4865 149.032Z" fill="#68BCFD"/>
<path opacity="0.2" d="M428.212 148.512H400.911V162.681H428.212V148.512Z" fill="#E6F3F6"/>
<path opacity="0.2" d="M430.312 165.83H403.011V179.999H430.312V165.83Z" fill="#E6F3F6"/>
<path opacity="0.2" d="M407.736 45.6558H380.436V59.8248H407.736V45.6558Z" fill="#E6F3F6"/>
<path opacity="0.2" d="M427.162 61.9238H399.861V76.0928H427.162V61.9238Z" fill="#E6F3F6"/>
<path opacity="0.2" d="M374.661 46.7053H347.361V60.8743H374.661V46.7053Z" fill="#E6F3F6"/>
<path opacity="0.2" d="M462.337 78.1919H435.037V92.3609H462.337V78.1919Z" fill="#E6F3F6"/>
<path opacity="0.2" d="M429.262 79.2415H401.961V93.4104H429.262V79.2415Z" fill="#E6F3F6"/>
<path opacity="0.2" d="M394.086 62.9734H366.786V77.1424H394.086V62.9734Z" fill="#E6F3F6"/>
<path opacity="0.2" d="M460.762 187.346H433.462V201.515H460.762V187.346Z" fill="#E6F3F6"/>
<path opacity="0.2" d="M427.687 188.395H400.386V202.564H427.687V188.395Z" fill="#E6F3F6"/>
<path d="M68.6447 144.839C68.6447 144.839 107.122 183.3 85.4029 240.348C63.6834 297.397 122.631 392.345 122.631 392.345C122.631 392.345 122.001 392.25 120.83 392.046C41.8063 378.102 2.54105 287.762 46.5052 220.669C62.8224 195.695 76.2311 166.428 68.6447 144.839Z" fill="#68BCFD"/>
<path d="M68.6447 144.839C68.6447 144.839 90.3643 191.985 68.6447 230.44C46.9252 268.896 64.9224 376.853 122.636 392.345" stroke="#535461" stroke-width="2" stroke-miterlimit="10"/>
<path d="M0.110229 300.393C0.110229 300.393 44.0166 293.403 48.0171 332.735C52.0177 372.067 132.449 377.52 132.449 377.52C132.449 377.52 131.924 377.877 130.942 378.522C64.5339 422.079 1.05524 406.278 10.6261 348.421C14.1804 326.91 13.8864 305.305 0.110229 300.393Z" fill="#E6F3F6"/>
<path opacity="0.2" d="M0.110229 300.393C0.110229 300.393 44.0166 293.403 48.0171 332.735C52.0177 372.067 132.449 377.52 132.449 377.52C132.449 377.52 131.924 377.877 130.942 378.522C64.5339 422.079 1.05524 406.278 10.6261 348.421C14.1804 326.91 13.8864 305.305 0.110229 300.393Z" fill="#F5F5F5"/>
<path d="M0.110229 300.393C0.110229 300.393 34.1884 307.871 31.3902 338.844C28.5919 369.816 82.0009 406.965 132.449 377.52" stroke="#535461" stroke-width="2" stroke-miterlimit="10"/>
<path opacity="0.2" d="M27.6312 149.037H0.330811V163.206H27.6312V149.037Z" fill="#E6F3F6"/>
<path opacity="0.2" d="M47.0564 165.305H19.756V179.474H47.0564V165.305Z" fill="#E6F3F6"/>
<path opacity="0.2" d="M194.583 0H167.283V14.169H194.583V0Z" fill="#E6F3F6"/>
<path opacity="0.2" d="M409.836 261.339H382.536V275.508H409.836V261.339Z" fill="#E6F3F6"/>
<path opacity="0.2" d="M49.1565 182.623H21.8561V196.792H49.1565V182.623Z" fill="#E6F3F6"/>
<path opacity="0.2" d="M214.009 16.2681H186.708V30.4371H214.009V16.2681Z" fill="#E6F3F6"/>
<path opacity="0.2" d="M114.257 112.302H86.9569V126.471H114.257V112.302Z" fill="#E6F3F6"/>
<path opacity="0.2" d="M133.683 128.571H106.382V142.74H133.683V128.571Z" fill="#E6F3F6"/>
<path opacity="0.2" d="M185.658 119.649H158.358V133.818H185.658V119.649Z" fill="#E6F3F6"/>
<path opacity="0.2" d="M135.783 145.888H108.482V160.057H135.783V145.888Z" fill="#E6F3F6"/>
<path opacity="0.2" d="M446.587 261.339H419.287V275.508H446.587V261.339Z" fill="#E6F3F6"/>
<path d="M378.346 205.246C376.579 195.413 375.495 185.469 375.102 175.486C374.753 167.264 371.868 159.352 366.843 152.833C361.819 146.315 354.9 141.51 347.035 139.077C344.169 138.195 341.013 137.371 337.527 136.631C306.972 130.145 297.69 135.807 296.634 136.552C295.741 134.928 294.963 133.243 294.309 131.509C294.256 131.331 294.209 131.152 294.156 130.985C300.204 124.538 303.888 116.235 304.609 107.427C309.707 102.263 312.684 96.0291 312.684 89.3172C312.684 83.5446 310.479 78.1289 306.62 73.4426V64.322C306.62 53.8042 302.44 43.7172 295 36.2799C287.559 28.8427 277.468 24.6646 266.945 24.6646H263.727C258.517 24.6646 253.358 25.6903 248.544 27.6833C243.73 29.6763 239.357 32.5974 235.673 36.2799C231.988 39.9625 229.066 44.3343 227.072 49.1458C225.078 53.9572 224.052 59.1141 224.052 64.322V74.1511C220.55 78.6694 218.566 83.828 218.566 89.3067C218.566 95.8769 221.422 101.985 226.325 107.086C226.995 116.216 230.849 124.822 237.214 131.404C237.429 132.895 237.65 134.495 237.865 136.185L183.212 147.725C183.212 147.725 162.138 148.591 148.561 176.588C137.079 200.302 114.231 261.229 107.464 279.365C106.24 282.65 105.547 284.534 105.547 284.534C105.547 284.534 105.773 284.309 106.199 283.92L105.547 285.689C105.547 285.689 105.878 285.353 106.508 284.802C105.553 292.39 105.416 305.421 115.36 307.042C123.697 308.401 145.18 308.963 161.408 309.189H162.532C173.289 309.33 181.474 309.33 181.474 309.33V309.189H356.007V307.399C356.009 305.776 355.683 304.169 355.047 302.676L355.288 302.382C356.222 303.615 356.844 305.055 357.099 306.58C357.079 306.729 357.051 306.876 357.015 307.021L357.12 306.754C357.161 307.23 357.126 307.71 357.015 308.176C357.015 308.176 379.407 250.508 379.165 216.072C379.23 212.446 378.956 208.821 378.346 205.246ZM238.773 143.978C238.484 142.333 238.298 140.671 238.217 139.003C238.217 139.003 238.217 138.972 238.217 138.956C238.411 140.577 238.6 142.257 238.773 143.978ZM170.932 267.847V281.59L162.322 283.432L170.932 267.847Z" fill="url(#paint0_linear)"/>
<path d="M264.451 30.2114C274.974 30.2114 285.065 34.3896 292.506 41.8268C299.946 49.264 304.126 59.3511 304.126 69.8689V86.7877H224.777V69.8689C224.777 59.3511 228.957 49.264 236.397 41.8268C243.838 34.3896 253.929 30.2114 264.451 30.2114Z" fill="#ACDFFB"/>
<path d="M264.73 123.396C289.706 123.396 309.954 109.489 309.954 92.3345C309.954 75.1797 289.706 61.2729 264.73 61.2729C239.753 61.2729 219.506 75.1797 219.506 92.3345C219.506 109.489 239.753 123.396 264.73 123.396Z" fill="#ACDFFB"/>
<path d="M235.739 122.425C235.739 122.425 245.189 171.791 235.739 185.105C226.289 198.418 264.614 203.687 264.614 203.687L304.284 189.266L309.833 153.765C309.833 153.765 285.683 140.173 290.686 112.717L235.739 122.425Z" fill="#F7C4A7"/>
<path d="M352.826 288.832C352.826 288.832 355.325 299.648 341.727 301.59C333.698 302.77 325.533 302.673 317.535 301.301L314.537 274.133H346.169L352.826 288.832Z" fill="#F7C4A7"/>
<path d="M112.719 274.989C112.719 274.989 106.713 299.386 120.311 301.59C133.908 303.794 183.837 303.81 183.837 303.81V274.947L161.23 279.775L140.009 259.434L112.719 274.989Z" fill="#F7C4A7"/>
<path opacity="0.1" d="M238.658 138.373L185.522 149.604C185.522 149.604 165.267 150.438 152.226 177.338C139.185 204.238 110.881 281.066 110.881 281.066C110.881 281.066 135.032 256.658 163.324 282.729L182.193 248.619L178.03 302.702H324.234V277.182C324.234 277.182 354.753 293.545 352.537 302.697C352.537 302.697 378.656 235.431 373.012 204.863C371.313 195.413 370.271 185.856 369.894 176.262C369.56 168.361 366.789 160.756 361.959 154.491C357.129 148.227 350.478 143.611 342.919 141.275C340.168 140.43 337.144 139.638 333.784 138.93C302.43 132.275 294.408 138.93 294.408 138.93C294.408 138.93 288.334 158.682 288.444 167.635C288.581 179.143 272.074 186.774 272.074 186.774C272.074 186.774 247.656 180.949 246.549 176.236C245.441 171.524 236.705 143.92 238.658 138.373Z" fill="black"/>
<path d="M238.658 137.266L185.522 148.496C185.522 148.496 165.267 149.331 152.226 176.231C139.185 203.131 110.876 279.969 110.876 279.969C110.876 279.969 135.027 255.562 163.319 281.632L182.188 247.522L178.025 301.59H324.234V276.075C324.234 276.075 354.753 292.438 352.537 301.59C352.537 301.59 378.656 234.324 373.012 203.755C371.313 194.305 370.271 184.749 369.894 175.155C369.56 167.253 366.789 159.649 361.959 153.384C357.129 147.12 350.478 142.503 342.919 140.168C340.168 139.323 337.144 138.531 333.784 137.822C302.43 131.168 294.408 137.822 294.408 137.822C294.408 137.822 288.334 157.575 288.444 166.528C288.581 178.036 272.074 185.666 272.074 185.666C272.074 185.666 247.656 179.841 246.549 175.129C245.441 170.416 236.705 142.813 238.658 137.266Z" fill="#68BCFD"/>
<path opacity="0.1" d="M292.954 134.91C290.722 128.593 290.222 121.795 291.505 115.22L236.558 124.923C236.558 124.923 237.35 129.074 238.248 135.293C241.798 138.975 246.061 141.897 250.776 143.882C255.492 145.866 260.562 146.87 265.678 146.835C270.794 146.799 275.85 145.723 280.537 143.673C285.224 141.623 289.445 138.642 292.943 134.91H292.954Z" fill="black"/>
<path d="M302.326 106.619C302.282 116.516 298.35 125.999 291.376 133.024C284.402 140.049 274.946 144.053 265.045 144.173C255.145 144.293 245.594 140.519 238.452 133.664C231.31 126.81 227.149 117.425 226.866 107.532C226.866 107.228 226.866 106.923 226.866 106.619C226.864 99.5565 228.846 92.6353 232.586 86.643C236.325 80.6508 241.672 75.828 248.019 72.7236C249.149 72.1709 250.311 71.6741 251.505 71.2333C257.712 68.9523 264.408 68.33 270.93 69.428C279.289 70.8507 286.924 75.0478 292.602 81.3417C298.28 87.6356 301.671 95.6588 302.226 104.116C302.292 104.945 302.326 105.779 302.326 106.619Z" fill="#F7C4A7"/>
<g opacity="0.1">
<path opacity="0.1" d="M251.447 72.1201L251.499 72.0886C250.306 72.5294 249.144 73.0262 248.013 73.579C241.667 76.6834 236.32 81.5061 232.58 87.4984C228.841 93.4907 226.859 100.412 226.861 107.474C226.861 107.779 226.861 108.083 226.861 108.387C228.034 108.356 229.188 108.079 230.247 107.574C239.445 103.281 244.947 90.1515 247.131 80.9941C247.919 77.7142 248.659 74.0198 251.447 72.1201Z" fill="black"/>
<path opacity="0.1" d="M280.328 73.175C277.341 71.8035 274.186 70.8313 270.946 70.2834C273.603 70.8947 275.977 72.3851 277.681 74.5132C278.517 75.6488 279.21 76.8824 279.745 78.1866C274.723 75.9918 269.284 74.9138 263.804 75.027C258.325 75.1403 252.935 76.4422 248.008 78.8426C250.376 84.0326 257.721 86.8612 262.624 88.7556C267.993 90.8268 273.418 92.7212 278.9 94.439L274.048 90.5031L285.005 92.2454C285.123 90.0658 284.864 87.8821 284.239 85.7906C286.339 87.4804 289.121 88.0472 291.4 89.4641C295.668 92.1562 297.448 97.3357 299.774 101.823C300.388 103.009 301.113 104.221 302.22 104.971C301.772 98.1923 299.502 91.6599 295.649 86.0635C291.795 80.4671 286.502 76.0143 280.328 73.175Z" fill="black"/>
</g>
<path d="M251.447 71.2649L251.499 71.2334C250.306 71.6742 249.144 72.171 248.013 72.7238C241.667 75.8282 236.32 80.6509 232.58 86.6432C228.841 92.6355 226.859 99.5566 226.861 106.619C226.861 106.924 226.861 107.228 226.861 107.532C228.034 107.501 229.188 107.223 230.247 106.719C239.445 102.426 244.947 89.2962 247.131 80.1389C247.919 76.88 248.659 73.1698 251.447 71.2649Z" fill="#632652"/>
<path d="M280.328 72.3249C277.341 70.9534 274.186 69.9812 270.946 69.4333C273.603 70.0446 275.977 71.535 277.681 73.6631C278.517 74.7986 279.21 76.0323 279.745 77.3365C274.723 75.1417 269.284 74.0637 263.804 74.1769C258.325 74.2902 252.935 75.5921 248.008 77.9925C250.376 83.1825 257.721 86.0111 262.624 87.9055C267.993 89.9766 273.418 91.8711 278.9 93.5888L274.048 89.653L285.005 91.3953C285.123 89.2156 284.864 87.032 284.239 84.9405C286.339 86.6303 289.121 87.1971 291.4 88.614C295.668 91.3061 297.448 96.4856 299.774 100.972C300.388 102.158 301.113 103.371 302.22 104.121C301.772 97.3422 299.502 90.8098 295.649 85.2134C291.795 79.617 286.502 75.1642 280.328 72.3249Z" fill="#632652"/>
<path opacity="0.1" d="M222.556 100.4C222.556 100.4 261.406 52.1209 306.352 100.4L302.467 89.5848C302.467 89.5848 281.378 58.8013 266.399 65.445C251.421 72.0887 236.71 76.8169 236.71 76.8169L222.556 100.4Z" fill="black"/>
<path d="M222.556 99.5452C222.556 99.5452 261.406 51.2657 306.352 99.5452L302.467 88.7295C302.467 88.7295 281.378 57.9461 266.399 64.5898C251.421 71.2334 236.71 75.9617 236.71 75.9617L222.556 99.5452Z" fill="#ACDFFB"/>
<path opacity="0.1" d="M190.646 203.551C190.646 203.551 182.324 225.738 193.974 245.706C205.624 265.674 183.71 273.997 183.71 273.997" fill="black"/>
<path opacity="0.1" d="M325.494 183.583C325.494 183.583 339.921 201.887 330.487 218.25C321.052 234.612 321.609 273.997 321.609 273.997" fill="black"/>
<path d="M177.883 290.359H338.257C341.789 290.359 345.177 291.762 347.675 294.259C350.173 296.756 351.576 300.142 351.576 303.673H164.569C164.569 300.143 165.971 296.757 168.468 294.261C170.965 291.764 174.351 290.361 177.883 290.359Z" fill="#535461"/>
<path d="M194.2 198.833H321.945C324.634 198.833 327.296 199.362 329.78 200.391C332.265 201.419 334.522 202.927 336.423 204.827C338.324 206.728 339.833 208.984 340.862 211.467C341.891 213.95 342.42 216.612 342.42 219.299V293.408H173.725V219.299C173.725 213.871 175.882 208.666 179.722 204.827C183.562 200.989 188.77 198.833 194.2 198.833Z" fill="#535461"/>
<path d="M257.931 260.269C263.449 260.269 267.922 255.798 267.922 250.282C267.922 244.767 263.449 240.296 257.931 240.296C252.413 240.296 247.94 244.767 247.94 250.282C247.94 255.798 252.413 260.269 257.931 260.269Z" fill="white"/>
<path opacity="0.1" d="M224.777 77.772C224.777 77.772 262.955 39.6312 304.131 77.0741" stroke="#ACDFFB" stroke-miterlimit="10"/>
<path d="M313.776 75.3423H309.943V97.0628H313.776V75.3423Z" fill="#6A5C99"/>
<path d="M304.83 89.396C308.333 89.396 311.693 90.7871 314.17 93.2632C316.647 95.7393 318.039 99.0976 318.039 102.599V103.45C318.039 106.951 316.647 110.31 314.17 112.786C311.693 115.262 308.333 116.653 304.83 116.653V89.396Z" fill="#FFD037"/>
<path d="M308.237 91.1013C308.237 89.4551 306.902 88.1206 305.255 88.1206C303.608 88.1206 302.273 89.4551 302.273 91.1013V114.952C302.273 116.599 303.608 117.933 305.255 117.933C306.902 117.933 308.237 116.599 308.237 114.952V91.1013Z" fill="#6A5C99"/>
<path d="M214.738 97.4878H218.571V75.7673H214.738V97.4878Z" fill="#6A5C99"/>
<path d="M223.685 117.078C220.181 117.078 216.821 115.687 214.344 113.211C211.867 110.735 210.475 107.376 210.475 103.874V103.024C210.475 101.29 210.817 99.5735 211.481 97.9716C212.145 96.3697 213.118 94.9142 214.344 93.6881C215.571 92.4621 217.027 91.4895 218.63 90.826C220.232 90.1625 221.95 89.8209 223.685 89.8209V117.078Z" fill="#FFD037"/>
<path d="M220.277 115.372C220.277 117.019 221.612 118.353 223.259 118.353C224.906 118.353 226.241 117.019 226.241 115.372V91.5212C226.241 89.8749 224.906 88.5404 223.259 88.5404C221.612 88.5404 220.277 89.8749 220.277 91.5212V115.372Z" fill="#6A5C99"/>
<path d="M309.492 52.1263C304.299 41.3369 292.991 28.2909 268.615 27.2466V27.2151H268.321L259.684 27.6244V27.6664C235.471 28.7789 224.215 41.7777 219.038 52.5304C215.591 59.8198 213.76 67.768 213.673 75.8305L216.655 75.757L219.637 75.6888C219.765 68.5108 221.417 61.442 224.483 54.9496C231.056 41.4523 243.152 34.2786 260.43 33.6121L268.069 33.1871C285.357 33.8483 297.459 41.0325 304.026 54.5245C307.097 61.0193 308.752 68.0919 308.883 75.2742L311.865 75.3424L314.847 75.4159C314.761 67.3578 312.934 59.4133 309.492 52.1263Z" fill="#FFD037"/>
<path d="M445.726 303.846H38.9976V413H445.726V303.846Z" fill="#68BCFD"/>
<path opacity="0.1" d="M445.726 311.193H38.9976V325.362H445.726V311.193Z" fill="black"/>
<path d="M473 302.272H11.7129V316.441H473V302.272Z" fill="#ACDFFB"/>
<path d="M417.108 1.57422H333.091C326.001 1.57422 320.254 7.31877 320.254 14.405V73.5002C320.254 80.5865 326.001 86.331 333.091 86.331H417.108C424.197 86.331 429.944 80.5865 429.944 73.5002V14.405C429.944 7.31877 424.197 1.57422 417.108 1.57422Z" fill="white"/>
<g opacity="0.52">
<path opacity="0.52" d="M362.271 12.8044H334.235V14.8616H362.271V12.8044Z" fill="#15A3DE"/>
<path opacity="0.52" d="M351.345 16.7822H334.235V18.7134H351.345V16.7822Z" fill="#15A3DE"/>
<path opacity="0.52" d="M412.094 16.7822H358.249V18.7239H412.094V16.7822Z" fill="#15A3DE"/>
<path opacity="0.52" d="M366.665 20.7654H343.134V22.8015H366.665V20.7654Z" fill="#15A3DE"/>
<path opacity="0.52" d="M378.724 24.7432H350.689V26.8003H378.724V24.7432Z" fill="#15A3DE"/>
<path opacity="0.52" d="M404.051 24.7432H380.552V27.0259H404.051V24.7432Z" fill="#15A3DE"/>
<path opacity="0.52" d="M372.293 28.7209H350.647V30.6521H372.293V28.7209Z" fill="#15A3DE"/>
<path opacity="0.52" d="M419.04 28.7209H374.372V30.8568H419.04V28.7209Z" fill="#15A3DE"/>
<path opacity="0.52" d="M362.271 34.0999H334.235V36.157H362.271V34.0999Z" fill="#15A3DE"/>
<path opacity="0.52" d="M351.345 38.0776H334.235V40.0088H351.345V38.0776Z" fill="#15A3DE"/>
<path opacity="0.52" d="M412.094 38.0776H358.249V40.0193H412.094V38.0776Z" fill="#15A3DE"/>
<path opacity="0.52" d="M366.665 42.0557H343.134V44.0918H366.665V42.0557Z" fill="#15A3DE"/>
<path opacity="0.52" d="M378.724 46.0386H350.689V48.0957H378.724V46.0386Z" fill="#15A3DE"/>
<path opacity="0.52" d="M404.051 46.0386H380.552V48.3214H404.051V46.0386Z" fill="#15A3DE"/>
<path opacity="0.52" d="M372.293 50.0164H350.647V51.9475H372.293V50.0164Z" fill="#15A3DE"/>
<path opacity="0.52" d="M419.04 50.0164H374.372V52.1522H419.04V50.0164Z" fill="#15A3DE"/>
<path opacity="0.52" d="M362.271 55.4006H334.235V57.4578H362.271V55.4006Z" fill="#15A3DE"/>
<path opacity="0.52" d="M351.345 59.3733H334.235V61.3045H351.345V59.3733Z" fill="#15A3DE"/>
<path opacity="0.52" d="M412.094 59.3733H358.249V61.315H412.094V59.3733Z" fill="#15A3DE"/>
<path opacity="0.52" d="M366.665 63.3511H343.134V65.3872H366.665V63.3511Z" fill="#15A3DE"/>
<path opacity="0.52" d="M378.724 67.3289H350.689V69.386H378.724V67.3289Z" fill="#15A3DE"/>
<path opacity="0.52" d="M404.051 67.3289H380.552V69.6116H404.051V67.3289Z" fill="#15A3DE"/>
<path opacity="0.52" d="M372.293 71.3171H350.647V73.2483H372.293V71.3171Z" fill="#15A3DE"/>
<path opacity="0.52" d="M419.04 71.3171H374.372V73.453H419.04V71.3171Z" fill="#15A3DE"/>
</g>
<path d="M171.583 19.4167H137.505C134.631 19.4167 132.302 21.7451 132.302 24.6173V48.5891C132.302 51.4613 134.631 53.7897 137.505 53.7897H171.583C174.456 53.7897 176.786 51.4613 176.786 48.5891V24.6173C176.786 21.7451 174.456 19.4167 171.583 19.4167Z" fill="white"/>
<path d="M137.972 36.9652L149.197 31.1926V32.8614L139.746 37.5844V37.6369L149.197 42.3599V44.0339L137.972 38.2614V36.9652Z" fill="#15A3DE"/>
<path d="M150.761 45.0364L157.513 27.4983H159.156L152.383 45.0364H150.761Z" fill="#15A3DE"/>
<path d="M171.898 38.3402L160.684 44.1128V42.4125L170.213 37.6895V37.6108L160.684 32.8878V31.1875L171.898 36.9601V38.3402Z" fill="#15A3DE"/>
<path d="M100.129 47.7549H44.2371C39.5224 47.7549 35.7004 51.5752 35.7004 56.2878V95.6041C35.7004 100.317 39.5224 104.137 44.2371 104.137H100.129C104.844 104.137 108.666 100.317 108.666 95.6041V56.2878C108.666 51.5752 104.844 47.7549 100.129 47.7549Z" fill="white"/>
<g opacity="0.52">
<path opacity="0.52" d="M62.5965 56.5554H44.384V57.8884H62.5965V56.5554Z" fill="#15A3DE"/>
<path opacity="0.52" d="M55.5037 59.1372H44.384V60.3914H55.5037V59.1372Z" fill="#15A3DE"/>
<path opacity="0.52" d="M94.9685 59.1372H59.9873V60.3967H94.9685V59.1372Z" fill="#15A3DE"/>
<path opacity="0.52" d="M65.4525 61.7297H50.1643V63.0522H65.4525V61.7297Z" fill="#15A3DE"/>
<path opacity="0.52" d="M73.2856 64.3115H55.0731V65.6445H73.2856V64.3115Z" fill="#15A3DE"/>
<path opacity="0.52" d="M89.7394 64.3115H74.4722V65.7966H89.7394V64.3115Z" fill="#15A3DE"/>
<path opacity="0.52" d="M69.1118 66.8989H55.0469V68.1531H69.1118V66.8989Z" fill="#15A3DE"/>
<path opacity="0.52" d="M99.4783 66.8989H70.4559V68.2896H99.4783V66.8989Z" fill="#15A3DE"/>
<path opacity="0.52" d="M62.5965 70.3938H44.384V71.7267H62.5965V70.3938Z" fill="#15A3DE"/>
<path opacity="0.52" d="M55.5037 72.9758H44.384V74.23H55.5037V72.9758Z" fill="#15A3DE"/>
<path opacity="0.52" d="M94.9685 72.9758H59.9873V74.2353H94.9685V72.9758Z" fill="#15A3DE"/>
<path opacity="0.52" d="M65.4525 75.563H50.1643V76.8854H65.4525V75.563Z" fill="#15A3DE"/>
<path opacity="0.52" d="M73.2856 78.1499H55.0731V79.4828H73.2856V78.1499Z" fill="#15A3DE"/>
<path opacity="0.52" d="M89.7394 78.1499H74.4722V79.635H89.7394V78.1499Z" fill="#15A3DE"/>
<path opacity="0.52" d="M69.1118 80.7319H55.0469V81.9862H69.1118V80.7319Z" fill="#15A3DE"/>
<path opacity="0.52" d="M99.4783 80.7319H70.4559V82.1226H99.4783V80.7319Z" fill="#15A3DE"/>
<path opacity="0.52" d="M62.5965 84.2322H44.384V85.5651H62.5965V84.2322Z" fill="#15A3DE"/>
<path opacity="0.52" d="M55.5037 86.8142H44.384V88.0684H55.5037V86.8142Z" fill="#15A3DE"/>
<path opacity="0.52" d="M94.9685 86.8142H59.9873V88.0737H94.9685V86.8142Z" fill="#15A3DE"/>
<path opacity="0.52" d="M65.4525 89.396H50.1643V90.7184H65.4525V89.396Z" fill="#15A3DE"/>
<path opacity="0.52" d="M73.2856 91.9832H55.0731V93.3161H73.2856V91.9832Z" fill="#15A3DE"/>
<path opacity="0.52" d="M89.7394 91.9832H74.4722V93.4683H89.7394V91.9832Z" fill="#15A3DE"/>
<path opacity="0.52" d="M69.1118 94.5703H55.0469V95.8245H69.1118V94.5703Z" fill="#15A3DE"/>
<path opacity="0.52" d="M99.4783 94.5703H70.4559V95.961H99.4783V94.5703Z" fill="#15A3DE"/>
</g>
<g opacity="0.61">
<path opacity="0.61" d="M388 236.56C388.32 234.85 388.66 233.14 389 231.43C389.18 230.43 389.35 229.5 389.54 228.43C391.14 228.7 392.7 228.95 394.25 229.25C394.353 229.289 394.463 229.306 394.572 229.301C394.682 229.295 394.79 229.268 394.888 229.219C394.987 229.17 395.074 229.101 395.145 229.017C395.216 228.933 395.269 228.835 395.3 228.73C396 227.37 396.78 226.05 397.6 224.73C397.672 224.653 397.727 224.563 397.763 224.464C397.799 224.365 397.814 224.26 397.807 224.155C397.801 224.05 397.773 223.947 397.725 223.854C397.677 223.76 397.611 223.677 397.53 223.61C396.53 222.42 395.53 221.19 394.42 219.92L401.12 214.29C402.12 215.52 403.18 216.71 404.17 217.94C404.227 218.043 404.305 218.134 404.4 218.205C404.494 218.276 404.602 218.326 404.717 218.353C404.833 218.379 404.952 218.381 405.068 218.358C405.184 218.335 405.294 218.288 405.39 218.22C406.735 217.627 408.118 217.122 409.53 216.71C410.18 216.52 410.33 216.26 410.32 215.65C410.32 214.12 410.32 212.59 410.32 211H419.06C419.06 212.57 419.06 214.12 419.06 215.67C419.06 216.29 419.22 216.52 419.85 216.67C421.26 217.09 422.643 217.598 423.99 218.19C424.087 218.257 424.197 218.303 424.313 218.324C424.429 218.346 424.548 218.342 424.663 218.314C424.777 218.285 424.884 218.233 424.977 218.16C425.07 218.087 425.146 217.995 425.2 217.89C426.2 216.68 427.2 215.5 428.25 214.25L434.94 219.87L431.51 223.98C432.44 225.69 433.31 227.33 434.24 228.93C434.34 229.11 434.78 229.2 435.04 229.16C436.6 228.92 438.16 228.63 439.82 228.34L441.34 236.94C439.71 237.23 438.13 237.5 436.56 237.81C436.3 237.86 435.92 238.1 435.88 238.31C435.57 240.13 435.32 241.96 435.03 243.89L439.65 246.57L435.28 254.14L430.63 251.47C429.13 252.67 427.68 253.81 426.25 255C426.172 255.104 426.119 255.226 426.096 255.354C426.074 255.483 426.082 255.615 426.12 255.74C426.64 257.29 427.21 258.82 427.79 260.42L419.58 263.42C419.07 262.03 418.52 260.67 418.09 259.27C418.069 259.1 418.012 258.937 417.922 258.791C417.832 258.646 417.712 258.521 417.569 258.426C417.427 258.331 417.266 258.268 417.097 258.241C416.928 258.214 416.755 258.224 416.59 258.27C415.175 258.365 413.755 258.365 412.34 258.27C412.245 258.247 412.145 258.243 412.048 258.26C411.952 258.278 411.859 258.314 411.778 258.369C411.696 258.423 411.626 258.494 411.573 258.577C411.52 258.66 411.485 258.753 411.47 258.85C410.95 260.35 410.39 261.85 409.81 263.41L401.59 260.41L403.43 255.33L398.8 251.43L394.11 254.13L389.73 246.56C391.18 245.72 392.54 244.92 393.92 244.15C394.015 244.114 394.101 244.059 394.174 243.988C394.247 243.918 394.306 243.834 394.346 243.741C394.386 243.647 394.407 243.547 394.408 243.446C394.408 243.344 394.389 243.244 394.35 243.15C394.03 241.74 393.77 240.31 393.59 238.88C393.5 238.18 393.34 237.88 392.59 237.75C391.07 237.58 389.59 237.25 388.07 236.98L388 236.56ZM414.76 226.13C412.552 226.097 410.384 226.719 408.529 227.917C406.674 229.116 405.217 230.837 404.34 232.864C403.463 234.891 403.207 237.132 403.603 239.304C404 241.476 405.031 243.483 406.567 245.069C408.103 246.655 410.075 247.751 412.234 248.217C414.392 248.683 416.64 248.499 418.694 247.688C420.748 246.877 422.516 245.475 423.773 243.66C425.031 241.845 425.722 239.698 425.76 237.49C425.795 234.529 424.659 231.673 422.598 229.546C420.538 227.418 417.721 226.19 414.76 226.13Z" fill="#15A3DE"/>
<path opacity="0.61" d="M463.48 261.85L465.39 267.85C464.28 268.22 463.21 268.54 462.18 268.93C462.05 268.991 461.936 269.081 461.847 269.194C461.758 269.307 461.698 269.439 461.67 269.58C461.58 270.64 461.61 271.7 461.53 272.76C461.508 272.851 461.504 272.945 461.519 273.037C461.534 273.129 461.567 273.218 461.616 273.297C461.665 273.376 461.73 273.444 461.806 273.498C461.883 273.552 461.969 273.59 462.06 273.61C463.06 273.98 464.06 274.42 465.14 274.86C464.34 276.86 463.58 278.71 462.79 280.65C461.7 280.21 460.67 279.76 459.62 279.39C459.482 279.355 459.337 279.354 459.199 279.385C459.06 279.416 458.93 279.48 458.82 279.57C457.98 280.46 457.19 281.41 456.31 282.42L458.1 285.84L452.58 288.78C452.03 287.78 451.53 286.78 450.98 285.78C450.908 285.668 450.811 285.573 450.696 285.504C450.582 285.435 450.453 285.392 450.32 285.38C449.05 285.53 447.78 285.76 446.47 285.96L445.64 289.73L439.54 288.42L440.33 284.65C439.2 283.91 438.12 283.18 437.01 282.5C436.892 282.464 436.767 282.456 436.646 282.477C436.524 282.498 436.409 282.547 436.31 282.62C435.41 283.28 434.54 283.98 433.6 284.71L429.75 279.78C430.67 279.06 431.51 278.38 432.38 277.73C432.464 277.691 432.539 277.635 432.601 277.565C432.662 277.496 432.708 277.414 432.736 277.326C432.765 277.238 432.774 277.144 432.764 277.052C432.755 276.96 432.726 276.871 432.68 276.79C432.291 275.826 431.957 274.842 431.68 273.84C431.673 273.747 431.646 273.656 431.603 273.574C431.559 273.491 431.498 273.418 431.425 273.36C431.352 273.302 431.268 273.259 431.177 273.235C431.087 273.211 430.992 273.206 430.9 273.22C429.81 273.22 428.73 273.22 427.74 273.22V266.92H431.68C432.18 265.74 432.68 264.56 433.19 263.35C433.26 263.17 433.07 262.8 432.9 262.63C432.12 261.87 431.29 261.16 430.43 260.38L434.61 255.73L437.49 258.3C438.71 257.68 439.9 257.1 441.07 256.46C441.21 256.38 441.27 256 441.25 255.78C441.13 254.7 440.96 253.62 440.8 252.45L446.99 251.59C447.15 252.7 447.31 253.72 447.42 254.75C447.48 255.33 447.72 255.57 448.33 255.64C449.246 255.772 450.152 255.97 451.04 256.23C451.134 256.278 451.238 256.306 451.344 256.313C451.45 256.319 451.556 256.303 451.655 256.267C451.755 256.23 451.846 256.173 451.922 256.1C451.999 256.026 452.059 255.938 452.1 255.84C452.63 254.91 453.22 254.03 453.84 253.05L459.13 256.37L457.13 259.64C457.92 260.71 458.69 261.77 459.5 262.78C459.614 262.851 459.741 262.898 459.873 262.918C460.005 262.939 460.14 262.933 460.27 262.9C461.33 262.59 462.39 262.24 463.48 261.85ZM446.68 278.6C448.264 278.576 449.805 278.082 451.107 277.182C452.41 276.281 453.416 275.014 453.999 273.541C454.581 272.068 454.712 270.455 454.377 268.908C454.042 267.36 453.255 265.946 452.115 264.846C450.976 263.746 449.535 263.009 447.977 262.728C446.418 262.447 444.811 262.635 443.359 263.269C441.907 263.902 440.676 264.952 439.822 266.286C438.968 267.619 438.529 269.177 438.56 270.76C438.594 272.88 439.469 274.9 440.991 276.376C442.514 277.851 444.56 278.662 446.68 278.63V278.6Z" fill="#15A3DE"/>
<path opacity="0.61" d="M464.87 227.99L467.28 226.1L470.34 229.97C469.75 230.44 469.23 230.97 468.64 231.31C468.05 231.65 467.83 232.12 468.23 232.77C468.365 233.008 468.466 233.264 468.53 233.53C469.05 235.11 469.05 235.11 470.75 235.18C471.16 235.18 471.57 235.18 471.96 235.18V240.07C471.04 240.07 470.22 240.07 469.41 240.07C468.94 240.07 468.71 240.18 468.61 240.64C468.525 241.014 468.404 241.379 468.25 241.73C467.63 243.28 467.62 243.28 468.9 244.41L469.9 245.28L466.62 248.97L464.32 246.97C463.42 247.44 462.52 247.88 461.65 248.38C461.563 248.463 461.496 248.565 461.453 248.677C461.409 248.789 461.391 248.91 461.4 249.03C461.48 249.87 461.62 250.7 461.74 251.61L456.87 252.32C456.74 251.43 456.64 250.59 456.46 249.78C456.419 249.644 456.347 249.519 456.25 249.415C456.153 249.311 456.033 249.23 455.9 249.18C455 248.95 454.09 248.8 453.08 248.6L451.45 251.2L447.26 248.61C447.71 247.87 448.12 247.16 448.57 246.48C448.642 246.415 448.699 246.335 448.735 246.244C448.771 246.154 448.786 246.057 448.778 245.96C448.77 245.863 448.74 245.77 448.69 245.686C448.64 245.603 448.572 245.532 448.49 245.48C448.142 245.131 447.824 244.753 447.54 244.35C446.77 243.28 446.78 243.28 445.49 243.7C444.98 243.88 444.49 244.04 443.83 244.24L442.28 239.57C443.09 239.3 443.84 239.02 444.62 238.8C444.719 238.787 444.814 238.754 444.9 238.702C444.985 238.65 445.059 238.581 445.117 238.499C445.174 238.417 445.214 238.325 445.233 238.227C445.253 238.129 445.252 238.028 445.23 237.93C445.202 237.222 445.228 236.513 445.31 235.81C445.334 235.719 445.339 235.625 445.324 235.532C445.31 235.439 445.277 235.351 445.228 235.271C445.178 235.191 445.113 235.123 445.036 235.069C444.959 235.016 444.872 234.979 444.78 234.96C444.01 234.69 443.26 234.37 442.45 234.04L444.27 229.46C445.11 229.79 445.89 230.13 446.69 230.39C446.819 230.422 446.954 230.425 447.084 230.397C447.214 230.369 447.336 230.312 447.44 230.23C448.1 229.54 448.7 228.8 449.37 228.03L447.95 225.33L452.28 222.99L453.76 225.68L457.12 225.18L457.76 222.18L462.58 223.18C462.41 224.02 462.26 224.81 462.08 225.6C462.037 225.693 462.014 225.794 462.012 225.897C462.011 226 462.031 226.102 462.071 226.196C462.112 226.291 462.172 226.375 462.248 226.445C462.323 226.514 462.413 226.567 462.51 226.6C463.3 226.98 464.05 227.49 464.87 227.99ZM450.87 237.23C450.866 238.468 451.229 239.68 451.912 240.713C452.594 241.745 453.567 242.553 454.708 243.035C455.849 243.516 457.107 243.65 458.323 243.418C459.539 243.187 460.66 242.602 461.545 241.735C462.429 240.869 463.038 239.76 463.294 238.549C463.55 237.337 463.443 236.077 462.985 234.927C462.527 233.776 461.739 232.787 460.721 232.083C459.702 231.379 458.498 230.992 457.26 230.97C456.426 230.948 455.597 231.095 454.821 231.4C454.045 231.706 453.339 232.164 452.744 232.748C452.148 233.332 451.677 234.03 451.357 234.8C451.036 235.57 450.874 236.396 450.88 237.23H450.87Z" fill="#15A3DE"/>
</g>
</g>
<defs>
<linearGradient id="paint0_linear" x1="242.359" y1="309.356" x2="242.359" y2="24.6646" gradientUnits="userSpaceOnUse">
<stop stop-color="#808080" stop-opacity="0.25"/>
<stop offset="0.54" stop-color="#808080" stop-opacity="0.12"/>
<stop offset="1" stop-color="#808080" stop-opacity="0.1"/>
</linearGradient>
<clipPath id="clip0">
<rect width="473" height="413" fill="white"/>
</clipPath>
</defs>
</svg>
