<svg width="652" height="416" viewBox="0 0 652 416" fill="none" xmlns="http://www.w3.org/2000/svg">
<path d="M351.887 262.945C351.887 262.945 364.656 235.305 388.751 235.305C404.458 235.305 408.288 247.695 423.611 247.695C438.935 247.695 458.088 190.597 484.139 190.597C510.189 190.597 543.904 257.875 563.44 257.875C582.977 257.875 587.957 232.233 604.431 232.233C620.905 232.233 651.935 276.064 651.935 276.064" fill="url(#paint0_linear)"/>
<path d="M0 285.08C0 285.08 43.6627 173.511 88.4129 173.511C133.163 173.511 128.621 270.131 177.217 270.131C225.813 270.131 267.856 211.323 311.01 211.323C354.164 211.323 398.672 293.411 398.672 293.411" fill="url(#paint1_linear)"/>
<path d="M300.948 394.938C312.434 394.938 321.745 384.231 321.745 371.023C321.745 357.815 312.434 347.108 300.948 347.108C289.463 347.108 280.151 357.815 280.151 371.023C280.151 384.231 289.463 394.938 300.948 394.938Z" fill="#FFC774"/>
<path d="M330.21 373.272C334.378 373.272 338.505 374.215 342.355 376.049C346.206 377.883 349.704 380.571 352.651 383.96C355.598 387.349 357.936 391.372 359.53 395.8C361.125 400.228 361.945 404.973 361.945 409.766L366.64 409.767C366.64 404.265 365.698 398.817 363.867 393.734C362.037 388.651 359.354 384.033 355.971 380.142C352.588 376.252 348.572 373.167 344.152 371.062C339.732 368.956 334.994 367.874 330.21 367.874L330.21 373.272Z" fill="#3971D3"/>
<path d="M369.192 423.848C367.597 419.421 366.777 414.675 366.777 409.883H362.082C362.082 415.384 363.024 420.832 364.855 425.914C366.686 430.996 369.369 435.614 372.752 439.504C376.135 443.394 380.151 446.479 384.571 448.584C388.99 450.687 393.727 451.771 398.511 451.771V446.372C394.345 446.373 390.217 445.43 386.367 443.596C382.517 441.763 379.018 439.075 376.071 435.687C373.125 432.298 370.787 428.275 369.192 423.848Z" fill="#3971D3"/>
<mask id="mask0" mask-type="alpha" maskUnits="userSpaceOnUse" x="330" y="367" width="69" height="85">
<path fill-rule="evenodd" clip-rule="evenodd" d="M330.21 373.272C334.378 373.272 338.505 374.215 342.355 376.049C346.206 377.883 349.704 380.571 352.651 383.96C355.598 387.349 357.936 391.372 359.53 395.8C361.125 400.228 361.945 404.973 361.945 409.766L366.64 409.767C366.64 404.265 365.698 398.817 363.867 393.734C362.037 388.651 359.354 384.033 355.971 380.142C352.588 376.252 348.572 373.167 344.152 371.062C339.732 368.956 334.994 367.874 330.21 367.874L330.21 373.272ZM369.192 423.848C367.597 419.421 366.777 414.675 366.777 409.883H362.082C362.082 415.384 363.024 420.832 364.855 425.914C366.686 430.996 369.369 435.614 372.752 439.504C376.135 443.394 380.151 446.479 384.571 448.584C388.99 450.687 393.727 451.771 398.511 451.771V446.373C394.345 446.373 390.217 445.43 386.367 443.596C382.517 441.763 379.018 439.075 376.071 435.687C373.125 432.298 370.787 428.276 369.192 423.848Z" fill="white"/>
</mask>
<g mask="url(#mask0)">
<path d="M386.204 401.475H353.116V422.039H386.204V401.475Z" fill="white"/>
</g>
<path d="M604.576 78.242H452.056C452.056 78.242 462.466 48.2535 483.842 49.5177C505.217 50.7818 502.733 68.9657 515.252 68.9657C527.77 68.9657 536.662 31.6038 561.113 31.6038C593.614 31.6038 604.576 78.242 604.576 78.242Z" fill="#F2F6F9"/>
<path d="M338.465 129.397H501.829C495.726 114.529 486.439 101.401 473.787 100.961C458.687 100.439 451.88 121.151 437.405 121.151C422.93 121.151 414.676 70.4907 386.345 70.4907C357.665 70.4907 344.411 103.862 338.465 129.397Z" fill="#F2F6F9"/>
<path d="M51.0721 38.2976H206.112C206.112 38.2976 198.639 14.8233 179.509 14.8233C165.176 14.8233 158.729 24.743 144.966 24.743C131.203 24.743 118.309 0 91.4252 0C64.2089 -0.00449873 51.0721 38.2976 51.0721 38.2976Z" fill="#F2F6F9"/>
<path d="M545.961 172.504C545.961 188.677 520.497 237.605 520.497 237.605C520.497 237.605 495.034 188.677 495.034 172.504C495.034 164.738 497.717 157.29 502.49 151.798C507.267 146.307 513.745 143.222 520.497 143.222C527.25 143.222 533.728 146.307 538.505 151.798C543.277 157.29 545.961 164.738 545.961 172.504Z" fill="#3361C2"/>
<path d="M520.497 187.354C527.93 187.354 533.955 180.426 533.955 171.878C533.955 163.331 527.93 156.403 520.497 156.403C513.065 156.403 507.04 163.331 507.04 171.878C507.04 180.426 513.065 187.354 520.497 187.354Z" fill="#FFC774"/>
<path fill-rule="evenodd" clip-rule="evenodd" d="M521.573 264.696V293.487H516.879V264.696H521.573ZM516.108 308.66C519.61 304.636 521.573 299.178 521.573 293.488H516.879C516.879 297.747 515.408 301.831 512.791 304.843L516.108 308.66ZM516.108 308.66C512.611 312.684 507.865 314.946 502.917 314.947V314.946H502.917V309.548C506.621 309.548 510.17 307.855 512.791 304.843L516.108 308.66ZM435.269 314.946L435.238 312.247V312.244V309.548H502.917V309.548H502.917V314.946H435.269ZM435.269 314.946V314.947C429.428 315.031 423.854 317.758 419.75 322.536L416.409 318.743C421.381 312.954 428.134 309.651 435.207 309.549L435.207 309.548L435.222 309.548H435.238V314.946H435.269ZM599.326 366.002H599.338C609.161 366.122 618.546 370.693 625.455 378.722L622.118 382.519C616.077 375.5 607.874 371.505 599.291 371.401H599.314V368.709L599.314 368.702V368.699V366.002H599.326ZM435.251 366.002H599.314V368.709L599.291 371.401H435.238L435.238 371.401H435.222H435.207L435.207 371.401C428.134 371.298 421.381 367.995 416.409 362.206L419.75 358.413L419.75 358.413L419.75 358.413C423.849 363.186 429.417 365.912 435.251 366.002ZM435.251 366.002H435.238V368.705L435.238 368.702L435.269 366.003L435.251 366.002ZM419.75 358.413C415.646 353.635 413.346 347.19 413.346 340.475H408.651C408.651 348.61 411.441 356.418 416.409 362.207L416.409 362.206L416.409 362.206L419.75 358.413ZM599.338 451.771H599.326H599.314V449.074V449.072L599.314 449.07V446.372H599.291V446.372C607.874 446.267 616.077 442.272 622.118 435.254L622.118 435.254L622.118 435.254L625.454 439.051C618.546 447.08 609.161 451.649 599.338 451.77L599.338 451.771ZM625.454 439.051L625.455 439.051C632.363 431.022 636.24 420.182 636.24 408.887H631.546C631.546 418.761 628.158 428.235 622.118 435.254L625.455 439.05L625.454 439.051ZM599.291 446.372H397.525V451.771H599.314V449.07L599.291 446.372ZM625.455 378.722C632.363 386.752 636.24 397.591 636.24 408.887H631.546C631.546 399.013 628.158 389.538 622.118 382.519L625.455 378.722ZM413.346 340.475C413.346 333.759 415.646 327.314 419.75 322.536L416.409 318.743C411.441 324.532 408.651 332.34 408.651 340.475H413.346Z" fill="#3971D3"/>
<mask id="mask1" mask-type="alpha" maskUnits="userSpaceOnUse" x="397" y="264" width="237" height="186">
<path fill-rule="evenodd" clip-rule="evenodd" d="M397.525 449.071H599.314C608.519 448.959 617.314 444.676 623.784 437.152C630.259 429.628 633.893 419.471 633.893 408.886C633.893 398.302 630.259 388.145 623.784 380.62C617.314 373.097 608.519 368.814 599.314 368.702H435.238C428.783 368.608 422.617 365.593 418.079 360.309C413.545 355.026 410.999 347.899 410.999 340.474C410.999 333.049 413.545 325.923 418.079 320.639C422.617 315.356 428.783 312.341 435.238 312.247H502.917C507.243 312.246 511.39 310.269 514.449 306.751C517.509 303.233 519.226 298.462 519.226 293.487V264.696" fill="white"/>
</mask>
<g mask="url(#mask1)">
<path d="M556.946 385.491H591.388V350.761H556.946V385.491Z" fill="white"/>
<path d="M506.88 385.491H535.336V350.761H506.88V385.491Z" fill="white"/>
<path d="M466.683 297.316H448.656V332.047H466.683V297.316Z" fill="white"/>
</g>
<path d="M606.794 491H518.276C518.276 491 522.759 409.991 557.498 409.991C592.237 409.991 606.794 491 606.794 491Z" fill="url(#paint2_linear)"/>
<path d="M417.45 410.981H491.838C491.838 410.981 488.074 329.041 458.882 329.041C429.691 329.041 417.45 410.981 417.45 410.981Z" fill="url(#paint3_linear)"/>
<path d="M245.127 100.974L249.712 112.86L245.486 113.44" fill="#3361C2"/>
<path d="M269.057 106.319L285.335 108.5" stroke="#32373F" stroke-width="36" stroke-linecap="round"/>
<path d="M274.268 107.127C274.727 102.593 273.405 98.691 271.314 98.4112C269.224 98.1313 267.158 101.58 266.699 106.113C266.24 110.647 267.562 114.549 269.653 114.828C271.743 115.108 273.81 111.66 274.268 107.127Z" fill="#2B292D"/>
<path d="M247.419 103.291L268.994 106.152" stroke="#32373F" stroke-width="23"/>
<path d="M249.665 103.587C249.954 100.729 249.181 98.2772 247.939 98.1107C246.696 97.9443 245.454 100.126 245.165 102.984C244.876 105.842 245.648 108.294 246.891 108.46C248.134 108.626 249.375 106.445 249.665 103.587Z" fill="#2B292D"/>
<path d="M249.359 98.311C249.359 98.311 249.32 97.4113 250.643 96.4351C256.12 92.4627 272.316 89.5205 271.424 106.013C270.559 122.006 257.508 115.6 252.333 111.668C250.85 110.543 251.226 109.009 251.226 109.009C251.226 109.009 259.112 110.336 259.37 104.6C259.629 98.8644 249.359 98.311 249.359 98.311Z" fill="#3361C2"/>
<path d="M171.603 258.618C171.603 258.618 169.467 273.1 172.386 279.105C175.304 285.111 180.041 288.418 184.716 287.73C186.978 287.401 196.011 272.641 196.011 272.641L183.054 256.526L171.603 258.618Z" fill="#3361C2"/>
<path d="M295.741 338.371L296.085 342.281L325.649 343.891L276.979 373.124L273.955 343.689L295.741 338.371Z" fill="#162C56"/>
<path d="M273.426 166.88L248.929 171.042L253.897 213.78L202.892 215.228L208.76 256.468L166.509 262.717C160.982 215.143 192.896 144.868 192.896 144.868L194.07 153.015C198.487 143.087 202.782 136.973 225.578 137.661C248.546 138.359 255.435 139.222 255.435 139.222L250.643 114.551L272.914 107.254L283.168 149.632C283.622 151.506 283.724 153.469 283.468 155.392C283.212 157.315 282.603 159.153 281.682 160.784C280.76 162.416 279.548 163.803 278.124 164.854C276.701 165.905 275.1 166.596 273.426 166.88Z" fill="#FFC774"/>
<mask id="mask2" mask-type="alpha" maskUnits="userSpaceOnUse" x="165" y="107" width="119" height="156">
<path fill-rule="evenodd" clip-rule="evenodd" d="M273.426 166.88L248.929 171.042L253.897 213.78L202.892 215.228L208.76 256.468L166.509 262.717C160.982 215.143 192.896 144.868 192.896 144.868L194.07 153.015C198.487 143.087 202.782 136.973 225.578 137.661C248.546 138.359 255.435 139.222 255.435 139.222L250.643 114.551L272.914 107.254L283.168 149.632C283.622 151.506 283.724 153.469 283.468 155.392C283.212 157.315 282.603 159.153 281.682 160.784C280.76 162.416 279.548 163.803 278.124 164.854C276.701 165.905 275.1 166.596 273.426 166.88Z" fill="white"/>
</mask>
<g mask="url(#mask2)">
<path d="M173.148 217.382C173.148 222.007 165.868 235.571 165.868 235.571C165.868 235.571 158.584 222.007 158.584 217.382C158.627 215.195 159.414 213.114 160.775 211.585C162.136 210.056 163.963 209.199 165.866 209.199C167.768 209.199 169.596 210.056 170.957 211.585C172.317 213.114 173.104 215.195 173.148 217.382Z" fill="#B49AC9"/>
<path d="M192.048 248.388C192.048 253.012 184.763 266.58 184.763 266.58C184.763 266.58 177.483 253.012 177.483 248.388C177.527 246.2 178.313 244.119 179.674 242.59C181.035 241.061 182.862 240.205 184.765 240.205C186.668 240.205 188.495 241.061 189.856 242.59C191.217 244.119 192.003 246.2 192.048 248.388Z" fill="#B49AC9"/>
<path d="M195.537 189.005C195.537 193.63 188.257 207.198 188.257 207.198C188.257 207.198 180.972 193.625 180.972 189.005C181.016 186.818 181.803 184.737 183.164 183.207C184.525 181.678 186.352 180.822 188.255 180.822C190.157 180.822 191.985 181.678 193.345 183.207C194.706 184.737 195.493 186.818 195.537 189.005Z" fill="#B49AC9"/>
<path d="M216.028 157.995C216.028 162.62 208.744 176.184 208.744 176.184C208.744 176.184 201.464 162.62 201.464 157.995C201.508 155.808 202.294 153.727 203.655 152.198C205.016 150.669 206.843 149.813 208.746 149.813C210.649 149.813 212.476 150.669 213.837 152.198C215.198 153.727 215.984 155.808 216.028 157.995Z" fill="#B49AC9"/>
<path d="M234.924 189.005C234.924 193.629 227.644 207.198 227.644 207.198C227.644 207.198 220.363 193.625 220.363 189.005C220.363 186.784 221.13 184.655 222.495 183.085C223.861 181.515 225.713 180.633 227.644 180.633C229.574 180.633 231.426 181.515 232.791 183.085C234.157 184.655 234.924 186.784 234.924 189.005Z" fill="#B49AC9"/>
<path d="M238.417 129.622C238.417 134.247 231.133 147.815 231.133 147.815C231.133 147.815 223.852 134.238 223.852 129.622C223.897 127.435 224.683 125.354 226.044 123.825C227.405 122.295 229.232 121.44 231.135 121.44C233.037 121.44 234.865 122.295 236.225 123.825C237.586 125.354 238.373 127.435 238.417 129.622Z" fill="#B49AC9"/>
<path d="M260.356 156.682C260.356 161.306 253.076 174.87 253.076 174.87C253.076 174.87 245.796 161.306 245.796 156.682C245.796 154.461 246.562 152.332 247.928 150.762C249.293 149.192 251.145 148.31 253.076 148.31C255.007 148.31 256.858 149.192 258.224 150.762C259.589 152.332 260.356 154.461 260.356 156.682Z" fill="#B49AC9"/>
<path d="M282.745 128.299C282.745 132.924 275.465 146.492 275.465 146.492C275.465 146.492 268.184 132.924 268.184 128.299C268.184 126.078 268.951 123.949 270.317 122.379C271.682 120.809 273.534 119.927 275.465 119.927C277.395 119.927 279.247 120.809 280.613 122.379C281.978 123.949 282.745 126.078 282.745 128.299Z" fill="#B49AC9"/>
</g>
<path d="M309.112 240.115L299.849 340.531L270.406 347.765L270.469 258.344L232.674 266.698L204.867 456.26L174.447 456.751L185.072 255.932C185.447 248.95 186.231 242.005 187.42 235.144L190.788 215.547L240.233 214.063L287.96 213.266C290.94 213.22 293.894 213.903 296.626 215.271C299.358 216.639 301.806 218.659 303.807 221.199C305.808 223.738 307.316 226.739 308.231 230C309.145 233.261 309.446 236.709 309.112 240.115Z" fill="#EA6F57"/>
<path d="M198.643 159.682L191.179 215.547C191.179 215.547 183.719 240.942 183.382 287.806" stroke="white" stroke-width="3"/>
<path d="M220.363 100.434L221.161 137.675" stroke="#3361C2" stroke-width="40" stroke-linecap="round" stroke-linejoin="round"/>
<path d="M228.528 128.097L230.237 128.376C232.222 128.7 234.244 128.518 236.159 127.841C238.075 127.165 239.838 126.011 241.321 124.462C242.806 122.913 243.975 121.007 244.745 118.88C245.516 116.753 245.869 114.456 245.78 112.154L245.342 100.749C245.198 97.0676 243.93 93.5622 241.763 90.8477C239.595 88.1332 236.666 86.3827 233.488 85.9036C229.904 85.3633 226.281 86.4817 223.414 89.0122C220.546 91.5427 218.669 95.2789 218.196 99.3998L216.928 110.525C216.46 114.62 217.416 118.763 219.587 122.053C221.759 125.343 224.972 127.515 228.528 128.097Z" fill="#DB9E75"/>
<path d="M160.364 118.419C161.322 143.324 177.299 141.417 177.299 141.417C177.299 141.417 165.688 170.168 191.226 164.068C216.764 157.968 224.553 135.766 222.194 123.813C221.251 119.054 222.448 111.577 219.589 108.338C233.441 103.722 233.492 96.5736 233.492 96.5736C233.492 96.5736 251.985 103.416 249.532 83.3878C247.079 63.3595 228.496 59.5896 217.965 61.3756C215.745 61.7579 213.588 62.5272 211.569 63.6564C205.055 67.2239 200.306 72.6314 191.3 74.1384C166.416 78.3088 173.274 96.1822 173.274 96.1822C173.274 96.1822 159.718 101.572 160.364 118.419Z" fill="#2B292D"/>
<path d="M242.893 105.153C243.891 105.153 244.7 104.406 244.7 103.484C244.7 102.562 243.891 101.815 242.893 101.815C241.895 101.815 241.085 102.562 241.085 103.484C241.085 104.406 241.895 105.153 242.893 105.153Z" fill="white"/>
<path d="M242.052 115.784C242.052 115.784 240.057 115.784 240.01 113.44L242.052 115.784Z" fill="#3361C2"/>
<path d="M242.052 115.784C242.052 115.784 240.057 115.784 240.01 113.44" stroke="white" stroke-width="3" stroke-linecap="square"/>
<path d="M228.59 114.884L228.899 114.636C231.204 112.747 231.99 108.554 230.644 105.315L228.168 99.3361C226.822 96.1015 223.837 94.9948 221.517 96.8798L221.212 97.1317C218.904 99.0211 218.118 103.214 219.463 106.453L221.944 112.427C223.301 115.675 226.286 116.773 228.59 114.884Z" fill="#3361C2"/>
<path d="M222.135 99.9436L225.887 108.977" stroke="white" stroke-width="3" stroke-linecap="square"/>
<path d="M233.062 267.732C233.062 267.732 227.397 267.795 222.178 265.888C215.825 263.567 213.783 261.506 213.783 261.506" stroke="white" stroke-width="3"/>
<path d="M255.642 138.565L261.769 139.15" stroke="white" stroke-width="3" stroke-linecap="square"/>
<path d="M123.543 334.197C124.349 334.197 125.003 333.043 125.003 331.619C125.003 330.195 124.349 329.041 123.543 329.041C122.737 329.041 122.084 330.195 122.084 331.619C122.084 333.043 122.737 334.197 123.543 334.197Z" fill="white"/>
<path d="M147.599 332.856H141.578C141.578 332.856 141.461 339.456 147.035 339.465C147.452 337.296 147.641 335.077 147.599 332.856Z" fill="#292C33"/>
<defs>
<linearGradient id="paint0_linear" x1="375.562" y1="195.024" x2="375.562" y2="267.003" gradientUnits="userSpaceOnUse">
<stop offset="0.01" stop-color="#DFE5EA" stop-opacity="0.6"/>
<stop offset="1" stop-color="white"/>
</linearGradient>
<linearGradient id="paint1_linear" x1="21.5879" y1="173.079" x2="21.4683" y2="280.851" gradientUnits="userSpaceOnUse">
<stop offset="0.01" stop-color="#D3DBE0"/>
<stop offset="1" stop-color="white"/>
</linearGradient>
<linearGradient id="paint2_linear" x1="512.611" y1="404.612" x2="512.653" y2="483.92" gradientUnits="userSpaceOnUse">
<stop offset="0.01" stop-color="#DFE5EA"/>
<stop offset="1" stop-color="white"/>
</linearGradient>
<linearGradient id="paint3_linear" x1="770041" y1="69813" x2="770017" y2="84429.8" gradientUnits="userSpaceOnUse">
<stop offset="0.01" stop-color="#DFE5EA"/>
<stop offset="1" stop-color="white"/>
</linearGradient>
</defs>
</svg>
