<svg width="996" height="706" viewBox="0 0 996 706" fill="none" xmlns="http://www.w3.org/2000/svg">
<g clip-path="url(#clip0)">
<path opacity="0.1" d="M787.761 605.826C900.637 605.826 992.142 588.035 992.142 566.088C992.142 544.142 900.637 526.351 787.761 526.351C674.884 526.351 583.38 544.142 583.38 566.088C583.38 588.035 674.884 605.826 787.761 605.826Z" fill="#CD2BF3"/>
<g opacity="0.5">
<path opacity="0.5" d="M612.698 100.175C609.943 100.958 606.568 102.999 604.905 108.58C601.646 119.521 609.217 126.959 606.722 138.364C606.03 141.389 604.712 144.236 602.855 146.721C599.809 150.852 596.501 152.806 593.291 155.698C589.219 159.393 586.301 164.187 584.888 169.502C583.34 175.368 583.211 181.519 584.511 187.445C585.652 192.398 587.596 196.006 589.297 200.02C591.413 205.14 593.067 210.44 594.239 215.855C594.882 218.492 595.245 221.19 595.322 223.903C595.274 227.508 594.95 231.104 594.355 234.66L589.723 266.987C589.019 271.214 588.596 275.482 588.456 279.765C588.517 284.057 589.012 288.332 589.936 292.524C591.56 301.075 593.31 309.936 597.033 314.463C600.756 318.99 607.1 317.364 610.997 308.204C614.7 299.44 614.787 287.745 618.056 278.382C623.21 263.63 633.45 261.647 639.136 247.573C644.589 234.031 642.917 217.509 645.682 202.11C647.616 191.073 651.88 181.013 654.385 170.111C657.982 154.412 657.624 138.112 654.752 126.04C652.568 116.121 647.843 106.941 641.041 99.4007C638.633 96.7406 636.051 94.3707 633.024 94.1289C629.804 93.8774 626.99 97.9304 623.809 99.1492C620.134 100.591 616.441 99.1105 612.698 100.175Z" fill="#CD2BF3"/>
<path opacity="0.5" d="M630.133 94.951C630.133 94.951 624.679 234.572 601.743 316.9" stroke="#535461" stroke-width="2" stroke-miterlimit="10"/>
<path opacity="0.5" d="M604.769 109.238C604.769 109.238 629.282 131.564 624.631 174.048" stroke="#535461" stroke-width="2" stroke-miterlimit="10"/>
<path opacity="0.5" d="M584.202 172.771C584.202 172.771 624.438 180.868 621.45 204.944" stroke="#535461" stroke-width="2" stroke-miterlimit="10"/>
<path opacity="0.5" d="M654.82 125.75C654.82 125.75 638.536 140.008 624.031 180.393" stroke="#535461" stroke-width="2" stroke-miterlimit="10"/>
<path opacity="0.5" d="M638.913 247.805C638.913 247.805 627.803 256.511 618.887 226.031" stroke="#535461" stroke-width="2" stroke-miterlimit="10"/>
<path opacity="0.5" d="M590.97 265.613C590.97 265.613 613.627 262.653 615.715 248.463" stroke="#535461" stroke-width="2" stroke-miterlimit="10"/>
</g>
<path d="M667.468 6.52939C661.86 7.36128 655.11 9.96334 652.335 17.9823C646.891 33.7108 663.436 45.6183 659.626 62.0529C658.489 66.5757 656.096 70.684 652.722 73.9025C646.92 79.6192 640.286 82.1149 634.001 85.9938C627.716 89.8727 621.189 95.9764 618.239 105.34C615.406 114.346 616.634 124.29 619.583 131.719C622.533 139.147 626.99 144.69 630.974 150.803C635.816 158.328 639.863 166.335 643.052 174.696C644.66 178.507 645.74 182.52 646.262 186.623C646.775 191.653 646.127 197.06 645.479 202.351L639.726 249.498C638.962 255.766 638.188 262.131 638.623 268.167C639.116 275.122 641.176 281.197 643.207 287.126C647.577 299.914 652.258 313.244 660.506 320.286C668.754 327.328 681.693 325.819 688.664 312.721C695.298 300.253 694.08 283.044 699.736 269.647C708.652 248.531 729.616 246.819 739.702 226.776C749.372 207.546 743.966 182.947 747.853 160.602C750.638 144.593 758.181 130.277 762.049 114.52C767.628 91.817 764.95 67.7794 757.581 49.7101C750.213 31.6407 738.561 18.7562 726.058 8.86061C720.759 4.65282 715.14 0.851294 708.845 0.154832C702.154 -0.589996 696.806 5.03974 690.376 6.46168C682.892 8.01905 675.078 5.39764 667.468 6.52939Z" fill="#CD2BF3"/>
<path d="M702.937 0.899658C702.937 0.899658 708.217 205.863 670.485 324.387" stroke="#535461" stroke-width="2" stroke-miterlimit="10"/>
<path d="M652.122 18.9689C652.122 18.9689 705.5 54.7593 700.926 116.822" stroke="#535461" stroke-width="2" stroke-miterlimit="10"/>
<path d="M617.089 110.06C617.089 110.06 701.332 126.756 698.005 161.85" stroke="#535461" stroke-width="2" stroke-miterlimit="10"/>
<path d="M757.678 49.1876C757.678 49.1876 725.661 68.2533 700.442 126.002" stroke="#535461" stroke-width="2" stroke-miterlimit="10"/>
<path d="M739.199 227.047C739.199 227.047 717.249 238.654 695.172 192.601" stroke="#535461" stroke-width="2" stroke-miterlimit="10"/>
<path d="M642.085 247.563C642.085 247.563 688.626 245.89 691.275 225.238" stroke="#535461" stroke-width="2" stroke-miterlimit="10"/>
<path d="M65.0295 559.675C65.0295 559.675 73.1328 570.316 61.2873 586.276C49.4418 602.237 39.6559 615.798 43.6302 625.781C43.6302 625.781 61.5 596.056 76.0434 595.64C90.5868 595.224 81.033 577.551 65.0295 559.675Z" fill="#CD2BF3"/>
<path opacity="0.1" d="M65.0295 559.675C65.7526 560.697 66.3257 561.818 66.7314 563.003C80.9266 579.679 88.4788 595.243 74.8443 595.64C62.1382 596.007 46.8986 618.729 43.2434 624.475C43.364 624.918 43.5093 625.354 43.6785 625.781C43.6785 625.781 61.5483 596.056 76.0917 595.64C90.6351 595.224 81.033 577.551 65.0295 559.675Z" fill="black"/>
<path d="M80.0951 573.189C80.0951 576.922 79.6793 579.96 79.1281 579.96C78.5769 579.96 78.1611 576.932 78.1611 573.189C78.1611 569.445 78.6833 571.254 79.1958 571.254C79.7083 571.254 80.0951 569.455 80.0951 573.189Z" fill="#FFD037"/>
<path d="M85.2684 577.638C81.9903 579.428 79.1377 580.54 78.896 580.047C78.6542 579.553 81.1007 577.774 84.3788 575.994C87.6568 574.214 86.3611 575.51 86.6125 575.994C86.8639 576.477 88.5368 575.849 85.2684 577.638Z" fill="#FFD037"/>
<path d="M22.2502 559.675C22.2502 559.675 14.1469 570.316 25.9925 586.276C37.838 602.237 47.6045 615.789 43.6495 625.771C43.6495 625.771 25.7797 596.046 11.2363 595.63C-3.30706 595.214 6.22737 577.551 22.2502 559.675Z" fill="#CD2BF3"/>
<path opacity="0.1" d="M22.2502 559.675C21.5441 560.7 20.9874 561.821 20.5967 563.003C6.40143 579.679 -1.15069 595.243 12.4837 595.64C25.1899 596.007 40.4295 618.729 44.0847 624.475C43.9641 624.918 43.8188 625.354 43.6495 625.781C43.6495 625.781 25.7797 596.056 11.2363 595.64C-3.30706 595.224 6.22737 577.551 22.2502 559.675Z" fill="black"/>
<path d="M7.16528 573.189C7.16528 576.922 7.58109 579.96 8.13226 579.96C8.68344 579.96 9.09925 576.932 9.09925 573.189C9.09925 569.445 8.57708 571.254 8.06458 571.254C7.55208 571.254 7.16528 569.455 7.16528 573.189Z" fill="#FFD037"/>
<path d="M1.99198 577.638C5.27004 579.428 8.12263 580.54 8.36438 580.047C8.60612 579.553 6.15966 577.774 2.8816 575.994C-0.396469 574.214 0.899288 575.51 0.647873 575.994C0.396458 576.477 -1.27642 575.849 1.99198 577.638Z" fill="#FFD037"/>
<path d="M9.74719 624.388C9.74719 624.388 32.4036 623.692 39.2304 618.826C46.0573 613.961 74.0418 608.186 75.7727 615.924C77.5035 623.663 109.82 654.723 84.2434 654.926C58.6668 655.129 24.8128 650.941 17.9955 646.791C11.1783 642.641 9.74719 624.388 9.74719 624.388Z" fill="#A8A8A8"/>
<path opacity="0.2" d="M84.6979 652.237C59.1212 652.44 25.2672 648.252 18.45 644.102C13.2573 640.939 11.188 629.592 10.5014 624.359H9.74719C9.74719 624.359 11.1783 642.641 17.9955 646.791C24.8128 650.941 58.6668 655.139 84.2434 654.926C91.6311 654.868 94.1743 652.237 94.0389 648.348C93.0139 650.728 90.2 652.198 84.6979 652.237Z" fill="black"/>
<path d="M949.923 555.274C951.696 553.829 952.987 551.879 953.627 549.683C954.11 547.458 953.163 544.798 951.035 543.985C948.657 543.076 946.113 544.721 944.189 546.394C942.265 548.067 940.05 549.963 937.527 549.605C938.824 548.429 939.794 546.937 940.343 545.274C940.892 543.611 941.001 541.834 940.66 540.116C940.551 539.404 940.25 538.735 939.789 538.182C938.465 536.769 936.076 537.379 934.49 538.491C929.462 542.031 928.06 548.861 928.031 555.013C927.528 552.798 927.953 550.486 927.934 548.242C927.915 545.997 927.296 543.405 925.381 542.225C924.194 541.587 922.861 541.27 921.513 541.306C919.251 541.219 916.737 541.451 915.189 543.105C913.255 545.156 913.768 548.609 915.441 550.844C917.114 553.078 919.647 554.519 921.987 556.086C923.863 557.202 925.463 558.726 926.667 560.546C926.809 560.798 926.926 561.064 927.016 561.339H941.182C944.356 559.721 947.296 557.681 949.923 555.274Z" fill="#CD2BF3"/>
<path opacity="0.1" d="M141.885 464.618C172.654 503.755 160.703 560.933 141.15 606.715C134.604 622.047 127.197 638.269 129.962 654.704C133.337 674.804 151.236 689.527 170.111 697.265C204.439 711.465 245.536 708.08 277.069 688.453C304.328 671.486 323.852 643.899 351.575 627.706C397.99 600.621 457.034 610.846 507.414 629.505C543.056 642.709 582.026 659.888 617.446 646.085C642.365 636.412 659.597 612.742 668.986 587.688C673.522 575.587 676.809 562.538 685.425 552.865C690.569 547.168 697.28 543.115 704.165 539.71C767.019 508.553 846.311 525.2 907.309 490.687C948.512 467.355 974.891 423.333 986.601 377.434C998.311 331.535 996.919 283.402 993.95 236.139C991.842 202.545 988.061 166.687 966.604 140.753C943.909 113.33 904.949 103.125 869.741 108.339C834.534 113.552 802.604 132.221 774.561 154.102C739.47 181.448 706.931 215.507 663.842 226.592C634.504 234.137 603.638 230.007 573.371 228.585C522.779 226.195 472.177 231.487 421.865 237.291C373.699 242.862 325.167 248.995 279.303 264.665C246.832 275.76 220.8 295.89 190.137 309.955C170.15 319.125 148.354 321.659 129.44 333.335C106.126 347.719 84.7656 372.743 90.7608 402.014C96.3887 429.882 125.543 443.85 141.885 464.618Z" fill="#CD2BF3"/>
<path opacity="0.1" d="M534.112 464.598C762.509 464.598 947.661 446.807 947.661 424.861C947.661 402.915 762.509 385.124 534.112 385.124C305.715 385.124 120.563 402.915 120.563 424.861C120.563 446.807 305.715 464.598 534.112 464.598Z" fill="#CD2BF3"/>
<path opacity="0.1" d="M216.275 693.851C329.152 693.851 420.656 676.06 420.656 654.113C420.656 632.167 329.152 614.376 216.275 614.376C103.398 614.376 11.8939 632.167 11.8939 654.113C11.8939 676.06 103.398 693.851 216.275 693.851Z" fill="#CD2BF3"/>
<path d="M425.201 412.47L421.961 417.181C421.961 417.181 425.491 421.892 425.829 422.482C426.168 423.072 436.128 422.192 436.128 422.192L437.008 418.661L435.538 414.54L425.201 412.47Z" fill="#E6E6F0"/>
<path d="M316.29 409.82L309.811 410.99L313.93 418.951L318.349 421.302L322.469 424.242L323.649 421.012L320.699 414.821L316.29 409.82Z" fill="#FDC2CC"/>
<path d="M422.261 333.257C422.261 333.257 456.705 341.499 463.174 350.669C463.174 350.669 469.063 355.68 463.174 364.801C457.285 373.923 449.047 394.546 449.047 394.546C449.047 394.546 443.158 414.569 440.808 416.04C438.458 417.51 424.911 418.69 423.731 413.138C423.731 413.138 431.38 401.066 431.38 395.465C431.38 389.864 444.038 363.37 444.038 363.37C444.038 363.37 415.193 360.129 406.064 362.19C396.936 364.25 410.193 330.017 422.261 333.257Z" fill="#565171"/>
<path opacity="0.1" d="M422.261 333.257C422.261 333.257 456.705 341.499 463.174 350.669C463.174 350.669 469.063 355.68 463.174 364.801C457.285 373.923 449.047 394.546 449.047 394.546C449.047 394.546 443.158 414.569 440.808 416.04C438.458 417.51 424.911 418.69 423.731 413.138C423.731 413.138 431.38 401.066 431.38 395.465C431.38 389.864 444.038 363.37 444.038 363.37C444.038 363.37 415.193 360.129 406.064 362.19C396.936 364.25 410.193 330.017 422.261 333.257Z" fill="black"/>
<path d="M415.193 341.209C415.125 342.921 414.941 344.846 414.68 346.916C412.794 361.909 406.654 384.205 406.654 384.205C406.654 384.205 400.475 397.458 398.706 405.999C396.936 414.54 384.868 416.639 384.868 416.639C384.868 416.639 351.894 420.509 345.125 419C338.356 417.491 327.719 423.42 322.459 422.53C317.199 421.64 313.921 409.278 313.921 409.278C323.051 409.332 332.086 407.425 340.416 403.687C353.954 397.506 373.39 400.447 373.39 400.447C374.84 400.025 376.188 399.312 377.352 398.351C378.516 397.389 379.471 396.2 380.159 394.856C382.219 390.435 382.218 363.64 381.629 361.87C377.761 350.263 378.08 342.814 379.192 338.471C379.564 336.574 380.401 334.799 381.629 333.306L415.193 341.209Z" fill="#565171"/>
<path opacity="0.1" d="M415.193 341.208C415.125 342.921 414.941 344.846 414.68 346.916C411.721 347.148 403.424 347.37 397.274 343.569C391.473 340.009 383.031 338.8 379.231 338.423C379.603 336.526 380.44 334.751 381.667 333.257L415.193 341.208Z" fill="black"/>
<path d="M419.264 337.523C417.89 341.392 415.782 345.929 415.782 345.929C415.782 345.929 404.894 347.399 397.236 342.688C389.577 337.978 377.219 337.388 377.219 337.388C379.221 336.159 380.575 332.425 381.416 329.156C381.886 327.307 382.254 325.434 382.518 323.545C382.518 323.545 418.722 330.907 420.231 332.087C420.791 332.551 420.192 334.892 419.264 337.523Z" fill="#E6E6F0"/>
<path d="M483.78 213.408L439.87 239.922L435.509 242.553V229.6L438.535 228.149L475.542 210.457C475.542 210.457 477.311 178.362 482.021 183.373C486.73 188.383 483.78 213.408 483.78 213.408Z" fill="#FDC2CC"/>
<path opacity="0.1" d="M439.87 239.922L435.509 242.553V229.6L438.535 228.149C438.736 232.097 439.181 236.029 439.87 239.922Z" fill="black"/>
<path d="M406.074 244.661L437.569 226.408C437.569 226.408 438.158 244.081 441.688 246.722C441.688 246.722 428.74 250.591 423.731 258.794L406.074 244.661Z" fill="#B45181"/>
<path opacity="0.1" d="M406.074 244.661L437.569 226.408C437.569 226.408 438.158 244.081 441.688 246.722C441.688 246.722 428.74 250.591 423.731 258.794L406.074 244.661Z" fill="black"/>
<path d="M483.5 260.225C483.5 260.225 468.522 266.755 458.6 269.154C456.368 269.827 454.033 270.096 451.706 269.947C444.937 268.767 453.475 260.274 453.475 260.274L457.034 259.722L476.141 256.743C476.141 256.743 478.201 227.298 481.731 229.658C485.26 232.019 483.5 260.225 483.5 260.225Z" fill="#FDC2CC"/>
<path d="M420.202 233.721C420.202 233.721 407.544 243.143 412.253 254.925C416.962 266.706 387.817 247.854 387.817 247.854C387.817 247.854 397.236 233.721 399.295 223.119C401.355 212.518 420.202 233.721 420.202 233.721Z" fill="#FDC2CC"/>
<path opacity="0.1" d="M419.264 337.523C413.789 335.46 408.067 334.127 402.245 333.557C393.735 332.59 385.941 330.955 381.426 329.156C381.895 327.307 382.263 325.434 382.528 323.545C382.528 323.545 418.732 330.907 420.24 332.087C420.791 332.551 420.192 334.892 419.264 337.523Z" fill="black"/>
<path opacity="0.1" d="M458.591 269.154C456.358 269.827 454.023 270.096 451.696 269.947C444.927 268.767 453.466 260.274 453.466 260.274L457.024 259.722C458.513 262.015 460.031 265.594 458.591 269.154Z" fill="black"/>
<path d="M399.595 239.022C399.595 239.022 388.117 238.732 383.998 243.443C379.878 248.153 380.758 260.854 380.758 260.854C380.758 260.854 379.898 286.285 386.348 300.514C386.56 300.973 386.585 301.497 386.415 301.974C386.348 302.149 386.348 302.042 386.348 302.042C386.348 302.042 382.228 320.595 378.109 323.836C373.99 327.076 386.937 330.907 402.283 332.667C417.629 334.428 423.77 338.848 423.77 338.848C423.77 338.848 426.419 335.946 426.671 329.427C426.922 322.907 422.58 275.538 422.58 275.538C422.58 275.538 438.768 279.659 448.486 274.658C448.486 274.658 452.905 277.018 457.024 270.537C461.144 264.056 454.123 256.995 454.123 256.995C454.123 256.995 447.644 263.476 429.688 254.934C411.731 246.393 405.175 238.732 399.595 239.022Z" fill="#B45181"/>
<path d="M311.581 410.41H308.051V415.42L311.581 423.372C311.581 423.372 316.29 424.252 316.59 424.252C316.889 424.252 320.709 423.372 320.709 423.372L321.889 421.311C321.889 421.311 308.931 416.291 311.581 410.41Z" fill="#E6E6F0"/>
<path d="M422.261 415.121L416.962 426.902L439.338 437.543L457.005 438.133C457.005 438.133 458.475 434.012 452.586 431.952L447.877 431.072C447.877 431.072 441.698 419.88 441.108 414.627C441.108 414.627 435.219 415.807 434.339 420.218C434.329 420.122 426.09 424.242 422.261 415.121Z" fill="#B45181"/>
<path d="M308.931 409.23L307.133 410.7L299.223 417.181L317.47 441.364C317.47 441.364 327.768 445.784 332.487 441.364C332.487 441.364 335.388 438.462 328.957 436.063C328.957 436.063 323.948 436.943 323.948 431.942C323.948 426.941 325.128 421.64 326.849 420.46C326.849 420.46 322.43 418.99 321.26 420.17C320.36 421.162 319.569 422.249 318.901 423.41C318.901 423.41 308.341 419.241 308.931 409.23Z" fill="#B45181"/>
<path opacity="0.1" d="M398.715 223.71C398.416 225.203 398.022 226.677 397.536 228.12C399.065 231.8 401.967 234.738 405.627 236.311C409.287 237.885 413.415 237.969 417.136 236.546C417.912 235.745 418.743 234.998 419.621 234.311C419.621 234.311 400.775 213.108 398.715 223.71Z" fill="black"/>
<path opacity="0.1" d="M397.091 263.04C397.091 263.04 406.219 275.112 419.467 275.412L397.091 263.04Z" fill="black"/>
<g opacity="0.1">
<path opacity="0.1" d="M451.648 274.861C451.462 274.809 451.281 274.741 451.106 274.658C450.823 274.806 450.533 274.945 450.236 275.074C450.714 275.064 451.188 274.993 451.648 274.861Z" fill="black"/>
<path opacity="0.1" d="M454.781 258.204C454.46 257.792 454.118 257.398 453.756 257.024C453.756 257.024 451.822 258.958 447.045 259.326C449.676 259.587 452.332 259.202 454.781 258.204Z" fill="black"/>
<path opacity="0.1" d="M425.201 275.538L425.259 276.167C429.142 276.886 433.088 277.21 437.037 277.134C433.049 276.989 429.085 276.454 425.201 275.538Z" fill="black"/>
<path opacity="0.1" d="M404.894 332.686C389.587 330.916 376.639 327.095 380.72 323.855C384.8 320.614 388.958 302.061 388.958 302.061C388.958 302.061 388.958 302.168 389.026 301.994C389.195 301.517 389.171 300.992 388.958 300.533C382.509 286.265 383.369 260.873 383.369 260.873C383.369 260.873 382.489 248.211 386.609 243.462C389.674 239.951 396.82 239.225 400.272 239.08C399.95 239.055 399.627 239.055 399.305 239.08C399.305 239.08 387.827 238.79 383.708 243.501C379.588 248.211 380.468 260.912 380.468 260.912C380.468 260.912 379.608 286.343 386.058 300.572C386.27 301.031 386.295 301.555 386.125 302.032C386.057 302.207 386.058 302.1 386.058 302.1C386.058 302.1 381.967 320.595 377.809 323.836C373.651 327.076 386.638 330.907 401.984 332.667C417.33 334.428 423.47 338.848 423.47 338.848C423.778 338.478 424.05 338.08 424.282 337.658C421.294 336.217 415.144 333.847 404.894 332.686Z" fill="black"/>
</g>
<path d="M412.253 236.962C420.707 236.962 427.56 230.106 427.56 221.649C427.56 213.192 420.707 206.337 412.253 206.337C403.799 206.337 396.946 213.192 396.946 221.649C396.946 230.106 403.799 236.962 412.253 236.962Z" fill="#FDC2CC"/>
<path opacity="0.1" d="M434.039 214.801C432.772 217.973 428.991 219.173 425.675 219.995C420.936 221.156 415.831 222.297 411.296 220.498C410.708 220.168 410.03 220.036 409.362 220.121C408.823 220.337 408.373 220.729 408.085 221.233C403.086 228.353 403.898 237.842 402.602 246.451C402.196 249.13 401.51 251.897 399.702 253.899C396.182 257.768 389.539 257.623 386.299 261.734C384.162 264.443 384.143 268.206 384.162 271.659C384.162 275.341 384.13 279.027 384.065 282.715C384.007 285.134 383.891 287.639 382.799 289.786C380.942 293.423 376.803 295.155 372.984 296.558C370.605 297.447 368.149 298.347 365.596 298.105C363.043 297.863 360.49 296.171 360.162 293.617C359.707 290.154 363.275 287.736 365.731 285.24C369.657 281.264 371.272 275.48 371.417 269.889C371.555 267.631 371.226 265.368 370.45 263.243C369.551 261.048 367.946 259.2 366.979 257.033C364.001 250.359 367.675 242.64 372.075 236.797C376.475 230.955 381.88 225.257 382.818 218.012C382.9 216.444 383.123 214.887 383.485 213.359C384.162 211.251 385.767 205.427 387.537 204.093C390.37 201.958 393.696 200.574 397.207 200.068C399.924 199.672 402.699 199.817 405.397 199.295C408.549 198.685 411.479 197.186 414.632 196.625C421.449 195.416 428.846 203.338 431.834 209.587C432.656 211.502 434.813 212.856 434.039 214.801Z" fill="black"/>
<path d="M434.039 214.211C432.772 217.383 428.991 218.583 425.675 219.405C420.936 220.566 415.831 221.707 411.296 219.908C410.708 219.578 410.03 219.446 409.362 219.531C408.823 219.747 408.373 220.139 408.085 220.643C403.086 227.763 403.898 237.252 402.602 245.861C402.196 248.54 401.51 251.307 399.702 253.309C396.182 257.178 389.539 257.033 386.299 261.144C384.162 263.853 384.143 267.616 384.162 271.069C384.162 274.751 384.13 278.437 384.065 282.125C384.007 284.544 383.891 287.049 382.799 289.196C380.942 292.833 376.803 294.565 372.984 295.967C370.605 296.857 368.149 297.757 365.596 297.515C363.043 297.273 360.49 295.581 360.162 293.027C359.707 289.564 363.275 287.146 365.731 284.65C369.657 280.674 371.272 274.89 371.417 269.299C371.555 267.041 371.226 264.778 370.45 262.653C369.551 260.458 367.946 258.61 366.979 256.443C364.001 249.769 367.675 242.05 372.075 236.207C376.475 230.365 381.88 224.667 382.818 217.422C382.9 215.854 383.123 214.297 383.485 212.769C384.162 210.66 385.767 204.837 387.537 203.502C390.37 201.368 393.696 199.983 397.207 199.478C399.924 199.082 402.699 199.227 405.397 198.705C408.549 198.095 411.479 196.596 414.632 196.035C421.449 194.826 428.846 202.748 431.834 208.997C432.656 210.912 434.813 212.266 434.039 214.211Z" fill="#F569BC"/>
<path d="M483.5 184.775H737.98V439.323H483.5V184.775Z" fill="#F7DF1E"/>
<path d="M550.425 397.496L569.9 385.705C573.661 392.369 577.075 398.009 585.275 398.009C593.136 398.009 598.087 394.933 598.087 382.977V301.636H622.001V383.306C622.001 408.079 607.496 419.357 586.3 419.357C567.173 419.357 556.072 409.442 550.434 397.486L550.425 397.496ZM634.987 394.923L654.453 383.644C659.578 392.021 666.24 398.154 678.028 398.154C687.939 398.154 694.254 393.201 694.254 386.362C694.254 378.16 687.765 375.258 676.848 370.47L670.872 367.906C653.621 360.564 642.172 351.336 642.172 331.855C642.172 313.911 655.835 300.243 677.186 300.243C692.387 300.243 703.295 305.544 711.176 319.376L692.561 331.342C688.461 323.99 684.023 321.088 677.186 321.088C670.185 321.088 665.737 325.528 665.737 331.342C665.737 338.519 670.176 341.421 680.426 345.852L686.402 348.415C706.708 357.121 718.177 366.01 718.177 386.005C718.177 407.537 701.264 419.328 678.53 419.328C656.29 419.328 641.979 408.688 635.016 394.894" fill="black"/>
<path d="M849.609 580.588C849.609 580.588 839.678 581.285 833.547 570.645C832.349 568.502 830.933 566.489 829.322 564.637C827.342 561.391 826.314 557.654 826.353 553.852C826.691 545.968 818.472 502.788 818.472 502.788C818.472 502.788 819.497 486.343 811.278 476.061C805.863 469.29 798.078 449.944 793.389 437.446C793.703 437.727 794.082 437.926 794.491 438.026L794.297 436.953H794.491L792.064 423.614C788.53 419.55 785.552 415.035 783.206 410.187L783.757 410.071L791.029 408.543C791.029 408.543 802.846 391.741 803.6 383.48H804.567H805.93C816.868 383.42 827.8 383.992 838.672 385.192C838.672 385.144 838.595 384.931 838.498 384.592C838.038 382.93 837.683 381.24 837.435 379.533H838.111L844.88 379.088C844.88 379.088 868.175 353.048 859.607 348.251C851.04 343.453 842.134 369.841 842.134 369.841L839.233 370.363L838.45 370.508C838.527 370.392 838.605 370.286 838.692 370.179C838.779 370.073 800.67 368.477 794.8 359.21C794.8 359.21 778.014 345.842 777.327 336.962C777.203 335.12 776.575 333.347 775.511 331.839C774.446 330.33 772.987 329.144 771.293 328.411C769.219 327.421 766.922 326.991 764.631 327.163L756.769 327.705L757.32 328.672H757.098C756.605 327.542 756.191 326.378 755.86 325.19H756.024C755.966 324.948 755.918 324.706 755.87 324.464C758.279 323.896 760.55 322.85 762.547 321.387C764.545 319.925 766.229 318.077 767.5 315.952C768.77 313.826 769.601 311.468 769.944 309.015C770.287 306.563 770.134 304.067 769.494 301.675C770.264 301.773 771.044 301.75 771.806 301.607C774.706 301.017 776.747 298.076 776.824 295.136C776.824 294.942 776.824 294.749 776.824 294.565C776.824 294.565 776.824 294.487 776.824 294.449C776.795 292.971 776.437 291.519 775.777 290.197C775.116 288.875 774.169 287.717 773.005 286.807C771.438 285.501 769.562 284.573 768.17 283.122C766.477 281.39 765.549 279.069 764.234 277.028C762.031 273.651 758.764 271.108 754.951 269.802C752.118 268.834 748.637 268.738 746.461 270.769C745.339 271.823 744.691 273.352 743.434 274.242C741.626 275.538 739.17 275.151 736.956 275.412C734.95 275.721 733.052 276.518 731.428 277.735C729.804 278.951 728.504 280.549 727.643 282.386C726.558 284.688 726.034 287.214 726.116 289.757C726.092 291.502 726.3 293.242 726.735 294.932C727.16 296.616 727.789 298.241 728.253 299.924C729.22 303.406 729.442 307.072 730.554 310.506C731.301 313.055 732.793 315.322 734.838 317.016L734.509 318.428C734.296 318.428 728.959 319.618 725.274 327.676C722.373 334.031 712.501 340.589 708.159 343.24C707.349 343.736 706.646 344.388 706.092 345.158C705.537 345.929 705.142 346.803 704.929 347.728C704.512 349.597 704.327 351.511 704.378 353.426C704.301 357.556 705.161 363.273 708.478 370.518C716.011 386.962 721.493 394.159 721.493 394.159C721.493 394.159 721.909 399.199 721.938 404.509C721.938 408.465 721.648 412.402 720.807 414.376C720.091 416.04 719.84 420.286 719.898 425.142C719.898 434.447 720.807 446.587 720.807 446.587C720.807 446.587 723.427 447.09 727.479 447.68L730.003 492.099C730.32 497.478 728.593 502.779 725.168 506.938C723.398 509.125 721.353 511.076 719.086 512.741C711.891 517.878 696.478 572.028 696.478 572.028C696.478 572.028 697.232 572.028 698.47 572.173L693.731 585.396C693.731 585.396 712.665 599.906 724.182 595.94C725.429 595.533 726.739 595.35 728.05 595.398C730.322 595.398 735.186 593.599 732.478 591.229C727.25 586.412 722.319 581.283 717.713 575.868C718.083 576.049 718.439 576.259 718.776 576.497V576.39L718.941 576.497C718.941 576.497 718.941 575.965 719.066 575.094L718.902 575.036C719.25 571.476 720.352 562.461 722.538 561.416C725.274 560.043 745.494 519.948 745.494 519.948L765.704 467.858C765.704 467.858 781.804 495.62 795.506 500.408V512.016C795.506 512.016 803.039 546.288 805.785 550.051C808.531 553.813 805.785 568.894 805.785 568.894C806.327 569.514 806.948 570.06 807.632 570.519L805.437 582.939C805.437 582.939 821.199 582.252 847.917 590.474C847.897 590.523 858.176 586.073 849.609 580.588ZM786.581 401.365L783.245 402.197L782.587 402.362C782.52 401.946 782.471 401.704 782.471 401.704C781.706 402.05 780.883 402.25 780.044 402.294C778.862 398.547 778.179 394.66 778.014 390.735C776.891 386.036 776.208 381.244 775.973 376.419C775.973 373.923 776.389 371.746 777.327 370.518L778.439 370.605L779.213 371.34L779.271 371.389L779.667 371.746L780.083 372.114L780.151 372.172L780.595 372.569L780.673 372.636L781.127 373.023L781.64 373.449L781.756 373.546L782.297 373.981L782.829 374.407L782.955 374.503L783.545 374.948L783.67 375.035L784.231 375.451L784.328 375.519L784.966 375.974L785.121 376.08L785.798 376.544H785.856L786.513 376.98L786.668 377.086L787.374 377.541L787.529 377.637L788.186 378.044L788.312 378.121L789.066 378.566L789.25 378.672L790.033 379.108H790.091L790.855 379.514L791.039 379.611L791.851 380.017L792.015 380.094L792.77 380.443L792.915 380.51L793.766 380.878L793.969 380.965L794.849 381.323C789.385 387.339 786.581 401.365 786.581 401.365Z" fill="url(#paint0_linear)"/>
<path d="M702.086 564.028L695.733 581.759C695.733 581.759 713.139 595.108 724.452 592.341C726.157 591.917 727.894 591.635 729.645 591.5C731.985 591.326 736.017 589.613 733.513 587.447C725.487 580.424 714.783 567.375 714.783 567.375L702.086 564.028Z" fill="#4F4D59"/>
<path d="M807.768 562.355L804.76 579.418C804.76 579.418 820.145 578.751 846.234 586.779C846.234 586.779 856.271 582.426 847.907 577.106C847.907 577.106 838.237 577.774 832.193 567.433C826.15 557.093 822.524 558.398 822.524 558.398L807.768 562.355Z" fill="#4F4D59"/>
<path d="M728.146 438.578L731.047 490.503C731.365 496.036 729.532 501.477 725.932 505.69C724.305 507.624 722.451 509.355 720.41 510.845C713.39 515.866 698.334 568.72 698.334 568.72C698.334 568.72 715.392 569.687 720.072 573.072C720.072 573.072 721.039 559.695 723.747 558.35C726.454 557.005 746.151 517.868 746.151 517.868L765.888 467.017C765.888 467.017 781.601 494.101 794.984 498.802V510.178C794.984 510.178 802.343 543.637 805.021 547.313C807.7 550.989 805.021 565.692 805.021 565.692C805.021 565.692 812.757 575.365 830.434 565.024C830.434 565.024 824.748 558.669 825.086 550.969C825.425 543.27 817.35 501.124 817.35 501.124C817.35 501.124 818.317 485.067 810.33 475.007C802.343 464.947 789.066 426.515 789.066 426.515L779.86 406.705L728.146 438.578Z" fill="#C48C96"/>
<g opacity="0.1">
<path opacity="0.1" d="M701.583 568.71C701.583 568.71 716.629 515.856 723.659 510.836C725.816 509.255 727.765 507.409 729.461 505.341C732.893 501.186 734.621 495.883 734.296 490.503L731.347 438.568L780.663 408.156L779.996 406.715L728.34 438.578L731.289 490.513C731.614 495.893 729.886 501.196 726.454 505.351C724.758 507.418 722.809 509.264 720.652 510.845C713.642 515.856 698.576 568.71 698.576 568.71C698.576 568.71 715.634 569.677 720.314 573.063C720.314 573.063 720.314 572.54 720.439 571.699C713.854 569.435 701.583 568.71 701.583 568.71Z" fill="black"/>
<path opacity="0.1" d="M808.27 565.701C808.27 565.701 810.949 550.979 808.27 547.323C805.592 543.666 798.233 510.188 798.233 510.188V498.793C784.86 494.111 769.136 467.007 769.136 467.007L767.976 470.044C772.511 477.241 784.608 495.098 795.235 498.812V510.188C795.235 510.188 802.594 543.647 805.273 547.323C807.951 550.998 805.273 565.701 805.273 565.701C805.273 565.701 809.005 570.403 817.244 569.764C811.084 569.252 808.27 565.701 808.27 565.701Z" fill="black"/>
</g>
<path d="M843.217 380.365L836.651 380.8L833.189 381.033V372.665L837.734 371.843L840.548 371.331C840.548 371.331 849.251 345.571 857.606 350.253C865.96 354.935 843.217 380.365 843.217 380.365Z" fill="#714B4F"/>
<path d="M737.874 311.406C737.874 311.406 733.523 328.131 732.188 338.49C730.854 348.85 763.286 340.502 763.286 340.502C763.286 340.502 750.909 325.451 757.939 317.422L737.874 311.406Z" fill="#714B4F"/>
<path d="M772.985 381.052L773.653 387.407L763.286 386.74L752.92 377.705L742.554 348.589L735.882 338.21L730.864 331.855L732.875 324.116C732.875 324.116 733.793 324.919 735.341 326.099C740.437 329.968 752.379 338.103 761.111 335.859C761.514 335.757 761.912 335.632 762.3 335.482L775.345 357.895L772.985 381.052Z" fill="#E6E6F0"/>
<path opacity="0.1" d="M735.534 322.152C735.534 322.152 730.187 323.12 726.502 331.187C723.679 337.359 714.125 343.762 709.861 346.345C709.047 346.842 708.341 347.497 707.785 348.271C707.229 349.045 706.833 349.923 706.621 350.853C705.761 354.664 705.432 361.773 710.112 371.998C717.471 388.055 722.818 395.078 722.818 395.078C722.818 395.078 724.153 411.135 722.151 415.817C720.149 420.499 722.151 446.258 722.151 446.258C722.151 446.258 757.262 452.952 768.972 446.258C780.682 439.564 779.009 413.805 779.009 413.805C779.009 413.805 790.043 437.224 794.056 437.891L791.716 424.842C791.716 424.842 778.671 410.787 778.004 392.727C778.004 392.727 773.991 376.331 777.337 371.988C777.337 371.988 833.857 376.67 837.202 372.656C837.202 372.656 800.08 370.982 794.394 361.948C794.394 361.948 778.004 348.899 777.337 340.202C777.239 338.57 776.727 336.989 775.849 335.61C774.971 334.23 773.756 333.098 772.318 332.319C770.043 331.024 767.433 330.442 764.824 330.645L757.272 331.168C757.272 331.168 770.316 354.248 769.649 357.285C768.982 360.322 770.316 384.718 770.316 384.718C770.316 384.718 755.222 352.265 748.579 348.589C741.935 344.913 734.19 329.785 734.19 329.785L735.524 322.143" fill="black"/>
<path opacity="0.1" d="M772.985 381.052L773.653 387.407L763.286 386.74L752.92 377.705L742.554 348.589L735.882 338.21L730.864 331.855L732.875 324.116C732.875 324.116 733.793 324.919 735.341 326.099L734.877 328.74C734.877 328.74 742.612 343.849 749.256 347.535C755.899 351.22 770.993 383.664 770.993 383.664C770.993 383.664 769.659 359.239 770.326 356.231C770.781 354.19 764.921 342.911 761.111 335.859C761.514 335.757 761.912 335.632 762.3 335.482L775.345 357.895L772.985 381.052Z" fill="black"/>
<path opacity="0.1" d="M836.651 380.801L833.189 381.033V372.665L837.734 371.843C836.148 373.942 836.206 377.657 836.651 380.801Z" fill="black"/>
<path d="M735.534 321.156C735.534 321.156 730.187 322.124 726.502 330.191C723.679 336.362 714.125 342.766 709.861 345.349C709.047 345.846 708.341 346.5 707.785 347.275C707.229 348.049 706.833 348.927 706.621 349.856C705.761 353.668 705.432 360.777 710.112 371.002C717.471 387.059 722.818 394.082 722.818 394.082C722.818 394.082 724.153 410.139 722.151 414.821C720.149 419.502 722.151 445.262 722.151 445.262C722.151 445.262 757.262 451.956 768.972 445.262C780.682 438.568 779.009 412.809 779.009 412.809C779.009 412.809 790.033 436.189 794.056 436.904L791.716 423.855C791.716 423.855 778.671 409.8 778.004 391.741C778.004 391.741 773.991 375.345 777.337 371.002C777.337 371.002 790.381 385.057 805.099 384.718C815.823 384.654 826.543 385.212 837.202 386.392C837.202 386.392 833.857 375.683 837.202 371.669C837.202 371.669 800.08 369.996 794.394 360.961C794.394 360.961 778.004 347.912 777.337 339.216C777.239 337.583 776.727 336.003 775.849 334.623C774.971 333.244 773.756 332.111 772.318 331.332C770.043 330.038 767.433 329.455 764.824 329.659L757.272 330.181C757.272 330.181 770.316 353.261 769.649 356.299C768.982 359.336 770.316 383.731 770.316 383.731C770.316 383.731 755.222 351.259 748.579 347.583C741.935 343.907 734.19 328.817 734.19 328.817L735.524 321.176" fill="#C48C96"/>
<path opacity="0.1" d="M728.146 356.279C728.146 356.279 736.172 383.364 740.852 386.72C745.533 390.077 773.962 407.131 782.326 403.116C782.326 403.116 784.338 413.157 781.359 415.498C781.359 415.498 750.174 414.279 749.923 414.163C749.923 414.163 729.519 411.483 726.174 401.452C722.828 391.421 718.815 374.368 718.815 374.368L728.146 356.279Z" fill="black"/>
<path d="M770.984 386.895C771.63 386.895 772.154 386.145 772.154 385.221C772.154 384.297 771.63 383.548 770.984 383.548C770.337 383.548 769.813 384.297 769.813 385.221C769.813 386.145 770.337 386.895 770.984 386.895Z" fill="#BA7855"/>
<path d="M774.32 398.599C774.966 398.599 775.49 397.85 775.49 396.926C775.49 396.001 774.966 395.252 774.32 395.252C773.674 395.252 773.15 396.001 773.15 396.926C773.15 397.85 773.674 398.599 774.32 398.599Z" fill="#BA7855"/>
<g opacity="0.1">
<path opacity="0.1" d="M724.501 444.894C724.501 444.894 722.489 419.135 724.501 414.453C726.512 409.771 725.168 393.714 725.168 393.714C725.168 393.714 719.821 386.691 712.462 370.634C707.772 360.41 708.11 353.3 708.971 349.489C709.183 348.559 709.578 347.681 710.135 346.907C710.691 346.133 711.397 345.478 712.21 344.981C716.475 342.369 726.019 335.995 728.852 329.823C730.931 325.296 733.532 323.004 735.408 321.862L735.534 321.127C735.534 321.127 730.187 322.095 726.502 330.162C723.679 336.333 714.125 342.737 709.861 345.32C709.047 345.816 708.341 346.471 707.785 347.246C707.229 348.02 706.833 348.898 706.621 349.827C705.761 353.638 705.432 360.748 710.112 370.973C717.471 387.03 722.818 394.053 722.818 394.053C722.818 394.053 724.153 410.11 722.151 414.792C720.149 419.473 722.151 445.233 722.151 445.233C722.151 445.233 747.235 450.011 762.068 447.448C747.089 449.238 724.501 444.894 724.501 444.894Z" fill="black"/>
<path opacity="0.1" d="M769.639 356.279C769.185 358.34 769.639 370.46 770.016 377.889C771.631 381.187 772.647 383.383 772.647 383.383C772.647 383.383 771.312 358.959 771.979 355.95C772.618 353.048 760.869 332.096 759.699 330.026L757.262 330.191C757.262 330.191 770.316 353.271 769.639 356.279Z" fill="black"/>
<path opacity="0.1" d="M807.439 384.38C792.721 384.718 779.677 370.663 779.677 370.663C779.286 371.208 779 371.822 778.835 372.472C782.703 376.07 793.34 384.979 805.099 384.708C815.823 384.644 826.543 385.203 837.202 386.382C837.202 386.382 837.135 386.159 837.028 385.782C827.199 384.766 817.32 384.297 807.439 384.38Z" fill="black"/>
<path opacity="0.1" d="M781.33 412.48C781.33 412.48 781.466 414.569 781.388 417.703C784.869 424.61 791.203 436.421 794.036 436.895L793.543 434.148C788.679 428.034 781.33 412.48 781.33 412.48Z" fill="black"/>
</g>
<path d="M790.71 409.104L783.603 410.603L777.994 411.783L781.001 403.416L783.1 402.894L786.359 402.081C786.359 402.081 791.039 378.663 800.409 380.336C809.779 382.01 790.71 409.104 790.71 409.104Z" fill="#714B4F"/>
<path opacity="0.1" d="M783.612 410.632L778.004 411.812L781.011 403.445L783.11 402.923C783.575 405.465 783.743 408.052 783.612 410.632Z" fill="black"/>
<path d="M728.146 355.612C728.146 355.612 736.172 382.696 740.852 386.053C745.533 389.41 773.962 406.463 782.326 402.449C782.326 402.449 784.338 412.49 781.359 414.83C781.359 414.83 750.174 413.612 749.923 413.496C749.923 413.496 729.519 410.816 726.174 400.785C722.828 390.754 718.815 373.7 718.815 373.7L728.146 355.612Z" fill="#C48C96"/>
<path opacity="0.1" d="M738.203 312.122C738.203 312.122 737.526 314.743 736.617 318.554C738.468 322.063 741.424 324.865 745.026 326.526C748.628 328.187 752.677 328.615 756.546 327.744C755.744 324.31 755.918 320.837 758.268 318.148L738.203 312.122Z" fill="black"/>
<path d="M752.253 327.511C762.229 327.511 770.316 319.422 770.316 309.442C770.316 299.463 762.229 291.373 752.253 291.373C742.277 291.373 734.19 299.463 734.19 309.442C734.19 319.422 742.277 327.511 752.253 327.511Z" fill="#714B4F"/>
<path opacity="0.1" d="M767.938 304.47C769.246 304.836 770.617 304.921 771.96 304.722C773.352 304.345 774.583 303.524 775.466 302.384C776.349 301.244 776.836 299.847 776.853 298.405C776.828 296.963 776.48 295.545 775.836 294.254C775.192 292.964 774.267 291.834 773.13 290.947C771.602 289.67 769.775 288.771 768.373 287.349C766.719 285.656 765.81 283.392 764.505 281.4C762.355 278.105 759.166 275.623 755.444 274.348C752.679 273.381 749.284 273.303 747.157 275.315C746.064 276.35 745.426 277.83 744.208 278.711C742.438 279.968 740.04 279.601 737.884 279.852C735.93 280.149 734.079 280.922 732.494 282.103C730.909 283.284 729.639 284.836 728.794 286.623C727.144 290.268 726.829 294.377 727.905 298.231C728.32 299.875 728.939 301.462 729.384 303.068C730.351 306.472 730.544 310.042 731.627 313.398C732.71 316.755 734.944 320.044 738.329 321.05C738.062 317.282 738.806 313.512 740.485 310.129C740.762 309.389 741.307 308.781 742.013 308.426C742.615 308.272 743.247 308.272 743.85 308.426C748.091 309.054 752.419 308.178 756.082 305.95C757.368 305.176 759.37 302.506 760.734 302.245C762.493 301.945 766.1 304.064 767.938 304.47Z" fill="black"/>
<path d="M767.938 303.803C769.246 304.168 770.617 304.254 771.96 304.054C773.352 303.677 774.583 302.857 775.466 301.717C776.349 300.577 776.836 299.18 776.853 297.738C776.828 296.295 776.48 294.877 775.836 293.587C775.192 292.296 774.267 291.166 773.13 290.28C771.602 289.003 769.775 288.103 768.373 286.681C766.719 284.988 765.81 282.725 764.505 280.732C762.355 277.437 759.166 274.955 755.444 273.681C752.679 272.713 749.284 272.636 747.157 274.648C746.064 275.683 745.426 277.163 744.208 278.043C742.438 279.301 740.04 278.933 737.884 279.185C735.93 279.482 734.079 280.255 732.494 281.435C730.909 282.616 729.639 284.168 728.794 285.956C727.144 289.6 726.829 293.71 727.905 297.564C728.32 299.208 728.939 300.794 729.384 302.4C730.351 305.805 730.544 309.374 731.627 312.731C732.71 316.087 734.944 319.376 738.329 320.382C738.07 316.616 738.821 312.849 740.504 309.471C740.781 308.731 741.327 308.123 742.032 307.769C742.635 307.614 743.267 307.614 743.869 307.769C748.111 308.396 752.438 307.52 756.102 305.292C757.388 304.518 759.389 301.849 760.753 301.588C762.493 301.278 766.1 303.396 767.938 303.803Z" fill="#503F43"/>
<path d="M948.134 244.168L933.398 409.288L867.159 427.667L801.105 409.288L786.387 244.168H948.134Z" fill="#E44D26"/>
<path d="M867.256 413.621L920.778 398.783L933.349 257.672H867.256V413.621Z" fill="#F16529"/>
<path d="M838.614 298.183H867.256V277.927H816.49L816.973 283.364L821.953 339.177H867.266V318.922H840.471L838.614 298.183ZM843.217 349.305H822.91L825.744 381.11L867.169 392.66H867.266V371.524H867.179L844.629 365.43L843.217 349.305Z" fill="#EBEBEB"/>
<path d="M801.443 199.285H811.732V209.451H821.141V199.285H831.43V230.084H821.141V219.773H811.732V230.084H801.443V199.285ZM844.958 209.5H835.897V199.285H864.307V209.5H855.246V230.084H844.967V209.5H844.958ZM868.823 199.285H879.556L886.161 210.109L892.755 199.285H903.489V230.084H893.239V214.82L886.161 225.77H885.987L878.899 214.82V230.084H868.823V199.285ZM908.604 199.285H918.893V219.898H933.398V230.074H908.633V199.285H908.604Z" fill="black"/>
<path d="M867.188 339.177H892.117L889.768 365.449L867.188 371.543V392.66L908.701 381.149L909.001 377.724L913.758 324.397L914.251 318.96H867.188V339.216V339.177ZM867.188 298.134V298.183H916.098L916.505 293.627L917.472 283.354L917.955 277.917H867.188V298.125V298.134Z" fill="white"/>
<path d="M354.621 366.068C352.735 360.545 350.018 353.493 347.852 351.888C347.721 351.783 347.579 351.696 347.426 351.626H347.156V344.807L342.069 345.619C341.253 343.155 340.635 340.628 340.222 338.065C340.713 338.555 341.337 338.89 342.017 339.025C342.696 339.161 343.401 339.093 344.042 338.829C343.955 338.694 343.887 338.548 343.81 338.403L344.042 338.307C343.241 336.893 342.818 335.298 342.814 333.673C342.856 332.191 343.094 330.721 343.52 329.301C344.429 326.157 345.966 323.217 346.827 320.063C347.377 318.027 347.637 315.923 347.601 313.814C347.627 310.241 346.812 306.712 345.222 303.513C344.827 302.591 344.209 301.783 343.423 301.162C342.708 300.765 341.972 300.407 341.218 300.088C339.958 299.238 338.871 298.155 338.018 296.896C334.406 292.497 329.57 289.268 324.122 287.62C322.704 287.093 321.167 286.972 319.684 287.271C316.27 288.239 315.023 292.427 312.257 294.642C309.811 296.577 306.456 296.799 303.4 297.457C300.263 297.991 297.375 299.505 295.152 301.781C293.705 303.435 292.917 305.562 292.937 307.759C292.854 308.784 293.035 309.813 293.463 310.748C293.892 311.683 294.553 312.492 295.384 313.099C296.329 313.72 297.4 314.125 298.52 314.284C299.64 314.443 300.782 314.352 301.862 314.017C301.018 316.935 300.785 319.996 301.179 323.007C301.573 326.019 302.585 328.917 304.151 331.519C305.717 334.121 307.804 336.371 310.281 338.129C312.757 339.886 315.57 341.112 318.543 341.731L319.142 342.795C320.971 346.207 322.359 349.838 323.271 353.6C318.591 356.26 313.476 358.746 310.391 358.978C310.269 360.184 310.046 361.378 309.724 362.547C309.003 365.483 307.617 368.214 305.672 370.528C301.476 375.248 282.59 410.942 282.59 410.942C282.59 410.942 281.991 412.364 281.024 414.811C269.294 416.252 250.158 418.332 244.81 417.258L223.827 397.312C223.827 397.312 217.058 402.488 217.638 408.775L213.857 405.177C213.857 405.177 193.918 420.392 225.403 430.327L273.307 435.889C268.743 449.663 264.489 465.692 265.804 474.417H266.2C267.116 474.415 268.031 474.344 268.937 474.204L268.85 475.752L264.237 558.389C264.237 558.389 263.183 573.604 277.349 580.434C277.349 580.434 294.668 631.343 287.841 637.118C287.841 637.118 288.653 637.544 290.017 638.143L275.773 650.718C275.773 650.718 265.281 653.34 259.509 652.817C258.494 652.679 257.464 652.919 256.615 653.492C255.766 654.064 255.158 654.93 254.906 655.922C254.906 656.029 254.906 656.135 254.848 656.251V656.387C254.848 656.493 254.848 656.609 254.848 656.725C254.848 656.841 254.848 656.812 254.848 656.851C254.848 656.89 254.848 657.044 254.848 657.141V657.267C254.848 657.383 254.848 657.49 254.915 657.606V657.731C254.948 657.854 254.986 657.973 255.031 658.089V658.205C255.08 658.321 255.138 658.437 255.196 658.554V658.631C255.264 658.747 255.331 658.863 255.409 658.979L255.476 659.076C255.56 659.198 255.654 659.321 255.757 659.443L255.834 659.54C255.94 659.666 256.056 659.782 256.182 659.908H256.24L256.627 660.237L256.714 660.304L257.188 660.643L257.304 660.72L257.855 661.04H257.942L258.532 661.33H258.619L259.306 661.61L259.451 661.668L260.214 661.92H260.34L261.162 662.133H261.23L262.197 662.316H262.381L263.347 662.461H263.531L264.643 662.568C266.8 662.732 269.71 662.79 273.075 662.781C273.075 662.781 273.075 662.868 273.075 662.906C273.075 662.945 273.075 663.1 273.075 663.197V663.322C273.075 663.438 273.075 663.545 273.143 663.661V663.787C273.175 663.909 273.214 664.028 273.259 664.145V664.261C273.307 664.377 273.365 664.493 273.423 664.609V664.686C273.491 664.802 273.559 664.918 273.636 665.035L273.704 665.131C273.788 665.254 273.881 665.376 273.984 665.499L274.062 665.596C274.168 665.721 274.284 665.837 274.41 665.963H274.458L274.845 666.292L274.932 666.36L275.406 666.698L275.522 666.776L276.063 667.095H276.15L276.74 667.385H276.827L277.514 667.666L277.659 667.724L278.423 667.975H278.548L279.37 668.188H279.438L280.405 668.372H280.589L281.556 668.517H281.739L282.852 668.623C296.496 669.678 340.039 666.524 340.039 666.524V666.398V666.244C340.474 664.212 342.563 652.401 335.136 643.667C335.359 643.434 335.571 643.193 335.774 642.941C335.774 642.941 329.972 632.968 333.154 629.824C336.335 626.681 317.789 572.579 317.789 572.579C317.789 572.579 307.819 556.831 313.592 538.984C319.365 521.138 313.07 501.724 313.07 501.724C313.07 501.724 326.849 497.642 327.101 480.685C327.101 480.172 327.101 479.64 327.101 479.108C327.389 479.15 327.68 479.17 327.971 479.166C328.164 479.18 328.358 479.18 328.551 479.166C328.551 479.166 325.93 469.715 329.073 462.896C332.216 456.076 339.043 462.374 345.338 434.554C349.892 414.424 353.896 391.276 355.772 380.007C356.542 375.337 356.147 370.549 354.621 366.068ZM234.889 425.074L230.103 420.528C231.689 421.186 233.448 421.824 235.411 422.462L253.446 424.581C245.4 425.306 237.887 425.713 234.889 425.103V425.074Z" fill="url(#paint1_linear)"/>
<path d="M280.56 422.424C280.56 422.424 243.447 427.579 235.711 426.032L215.095 406.434C215.095 406.434 195.504 421.389 226.438 431.188L284.167 437.891L280.56 422.424Z" fill="#FDC2CC"/>
<path opacity="0.05" d="M280.56 422.424C280.56 422.424 243.447 427.579 235.711 426.032L215.095 406.434C215.095 406.434 195.504 421.389 226.438 431.188L284.167 437.891L280.56 422.424Z" fill="black"/>
<path d="M207.911 435.434L127.709 413.186L109.839 212.663H306.224L288.334 413.157L207.911 435.434Z" fill="#264DE4"/>
<path d="M273.017 400.398L288.305 229.068H208.046V418.38L273.017 400.398Z" fill="#2965F1"/>
<path d="M150.859 303.406L153.063 327.995H208.085V303.406H150.859ZM146.43 253.628L148.664 278.217H208.075V253.628H146.382H146.43ZM208.075 367.277H207.969L180.584 359.878L178.833 340.26H154.108L157.55 378.875L207.911 392.892H208.027L208.075 367.277Z" fill="#EBEBEB"/>
<path d="M156.061 158.145H185.834V170.604H168.506V183.063H185.834V195.522H156.061V158.145ZM191.839 158.145H221.613V168.979H204.246V171.146H221.574V196.064H191.791V184.688H209.119V182.521H191.791V158.145H191.839ZM227.618 158.145H257.391V168.979H239.976V171.146H257.304V196.064H227.521V184.688H244.849V182.521H227.521V158.145H227.618Z" fill="black"/>
<path d="M265.098 303.406L269.536 253.628H207.911V278.217H242.557L240.324 303.367H207.911V327.956H238.187L235.286 359.877L207.911 367.297V392.882L258.31 378.904L258.677 374.745L264.479 309.993L265.078 303.387L265.098 303.406Z" fill="white"/>
<path d="M293.972 631.769L275.928 647.749C275.928 647.749 265.62 650.331 259.954 649.809C254.287 649.287 251.705 658.573 265.108 659.608C278.51 660.643 321.289 657.548 321.289 657.548C321.289 657.548 325.408 641.045 313.041 631.769H293.972Z" fill="#47465A"/>
<path opacity="0.05" d="M293.972 631.769L275.928 647.749C275.928 647.749 265.62 650.331 259.954 649.809C254.287 649.287 251.705 658.573 265.108 659.608C278.51 660.643 321.289 657.548 321.289 657.548C321.289 657.548 325.408 641.045 313.041 631.769H293.972Z" fill="black"/>
<path opacity="0.3" d="M321.927 650.418C321.897 652.299 321.68 654.172 321.279 656.01C321.279 656.01 278.5 659.105 265.098 658.07C258.648 657.577 255.912 655.168 255.428 652.866C254.838 655.516 257.178 659.008 265.098 659.637C278.5 660.672 321.279 657.577 321.279 657.577C321.783 655.225 322.001 652.822 321.927 650.418Z" fill="white"/>
<path d="M315.091 339.458C315.091 339.458 326.433 355.438 322.304 366.271C318.175 377.105 343.955 354.925 343.955 354.925C343.955 354.925 335.707 340.425 339.836 324.948L315.091 339.458Z" fill="#FDC2CC"/>
<path d="M311.996 637.959L293.972 653.939C293.972 653.939 283.664 656.522 277.997 656C272.331 655.477 269.749 664.764 283.151 665.799C296.554 666.834 339.333 663.738 339.333 663.738C339.333 663.738 343.452 647.236 331.085 637.959H311.996Z" fill="#47465A"/>
<path d="M317.179 634.351C314.491 637.669 310.701 638.946 306.736 639.14C297.724 639.565 287.803 634.351 287.803 634.351C294.504 628.683 277.495 578.663 277.495 578.663C263.58 571.96 264.605 557.005 264.605 557.005L269.111 475.848L270.252 455.457L284.689 446.693L296.061 455.399L306.852 463.679C307.555 466.314 308.008 469.008 308.206 471.727C309.463 490.677 294.484 495.136 294.484 495.136C294.484 495.136 300.673 514.212 294.997 531.749C289.321 549.286 299.116 564.754 299.116 564.754C299.116 564.754 317.673 618.381 314.588 621.477C311.503 624.572 317.179 634.351 317.179 634.351Z" fill="#565171"/>
<path opacity="0.05" d="M317.179 634.351C314.491 637.669 310.701 638.946 306.736 639.14C297.724 639.565 287.803 634.351 287.803 634.351C294.504 628.683 277.495 578.663 277.495 578.663C263.58 571.96 264.605 557.005 264.605 557.005L269.111 475.848L270.252 455.457L284.689 446.693L296.061 455.399L306.852 463.679C307.555 466.314 308.008 469.008 308.206 471.727C309.463 490.677 294.484 495.136 294.484 495.136C294.484 495.136 300.673 514.212 294.997 531.749C289.321 549.286 299.116 564.754 299.116 564.754C299.116 564.754 317.673 618.381 314.588 621.477C311.503 624.572 317.179 634.351 317.179 634.351Z" fill="black"/>
<path d="M335.194 640.533C326.433 651.357 305.817 640.533 305.817 640.533C306.232 640.15 306.542 639.667 306.717 639.13C310.497 628.847 293.962 579.689 293.962 579.689C280.047 572.985 278.49 557.005 278.49 557.005L274.845 474.378L274.371 463.679L296.06 455.399L302.723 452.855L324.915 469.87C325.868 473.395 326.337 477.033 326.308 480.685C326.027 497.332 312.518 501.356 312.518 501.356C312.518 501.356 318.707 520.431 313.031 537.969C307.355 555.506 317.179 570.925 317.179 570.925C317.179 570.925 335.736 624.553 332.651 627.648C329.566 630.743 335.194 640.533 335.194 640.533Z" fill="#565171"/>
<path opacity="0.1" d="M326.308 480.685C321.85 480.046 312.828 474.678 308.196 471.766C306.427 470.654 305.295 469.909 305.295 469.909C305.295 469.909 300.654 457.015 288.286 466.813C284.263 470.082 279.719 472.653 274.845 474.417C272.983 475.076 271.063 475.559 269.111 475.858L270.252 455.467L284.689 446.703L296.061 455.409L302.723 452.865L324.915 469.87C325.868 473.395 326.337 477.033 326.308 480.685Z" fill="black"/>
<path d="M354.205 381.739C352.368 392.805 348.403 415.595 343.955 435.318C337.766 462.644 331.065 456.454 327.981 463.157C324.896 469.861 327.468 479.137 327.468 479.137C322.314 479.65 305.305 468.313 305.305 468.313C305.305 468.313 300.663 455.419 288.296 465.218C275.928 475.016 266.132 474.494 266.132 474.494C263.551 457.479 282.629 412.103 282.629 412.103C282.629 412.103 301.186 377.038 305.305 372.443C307.216 370.172 308.579 367.491 309.289 364.608C309.605 363.461 309.825 362.29 309.946 361.106C316.648 360.593 333.154 349.247 333.154 349.247L346.044 347.187V353.89C346.196 353.958 346.339 354.046 346.469 354.151C348.587 355.767 351.304 362.654 353.112 368.08C354.593 372.474 354.968 377.165 354.205 381.739Z" fill="#E1A0A7"/>
<path d="M293.972 430.162L287.309 429.388L236.243 423.459C205.3 413.66 224.9 398.705 224.9 398.705L245.516 418.303C251.463 419.493 274.797 416.717 285.25 415.401C288.383 414.995 290.365 414.724 290.365 414.724L293.972 430.162Z" fill="#FDC2CC"/>
<path opacity="0.1" d="M343.955 360.555C343.955 360.555 330.553 349.731 310.411 384.786C290.268 419.841 285.666 414.173 285.666 414.173C285.666 414.173 289.785 429.65 287.725 432.735C287.725 432.735 301.64 431.7 306.794 432.735C311.948 433.77 343.907 393.55 343.907 393.55C343.907 393.55 360.452 370.866 343.955 360.555Z" fill="black"/>
<path opacity="0.1" d="M343.443 358.494C343.443 358.494 330.04 347.67 309.937 382.725C289.833 417.781 285.192 412.112 285.192 412.112C285.192 412.112 301.166 429.64 306.32 430.675C311.474 431.71 343.433 391.489 343.433 391.489C343.433 391.489 359.939 368.806 343.443 358.494Z" fill="black"/>
<path opacity="0.1" d="M287.3 429.417C287.512 425.597 286.072 418.883 285.24 415.401C288.373 414.995 290.355 414.724 290.355 414.724L293.962 430.201L287.3 429.417Z" fill="black"/>
<path d="M343.955 359.52C343.955 359.52 330.553 348.695 310.411 383.76C290.268 418.825 285.666 413.147 285.666 413.147C285.666 413.147 289.785 428.624 287.725 431.71C287.725 431.71 301.64 430.675 306.794 431.71C311.948 432.745 343.907 392.524 343.907 392.524C343.907 392.524 360.452 369.831 343.955 359.52Z" fill="#E1A0A7"/>
<path opacity="0.1" d="M340.387 326.002L315.603 340.425C316.652 341.947 317.62 343.522 318.504 345.145C319.93 345.435 321.381 345.581 322.836 345.581C329.441 345.581 332.506 338.645 336.5 333.973C336.21 330.259 339.246 330.162 340.387 326.002Z" fill="black"/>
<path d="M322.304 344.575C334.262 344.575 343.955 334.878 343.955 322.917C343.955 310.955 334.262 301.259 322.304 301.259C310.347 301.259 300.654 310.955 300.654 322.917C300.654 334.878 310.347 344.575 322.304 344.575Z" fill="#FDC2CC"/>
<path opacity="0.1" d="M294.939 305.399C297.122 303.159 299.959 301.669 303.042 301.143C306.049 300.495 309.347 300.301 311.745 298.376C314.462 296.2 315.681 292.06 319.036 291.131C320.494 290.839 322.004 290.96 323.397 291.479C328.75 293.098 333.502 296.269 337.051 300.591C337.891 301.831 338.961 302.899 340.203 303.735C340.943 304.048 341.666 304.4 342.369 304.789C343.139 305.401 343.744 306.196 344.129 307.101C346.545 311.983 347.102 317.577 345.696 322.839C344.854 325.944 343.346 328.827 342.447 331.922C341.547 335.018 341.325 338.519 342.959 341.286C341.373 342.098 339.372 341.073 338.376 339.593C337.38 338.113 337.08 336.295 336.558 334.582C335.531 331.222 333.597 328.209 330.969 325.877C329.344 324.445 326.443 323.478 325.312 325.325C324.877 326.041 324.906 326.96 324.528 327.705C323.794 329.166 321.628 329.456 320.245 328.672C318.883 327.732 317.926 326.312 317.566 324.697C315.448 317.509 311.822 312.992 304.144 316.059C301.244 317.2 297.907 317.993 295.152 316.059C291.622 313.466 292.328 308.33 294.939 305.399Z" fill="black"/>
<path d="M294.939 304.876C297.122 302.636 299.959 301.146 303.042 300.62C306.049 299.972 309.347 299.779 311.745 297.854C314.462 295.677 315.681 291.537 319.036 290.609C320.494 290.317 322.004 290.437 323.397 290.957C328.75 292.575 333.502 295.746 337.051 300.069C337.891 301.309 338.961 302.376 340.203 303.213C340.943 303.526 341.666 303.878 342.369 304.267C343.139 304.879 343.744 305.674 344.129 306.579C346.545 311.46 347.102 317.055 345.696 322.317C344.854 325.422 343.346 328.305 342.447 331.4C341.547 334.495 341.325 337.997 342.959 340.763C341.373 341.576 339.372 340.551 338.376 339.071C337.38 337.591 337.08 335.772 336.558 334.06C335.531 330.699 333.597 327.687 330.969 325.354C329.344 323.923 326.443 322.955 325.312 324.803C324.877 325.519 324.906 326.438 324.528 327.182C323.794 328.643 321.628 328.933 320.245 328.15C318.883 327.21 317.926 325.79 317.566 324.174C315.448 316.987 311.822 312.47 304.144 315.536C301.244 316.677 297.907 317.471 295.152 315.536C291.622 312.953 292.328 307.817 294.939 304.876Z" fill="#8F5A6A"/>
<path opacity="0.05" d="M346.44 354.112H335.968C335.968 354.112 315.352 364.424 314.839 363.911C314.491 363.563 311.3 364.163 309.279 364.579C309.596 363.432 309.816 362.261 309.937 361.077C316.638 360.564 333.144 349.218 333.144 349.218L346.034 347.157V353.861C346.179 353.928 346.316 354.012 346.44 354.112Z" fill="black"/>
<path opacity="0.3" d="M339.962 656.599C339.931 658.48 339.714 660.353 339.314 662.191C339.314 662.191 296.534 665.286 283.132 664.251C276.682 663.758 273.946 661.349 273.462 659.047C272.872 661.697 275.212 665.189 283.132 665.818C296.534 666.853 339.314 663.758 339.314 663.758C339.818 661.406 340.035 659.003 339.962 656.599Z" fill="white"/>
<g opacity="0.05">
<path opacity="0.05" d="M283.393 464.705C276.441 470.218 270.291 472.443 266.249 473.411C266.249 473.798 266.326 474.175 266.384 474.542C266.384 474.542 276.179 475.055 288.547 465.266C290.463 463.623 292.729 462.439 295.171 461.803C292.473 460.478 288.624 460.565 283.393 464.705Z" fill="black"/>
<path opacity="0.05" d="M353.344 368.032C351.497 362.605 348.819 355.728 346.701 354.103C346.571 353.998 346.428 353.91 346.276 353.842C346.276 353.842 342.011 353.987 342.156 354.103C344.274 355.718 346.344 362.093 348.19 367.51C349.687 371.913 350.072 376.618 349.312 381.207C347.475 392.273 343.51 415.063 339.062 434.786C332.873 462.112 326.172 455.922 323.088 462.625C320.554 468.119 321.821 475.336 322.372 477.763C324.039 478.598 325.866 479.063 327.729 479.127C327.729 479.127 325.147 469.851 328.242 463.147C331.336 456.444 338.037 462.635 344.216 435.308C348.693 415.537 352.629 392.747 354.466 381.729C355.226 377.141 354.841 372.435 353.344 368.032Z" fill="black"/>
</g>
<path d="M413.249 464.347C415.021 462.902 416.313 460.952 416.953 458.756C417.436 456.531 416.488 453.871 414.361 453.058C411.982 452.149 409.439 453.794 407.515 455.467C405.591 457.14 403.376 459.036 400.852 458.678C402.149 457.502 403.12 456.01 403.669 454.347C404.218 452.684 404.327 450.907 403.985 449.189C403.876 448.477 403.575 447.808 403.115 447.255C401.79 445.842 399.402 446.452 397.816 447.564C392.788 451.104 391.386 457.934 391.357 464.086C390.854 461.871 391.279 459.559 391.26 457.315C391.24 455.07 390.622 452.478 388.707 451.298C387.52 450.66 386.186 450.343 384.839 450.379C382.576 450.292 380.062 450.524 378.515 452.178C376.581 454.229 377.094 457.682 378.766 459.917C380.439 462.151 382.973 463.592 385.313 465.159C387.188 466.275 388.788 467.799 389.993 469.619C390.135 469.871 390.251 470.137 390.341 470.412H404.507C407.681 468.794 410.622 466.754 413.249 464.347Z" fill="#CD2BF3"/>
<path d="M439.27 645.978C441.523 643.879 443.641 641.403 444.299 638.395C444.956 635.386 443.67 631.769 440.789 630.656C437.569 629.418 434.116 631.624 431.506 633.916C428.895 636.209 425.897 638.753 422.484 638.269C424.242 636.674 425.557 634.651 426.301 632.396C427.045 630.141 427.192 627.732 426.729 625.404C426.579 624.443 426.171 623.54 425.549 622.792C423.76 620.857 420.511 621.699 418.374 623.208C411.605 628.045 409.671 637.263 409.623 645.601C408.936 642.593 409.516 639.459 409.497 636.373C409.478 633.287 408.636 629.873 406.035 628.209C404.415 627.338 402.594 626.911 400.756 626.971C397.69 626.855 394.277 627.164 392.188 629.408C389.587 632.194 390.254 636.866 392.527 639.933C394.799 642.999 398.232 644.924 401.394 647.043C403.932 648.556 406.097 650.623 407.727 653.088C407.921 653.433 408.079 653.796 408.201 654.172H427.415C431.718 651.987 435.706 649.232 439.27 645.978Z" fill="#CD2BF3"/>
</g>
<defs>
<linearGradient id="paint0_linear" x1="777.588" y1="596.617" x2="777.588" y2="269.134" gradientUnits="userSpaceOnUse">
<stop stop-color="#808080" stop-opacity="0.25"/>
<stop offset="0.54" stop-color="#808080" stop-opacity="0.12"/>
<stop offset="1" stop-color="#808080" stop-opacity="0.1"/>
</linearGradient>
<linearGradient id="paint1_linear" x1="56131.3" y1="296913" x2="56131.3" y2="146050" gradientUnits="userSpaceOnUse">
<stop stop-color="#808080" stop-opacity="0.25"/>
<stop offset="0.54" stop-color="#808080" stop-opacity="0.12"/>
<stop offset="1" stop-color="#808080" stop-opacity="0.1"/>
</linearGradient>
<clipPath id="clip0">
<rect width="996" height="706" fill="white"/>
</clipPath>
</defs>
</svg>
