<svg width="496" height="404" viewBox="0 0 496 404" fill="none" xmlns="http://www.w3.org/2000/svg">
<path d="M310.166 0.0650024H108.881C103.963 0.0650024 99.9753 4.11683 99.9753 9.115V158.44C99.9753 163.438 103.963 167.49 108.881 167.49H310.166C315.085 167.49 319.072 163.438 319.072 158.44V9.115C319.072 4.11683 315.085 0.0650024 310.166 0.0650024Z" fill="#F2F6FB"/>
<path d="M99.9753 9.11778C99.9753 4.11807 103.961 0.0650024 108.879 0.0650024H310.602C315.519 0.0650024 319.505 4.11596 319.505 9.11778V19.0025H99.9753V9.11778Z" fill="#E1E5F0"/>
<path d="M112.749 13.8377C115.021 13.8377 116.862 12.0071 116.862 9.74894C116.862 7.49077 115.021 5.66016 112.749 5.66016C110.477 5.66016 108.635 7.49077 108.635 9.74894C108.635 12.0071 110.477 13.8377 112.749 13.8377Z" fill="#FF5645"/>
<path d="M126.172 13.8377C128.444 13.8377 130.285 12.0071 130.285 9.74894C130.285 7.49077 128.444 5.66016 126.172 5.66016C123.9 5.66016 122.058 7.49077 122.058 9.74894C122.058 12.0071 123.9 13.8377 126.172 13.8377Z" fill="#FFCB3D"/>
<path d="M140.028 13.8377C142.299 13.8377 144.141 12.0071 144.141 9.74894C144.141 7.49077 142.299 5.66016 140.028 5.66016C137.756 5.66016 135.914 7.49077 135.914 9.74894C135.914 12.0071 137.756 13.8377 140.028 13.8377Z" fill="#3ABF7C"/>
<path d="M110.825 31.7841H117.011C117.503 31.7841 117.901 32.1892 117.901 32.6891V34.8439C117.901 35.3438 117.503 35.7489 117.011 35.7489H110.825C110.333 35.7489 109.934 35.3438 109.934 34.8439V32.6891C109.934 32.1892 110.333 31.7841 110.825 31.7841ZM280.127 31.7841H308.223C308.715 31.7841 309.113 32.1892 309.113 32.6891V34.8439C309.113 35.3438 308.715 35.7489 308.223 35.7489H280.127C279.635 35.7489 279.237 35.3438 279.237 34.8439V32.6891C279.237 32.1892 279.635 31.7841 280.127 31.7841ZM226.349 31.7841H254.444C254.936 31.7841 255.335 32.1892 255.335 32.6891V34.8439C255.335 35.3438 254.936 35.7489 254.444 35.7489H226.349C225.857 35.7489 225.458 35.3438 225.458 34.8439V32.6891C225.458 32.1892 225.857 31.7841 226.349 31.7841ZM260.209 31.7841H274.362C274.854 31.7841 275.253 32.1892 275.253 32.6891V34.8439C275.253 35.3438 274.854 35.7489 274.362 35.7489H260.209C259.717 35.7489 259.319 35.3438 259.319 34.8439V32.6891C259.319 32.1892 259.717 31.7841 260.209 31.7841Z" fill="#D8DEED"/>
<path d="M120.784 60.5294H178.756C179.248 60.5294 179.647 60.9346 179.647 61.4344V67.5542C179.647 68.054 179.248 68.4592 178.756 68.4592H120.784C120.292 68.4592 119.893 68.054 119.893 67.5542V61.4344C119.893 60.9346 120.292 60.5294 120.784 60.5294ZM120.784 73.4153H168.798C169.289 73.4153 169.688 73.8205 169.688 74.3203V80.44C169.688 80.9399 169.289 81.345 168.798 81.345H120.784C120.292 81.345 119.893 80.9399 119.893 80.44V74.3203C119.893 73.8205 120.292 73.4153 120.784 73.4153ZM120.784 99.187H148.88C149.371 99.187 149.77 99.5922 149.77 100.092V106.212C149.77 106.712 149.371 107.117 148.88 107.117H120.784C120.292 107.117 119.893 106.712 119.893 106.212V100.092C119.893 99.5922 120.292 99.187 120.784 99.187ZM120.784 86.3011H178.756C179.248 86.3011 179.647 86.7063 179.647 87.2061V93.3259C179.647 93.8257 179.248 94.2309 178.756 94.2309H120.784C120.292 94.2309 119.893 93.8257 119.893 93.3259V87.2061C119.893 86.7063 120.292 86.3011 120.784 86.3011Z" fill="#E1E5F0"/>
<path d="M181.949 123.968H235.107C237.742 123.968 238.879 124.283 239.967 124.874C241.056 125.466 241.91 126.334 242.492 127.44C243.074 128.546 243.384 129.701 243.384 132.379V135.38C243.384 138.058 243.074 139.214 242.492 140.32C241.91 141.426 241.056 142.294 239.967 142.885C238.879 143.477 237.742 143.792 235.107 143.792H181.949C179.314 143.792 178.177 143.477 177.089 142.885C176 142.294 175.146 141.426 174.564 140.32C173.982 139.214 173.672 138.058 173.672 135.38V132.379C173.672 129.701 173.982 128.546 174.564 127.44C175.146 126.334 176 125.466 177.089 124.874C178.177 124.283 179.314 123.968 181.949 123.968Z" fill="#3ABF7C"/>
<path d="M281.835 79.9333V90.3407C281.835 93.4007 279.941 96.1303 277.105 97.1592C270.455 99.5719 263.804 100.778 257.154 100.778C250.503 100.778 243.853 99.5719 237.202 97.1592C234.366 96.1303 232.473 93.4007 232.473 90.3407V80.5718L212.619 73.4505C211.835 73.1695 211.225 72.5341 210.968 71.7313C210.511 70.3056 211.277 68.7734 212.68 68.3089L252.369 55.1692C255.765 54.0449 259.433 54.1053 262.792 55.3406L298.12 68.3362C298.842 68.602 299.417 69.1709 299.698 69.8978C300.237 71.2938 299.56 72.8692 298.186 73.4167L281.835 79.9333Z" fill="#474BFF"/>
<path opacity="0.176986" d="M281.834 79.9333V90.3407C281.835 93.4007 279.941 96.1303 277.105 97.1592C270.455 99.5718 263.804 100.778 257.154 100.778C250.503 100.778 243.853 99.5718 237.202 97.1592C234.366 96.1303 232.473 93.4007 232.473 90.3407V80.5718L251.979 87.5684C255.611 88.871 259.583 88.8015 263.168 87.3726L281.834 79.9333Z" fill="#444444"/>
<path d="M288.979 89.3552V77.7016L256.912 70.408C256.329 70.2754 255.965 69.6983 256.098 69.1191C256.232 68.5398 256.812 68.1776 257.395 68.3102L290.303 75.7951C290.795 75.907 291.144 76.3422 291.144 76.844V89.3552C292.283 89.7884 293.092 90.8854 293.092 92.1702C293.092 93.2775 292.491 94.2454 291.596 94.7689C291.674 94.9095 291.733 95.0337 291.773 95.1416C293.662 100.247 296.061 105.661 290.582 105.938C287.434 106.097 286.925 102.455 289.055 95.0128C287.876 94.6002 287.03 93.4833 287.03 92.1702C287.03 90.8854 287.84 89.7884 288.979 89.3552Z" fill="#474961"/>
<path d="M335.981 7.30282C335.981 4.80492 337.976 2.77997 340.434 2.77997H380.332L396.541 19.2278V71.1077C396.541 73.6067 394.544 75.6325 392.088 75.6325H340.434C337.975 75.6325 335.981 73.6079 335.981 71.1096V7.30282Z" fill="#F2F6FB"/>
<path d="M377.998 43.0407L357.807 53.3636C357.653 53.4422 357.466 53.3793 357.389 53.223C357.367 53.1788 357.355 53.1301 357.355 53.0806V32.4349C357.355 32.26 357.495 32.1182 357.667 32.1182C357.716 32.1182 357.764 32.1297 357.807 32.152L377.998 42.4748C378.152 42.5534 378.214 42.7439 378.136 42.9001C378.106 42.9609 378.058 43.0102 377.998 43.0407Z" fill="#D8DEED"/>
<path d="M380.332 2.77997L396.541 19.2278L381.333 22.0118C378.912 22.4551 377.285 20.8202 377.701 18.3557L380.332 2.77997Z" fill="#D8DEED"/>
<path d="M335.981 96.8979C335.981 94.4 337.976 92.375 340.434 92.375H380.332L396.541 108.823V160.703C396.541 163.202 394.544 165.227 392.088 165.227H340.434C337.975 165.227 335.981 163.203 335.981 160.705V96.8979Z" fill="#F2F6FB"/>
<path d="M380.332 92.375L396.541 108.823L381.333 111.607C378.912 112.05 377.285 110.415 377.701 107.951L380.332 92.375Z" fill="#D8DEED"/>
<path d="M349.785 142.379V123.168C349.785 122.778 349.951 122.406 350.239 122.149C352.511 120.117 355.286 119.265 358.563 119.593C362.062 119.944 364.381 121.748 365.521 125.005V146.005C365.521 146.255 365.322 146.457 365.076 146.457C364.937 146.457 364.806 146.391 364.722 146.279C363.149 144.183 361.368 142.871 359.376 142.345C357.409 141.825 354.831 142.253 351.643 143.628C350.964 143.921 350.18 143.599 349.892 142.909C349.822 142.741 349.785 142.561 349.785 142.379ZM382.928 142.379C382.928 142.561 382.892 142.741 382.821 142.909C382.533 143.599 381.749 143.921 381.07 143.628C377.882 142.253 375.304 141.825 373.337 142.345C371.346 142.871 369.564 144.183 367.991 146.279C367.907 146.391 367.776 146.457 367.637 146.457C367.391 146.457 367.192 146.255 367.192 146.005V125.005C368.332 121.748 370.651 119.944 374.15 119.593C377.427 119.265 380.202 120.117 382.474 122.149C382.763 122.406 382.928 122.778 382.928 123.168V142.379Z" fill="#D8DEED"/>
<path d="M87.5115 320.435H409.192L432.013 224.142C436.242 206.299 453.224 194.729 471.073 197.529C471.878 197.655 472.679 197.815 473.471 198.009C489.257 201.873 498.971 218.008 495.17 234.049L469.463 342.518C465.234 360.361 448.252 371.931 430.403 369.131C429.597 369.005 428.797 368.845 428.004 368.651C418.399 366.3 411.041 359.405 407.609 350.753H89.0942C85.662 359.405 78.3044 366.3 68.699 368.651C67.9064 368.845 67.1061 369.005 66.3004 369.131C48.4512 371.931 31.4696 360.361 27.2409 342.518L1.5338 234.049C-2.26783 218.008 7.44683 201.873 23.2321 198.009C24.0247 197.815 24.825 197.655 25.6307 197.529C43.4799 194.729 60.4615 206.299 64.6902 224.142L87.5115 320.435Z" fill="#CD2BF3" fill-opacity="0.38"/>
<mask id="mask0" mask-type="alpha" maskUnits="userSpaceOnUse" x="67" y="197" width="362" height="124">
<path d="M112.444 197.355H384.073C408.666 197.355 428.602 217.614 428.602 242.605V320.435H67.9142V242.605C67.9142 217.614 87.8507 197.355 112.444 197.355Z" fill="white"/>
</mask>
<g mask="url(#mask0)">
<path d="M112.444 197.355H384.073C408.666 197.355 428.602 217.614 428.602 242.605V320.435H67.9142V242.605C67.9142 217.614 87.8507 197.355 112.444 197.355Z" fill="#F2F6FB"/>
</g>
<path d="M57.0038 375.64L44.7259 397.25C42.82 400.605 38.5987 401.754 35.2975 399.817C31.9963 397.881 30.8652 393.591 32.7712 390.236L42.5631 373.002C39.6989 370.724 37.858 367.179 37.858 363.196C37.858 356.324 43.3405 350.753 50.1035 350.753H445.525C452.288 350.753 457.77 356.324 457.77 363.196C457.77 366.934 456.148 370.288 453.58 372.569L463.618 390.236C465.524 393.591 464.393 397.881 461.092 399.817C457.791 401.754 453.57 400.605 451.664 397.25L439.386 375.64H57.0038Z" fill="#D8DEED"/>
<path d="M241.745 399.252C241.932 399.193 242.129 399.161 242.332 399.161H267.046C268.16 399.161 269.095 400.112 269.095 401.243C269.095 402.374 268.16 403.324 267.046 403.324H245.809H174.562C173.455 403.324 172.558 402.413 172.558 401.288C172.558 400.163 173.455 399.252 174.562 399.252H241.745Z" fill="#FFCB3D"/>
<path d="M245.787 399.252H242.332C242.129 399.252 241.931 399.283 241.745 399.342H174.562C174.239 399.342 173.933 399.42 173.663 399.558L173.003 370.267L206.339 370.75L212.656 352.644L241.955 361.669C243.418 366.722 244.925 371.776 246.433 376.875C247.231 379.537 248.029 382.154 248.827 384.771C251.31 385.764 253.438 386.666 254.945 387.343C257.827 388.607 260.265 389.78 262.926 391.54C262.926 391.54 265.231 392.984 266.517 395.059C266.916 395.736 267.27 396.503 267.492 397.315C267.581 397.676 267.581 398.037 267.625 398.353C267.611 398.649 267.545 398.981 267.461 399.296C267.327 399.267 267.188 399.252 267.046 399.252H245.795C245.814 399.187 245.823 399.122 245.822 399.055C245.821 399.122 245.809 399.187 245.787 399.252Z" fill="#474961"/>
<path opacity="0.176986" d="M245.865 399.252C245.896 399.149 245.901 399.044 245.879 398.935C245.835 398.573 245.835 398.211 245.746 397.894C245.212 395.722 243.519 393.912 242.54 392.962C240.536 391.65 238.532 390.473 236.35 389.432C228.469 385.45 226.198 385.496 221.032 381.921C218.895 380.428 216.935 378.753 215.11 376.853L207.448 370.79L206.401 370.774L212.726 352.644L242.025 361.669C243.489 366.722 244.996 371.776 246.503 376.875C247.301 379.537 248.099 382.154 248.897 384.771C251.38 385.764 253.508 386.666 255.016 387.343C257.897 388.607 260.336 389.78 262.996 391.54C262.996 391.54 265.301 392.984 266.587 395.059C266.986 395.736 267.341 396.503 267.563 397.315C267.651 397.676 267.651 398.037 267.696 398.353C267.681 398.654 267.614 398.992 267.528 399.312C267.373 399.273 267.212 399.252 267.046 399.252H245.865Z" fill="#444444"/>
<path d="M216.41 340.245C216.569 344.106 216.784 347.317 217.093 349.674C217.144 350.263 217.115 354.6 216.317 356.139C213.841 360.854 200.112 359.468 187.884 359.815C175.657 360.161 168.916 361.375 165.277 358.514C163.284 356.955 162.988 354.156 162.869 353.18C162.323 348.205 161.688 343.166 161.019 338.101C145.778 344.245 136.193 347.89 132.263 349.034C128.375 350.166 124.067 350.471 120.148 350.656C86.7577 362.981 68.7803 343.096 66.8868 338.372C59.6543 320.331 61.8957 305.485 68.0341 294.95C71.9928 288.157 102.347 271.709 159.097 245.608C160.369 245.023 163.165 243.58 167.483 241.279C172.521 238.54 179.161 237.009 187.404 236.688C189.307 236.614 191.213 236.754 193.086 237.106C204.983 239.34 211.391 243.647 212.311 250.029C212.324 250.107 212.331 250.145 212.344 250.223C212.75 252.965 213.107 255.856 213.421 258.858C215.494 258.413 217.461 257.945 219.32 257.452C219.326 257.448 219.332 257.444 219.338 257.44C224.232 254.011 242.316 251.18 251.153 255.082C262.077 259.905 268.493 271.542 266.837 283.528C264.473 300.642 263.12 309.919 262.779 311.359C262.27 313.567 256.092 338.537 253.836 347.701C253.341 349.781 251.17 351.359 248.385 351.643C245.317 351.976 226.59 344.535 216.41 340.245Z" fill="#A339FF"/>
<path opacity="0.176986" d="M216.581 340.315C215.834 320.678 216.373 285.263 213.606 258.881C215.648 258.441 217.586 257.978 219.42 257.493C219.426 257.489 219.432 257.484 219.439 257.48C224.332 254.051 242.416 251.221 251.253 255.122C262.177 259.946 268.593 271.582 266.937 283.568C264.573 300.682 263.22 309.959 262.879 311.4C262.371 313.608 256.192 338.577 253.936 347.741C253.441 349.821 251.27 351.399 248.485 351.684C245.424 352.016 226.777 344.609 216.581 340.315ZM161.199 338.108C145.912 344.273 136.3 347.928 132.364 349.074C128.655 350.154 124.564 350.481 120.793 350.67C121.437 350.428 122.085 350.175 122.74 349.908C136.973 344.122 149.136 335.328 159.228 323.527C159.885 328.388 160.558 333.26 161.199 338.108Z" fill="#444444"/>
<path d="M115.77 266.327C91.476 278.453 76.4083 287.169 70.567 292.475L68.8054 293.366C59.9171 281.353 56.3215 265.087 58.0188 244.568C53.7731 243.512 50.1322 242.431 48.4687 241.64C45.1418 240.057 44.2411 236.594 45.7667 231.25C47.0445 226.115 49.6297 220.161 53.5222 213.388C58.1485 205.338 64.6752 205.104 68.8876 205.641C72.5667 202.857 90.5003 202.54 93.8648 203.234C99.158 204.364 107.007 205.948 111.308 212.436C112.689 214.458 113.331 216.424 113.666 217.829C113.666 217.829 114.308 219.795 114.764 221.937C115.812 226.835 117.891 243.978 115.77 266.327Z" fill="#FFCB3D"/>
<path d="M168.316 201.872L123.973 242.445C122.968 243.364 122.887 244.938 123.792 245.959C124.697 246.981 126.246 247.063 127.251 246.144L171.594 205.571C172.599 204.651 172.68 203.078 171.775 202.056C170.87 201.035 169.322 200.952 168.316 201.872Z" fill="#474961"/>
<path d="M152.814 215.354L126.346 197.993C124.701 196.914 122.556 197.053 121.06 198.336L95.1465 220.547C93.2666 222.158 93.0281 225.013 94.6137 226.923C94.8793 227.243 95.1874 227.524 95.529 227.758L125.2 248.077L153.365 222.532C155.199 220.868 155.359 218.007 153.722 216.143C153.455 215.84 153.15 215.575 152.814 215.354Z" fill="#474BFF"/>
<path d="M79.7323 186.705C78.4006 184.952 77.2074 183.304 76.5739 181.948C75.6345 179.973 76.1238 174.216 77.9 171.92C79.6762 169.623 93.7602 159.001 93.9379 158.989C95.4389 158.746 103.895 157.737 108.69 163.837C109.127 164.35 109.522 164.912 109.883 165.612C110.664 167.235 111.1 169.018 111.091 170.833L111.022 178.913C110.989 179.731 110.911 180.553 110.786 181.333C109.89 187.113 108.122 191.91 106.103 195.002C104.611 197.331 102.921 198.721 101.37 198.877C100.929 198.953 98.5268 199.079 95.6692 198.42C95.4829 198.371 95.5319 198.411 94.3694 197.993L94.6071 203.317C98.4623 204.136 103.453 205.267 107.469 208.241C101.736 211.34 95.3883 212.735 88.4242 212.425C85.4287 212.292 82.2703 211.883 78.9489 211.2C76.4838 208.235 73.4802 206.489 71.8035 206.207C71.0393 206.079 70.0032 205.865 68.7897 205.724C68.8108 205.706 68.832 205.687 68.8533 205.669C70.3182 204.443 74.5289 203.682 79.1249 203.268L79.4112 186.602L79.7323 186.705ZM117.293 251.555C117.397 251.554 117.5 251.548 117.602 251.536C117.503 251.541 117.404 251.541 117.304 251.535C117.301 251.542 117.297 251.548 117.293 251.555ZM123.25 246.609L125.139 247.886L126.893 246.3C126.951 246.256 127.007 246.209 127.061 246.159L128.11 245.199L153.162 222.547C153.511 222.232 153.799 221.873 154.026 221.487L161.602 214.555C165.033 212.831 167.695 212.151 168.583 213.42C168.583 213.42 155.302 228.056 148.288 235.738C146.453 240.626 143.733 246.877 140.128 254.492C131.148 258.758 123.004 262.715 115.696 266.363C116.167 261.594 116.444 257.059 116.578 252.825C107.853 268.011 94.3681 280.845 76.1216 291.325C52.7873 304.727 48.9838 259.033 48.3783 241.392C48.4641 241.436 48.5517 241.478 48.6411 241.518C53.4264 243.695 75.6181 248.713 79.73 248.034C79.8482 248.02 79.9623 247.992 80.0722 247.95L79.3732 258.913L105.263 240.226C105.268 240.219 105.273 240.212 105.279 240.205L118.164 223.446C119.148 222.166 120.967 221.939 122.227 222.939C122.621 223.253 122.914 223.649 123.1 224.086L123.473 223.524C124.367 222.178 126.166 221.822 127.491 222.731C128.365 223.33 128.814 224.328 128.763 225.325C129.458 225.258 130.179 225.444 130.78 225.904L130.789 225.91C132.01 226.846 132.254 228.611 131.334 229.852C131.309 229.885 131.284 229.918 131.258 229.949L131.069 230.183C131.98 229.963 132.978 230.196 133.714 230.893C134.883 232.001 134.947 233.862 133.857 235.05L123.25 246.609ZM217.961 340.706C225.778 343.971 237.489 348.629 244.073 350.606L241.955 361.669L216.921 353.958C217.115 352.612 217.107 351.25 217.075 350.881C216.794 348.733 216.595 345.858 216.448 342.413C216.425 341.736 216.398 341.029 216.37 340.293L217.961 340.706ZM173.015 360.348C176.688 360.403 181.511 359.995 187.885 359.815C192.434 359.686 197.191 359.797 201.5 359.744L206.723 369.647L206.339 370.75L173.045 370.268L173.015 360.348Z" fill="#F2A98A"/>
<path opacity="0.2" d="M116.452 252.491C116.63 252.178 116.805 251.865 116.979 251.55C117.807 251.597 118.648 251.284 119.258 250.62L123.006 246.536L125.003 247.886L126.757 246.3C126.815 246.256 126.871 246.209 126.925 246.159L127.974 245.199L153.026 222.547C153.375 222.232 153.663 221.873 153.891 221.487L161.466 214.555C164.897 212.832 167.559 212.151 168.447 213.421C168.447 213.421 155.179 228.042 148.162 235.727C146.329 240.641 143.614 246.944 140.074 254.453C131.062 258.734 122.891 262.704 115.561 266.363C116.043 261.469 116.322 256.82 116.452 252.491Z" fill="#8C2A00"/>
<path d="M94.3708 198.008L88.1761 195.88L94.5806 203.305L94.3708 198.008Z" fill="#482D1F"/>
<path d="M101.438 159.2C103.926 159.847 106.541 161.154 108.527 163.681C108.964 164.194 109.36 164.756 109.72 165.456C110.065 166.171 110.342 166.918 110.543 167.685L87.9868 175.679L90.8798 160.238C95.1951 159.6 98.7146 159.253 101.438 159.2Z" fill="#482D1F"/>
<path d="M103.184 160.171C95.2854 168.031 90.2557 173.165 88.0947 175.576C88.015 175.693 87.9349 175.814 87.8544 175.939C87.7588 175.529 87.3878 174.195 86.3698 172.908C86.2748 172.824 85.4513 171.884 84.2621 171.47C82.1184 170.806 79.4296 171.949 78.0528 173.998C76.5904 176.097 76.7736 178.761 77.7574 180.732C78.7412 182.703 80.45 183.534 81.0461 183.764L83.4439 184.229L83.686 184.117C81.9233 187.907 80.3164 191.318 79.2879 191.565C77.4178 192.014 74.5339 187.956 72.4977 185.99C71.2038 184.74 68.0953 180.653 67.1655 174.96C66.8891 173.076 65.8626 166.689 69.7231 161.657C71.0702 159.909 72.6704 158.994 73.3279 158.597C75.5654 157.385 84.1556 156.692 90.7554 156.326C89.4983 154.346 88.7339 150.245 88.4624 144.02C88.4534 143.816 88.5132 143.614 88.6317 143.448C88.921 143.044 89.4779 142.954 89.8758 143.248C95.3436 147.287 98.8234 150.222 100.315 152.052C101.411 150.281 104.607 148.217 109.904 145.861C110.09 145.779 110.298 145.763 110.494 145.817C110.969 145.948 111.249 146.446 111.12 146.928C108.923 155.141 107.252 159.456 106.105 159.872C105.475 160.101 104.501 160.201 103.184 160.171Z" fill="#DE3190"/>
<path d="M108.859 180.489C108.955 179.938 109.46 179.494 109.999 179.546C110.358 179.566 110.643 179.818 110.82 180.441C111.062 182.011 109.51 184.117 108.956 183.204C108.561 182.642 108.737 181.314 108.859 180.489ZM99.0848 179.942C99.1807 179.391 99.6858 178.947 100.225 178.999C100.584 179.019 100.869 179.271 101.045 179.894C101.287 181.464 99.7361 183.57 99.1823 182.657C98.7865 182.095 98.963 180.767 99.0848 179.942Z" fill="#482D1F"/>
<path d="M105.546 181.075L105.901 185.586C105.902 185.603 105.839 185.677 105.818 185.678C105.575 185.695 105.326 185.697 104.935 185.686C104.86 185.684 104.78 185.682 104.666 185.678C104.522 185.674 104.444 185.671 104.368 185.669C104.11 185.661 103.896 185.655 103.668 185.651C103.422 185.647 103.219 185.846 103.215 186.096C103.211 186.346 103.407 186.552 103.652 186.556C103.876 186.56 104.086 186.565 104.341 186.573C104.416 186.576 104.494 186.578 104.638 186.583C104.754 186.586 104.834 186.589 104.912 186.591C105.328 186.602 105.603 186.601 105.88 186.581C106.392 186.545 106.825 186.039 106.789 185.518L106.434 181.003C106.414 180.754 106.199 180.568 105.954 180.588C105.709 180.608 105.526 180.826 105.546 181.075Z" fill="#482D1F"/>
<path d="M102.977 189.146C102.656 189.033 101.876 188.725 101.801 188.277C101.795 188.187 101.741 188.054 101.827 188.003C102.033 187.762 102.582 187.949 103.397 188.118C104.843 188.378 106.004 188.387 106.004 188.387C106.004 188.387 105.61 189.14 105.356 189.34C104.86 189.919 103.436 189.34 102.977 189.146Z" fill="#482D1F"/>
<path d="M92.1804 178.723L89.5214 178.097C89.162 178.012 88.9382 177.648 89.0215 177.283C89.1048 176.917 89.4636 176.69 89.823 176.775L92.6821 177.448C93.6709 175.553 95.5704 174.204 97.8307 174.044C101.314 173.796 104.336 176.465 104.58 180.005C104.585 180.09 104.59 180.174 104.592 180.258L105.946 180.33C106.353 177.391 108.736 175.038 111.767 174.823C115.25 174.575 118.272 177.244 118.516 180.784C118.759 184.324 116.133 187.395 112.649 187.642C109.167 187.89 106.147 185.224 105.901 181.687L104.493 181.612C103.986 184.431 101.655 186.654 98.7129 186.863C95.2292 187.111 92.2076 184.442 91.964 180.902C91.9121 180.147 91.9907 179.413 92.1804 178.723ZM93.614 178.639C93.3607 179.309 93.2442 180.044 93.2967 180.807C93.4888 183.599 95.872 185.705 98.6197 185.509C101.367 185.314 103.439 182.892 103.247 180.1C103.055 177.308 100.672 175.203 97.9239 175.398C96.0373 175.532 94.4694 176.716 93.7342 178.348C93.7319 178.362 93.7291 178.377 93.7259 178.391C93.7048 178.483 93.666 178.567 93.614 178.639ZM107.22 181.2C107.22 181.328 107.224 181.456 107.233 181.586C107.425 184.378 109.808 186.483 112.556 186.288C115.303 186.093 117.375 183.671 117.183 180.879C116.991 178.087 114.608 175.982 111.86 176.177C109.33 176.357 107.374 178.423 107.229 180.929C107.237 180.977 107.24 181.028 107.237 181.079C107.235 181.12 107.23 181.161 107.22 181.2Z" fill="#482D1F"/>
<path d="M159.641 323.841L155.803 286.057C155.765 285.684 155.437 285.413 155.07 285.452C154.703 285.49 154.436 285.823 154.474 286.196L158.312 323.98C158.35 324.353 158.678 324.624 159.045 324.586C159.412 324.547 159.679 324.214 159.641 323.841Z" fill="#482D1F"/>
<path d="M82.7713 237.292C82.7713 237.292 83.1694 244.929 80.1868 247.737" stroke="#482D1F" stroke-width="3" stroke-linecap="round" stroke-linejoin="round"/>
<path d="M311.49 323.15H392.979C394.946 323.15 396.541 324.771 396.541 326.77V334.01C396.541 336.009 394.946 337.63 392.979 337.63H311.49C309.523 337.63 307.928 336.009 307.928 334.01V326.77C307.928 324.771 309.523 323.15 311.49 323.15ZM307.037 265.23H388.526C390.493 265.23 392.088 266.851 392.088 268.85V276.09C392.088 278.089 390.493 279.71 388.526 279.71H307.037C305.07 279.71 303.475 278.089 303.475 276.09V268.85C303.475 266.851 305.07 265.23 307.037 265.23ZM297.686 294.19H379.175C381.142 294.19 382.737 295.811 382.737 297.81V305.05C382.737 307.049 381.142 308.67 379.175 308.67H297.686C295.718 308.67 294.124 307.049 294.124 305.05V297.81C294.124 295.811 295.718 294.19 297.686 294.19Z" fill="#474BFF"/>
<path d="M319.505 308.67H400.994C402.962 308.67 404.556 310.291 404.556 312.29V319.53C404.556 321.529 402.962 323.15 400.994 323.15H319.505C317.538 323.15 315.943 321.529 315.943 319.53V312.29C315.943 310.291 317.538 308.67 319.505 308.67ZM322.177 279.71H403.666C405.633 279.71 407.228 281.331 407.228 283.33V290.57C407.228 292.569 405.633 294.19 403.666 294.19H322.177C320.21 294.19 318.615 292.569 318.615 290.57V283.33C318.615 281.331 320.21 279.71 322.177 279.71Z" fill="#474961"/>
<path d="M311.267 270.66H392.088V274.732H311.267C310.161 274.732 309.264 273.821 309.264 272.696C309.264 271.572 310.161 270.66 311.267 270.66ZM318.615 285.14H397.877V289.212H318.615V285.14ZM303.475 299.62H382.737V303.692H303.475V299.62ZM315.943 314.1H395.205V318.172H315.943V314.1ZM317.279 328.58H396.541V332.652H317.279V328.58Z" fill="#D8DEED"/>
</svg>
