<svg width="757" height="534" viewBox="0 0 757 534" fill="none" xmlns="http://www.w3.org/2000/svg">
<path d="M445.205 55.3135H364.518V135.947H445.205V55.3135Z" stroke="#E1E5F0" stroke-width="5"/>
<path d="M367.946 51.8425H361.044V58.74H367.946V51.8425Z" fill="#E1E5F0"/>
<path d="M367.946 132.521H361.044V139.419H367.946V132.521Z" fill="#D8DEED"/>
<path d="M448.678 51.8425H441.776V58.74H448.678V51.8425Z" fill="#CCF2FF"/>
<path d="M448.678 132.521H441.776V139.419H448.678V132.521Z" fill="#CCF2FF"/>
<path d="M458.875 83.4374H420.179C417.241 83.4374 414.836 81.0344 414.836 78.0974V39.4269C414.836 36.4899 417.241 34.0869 420.179 34.0869H458.875C461.814 34.0869 464.219 36.4899 464.219 39.4269V78.0974C464.219 81.0344 461.814 83.4374 458.875 83.4374Z" fill="#E1E5F0"/>
<path d="M452.463 58.1488V57.4939C452.463 56.5109 453.261 55.7139 454.244 55.7139C455.228 55.7139 456.026 56.5109 456.026 57.4939V69.5979C456.026 70.581 455.228 71.3779 454.244 71.3779C453.504 71.3779 452.868 70.926 452.6 70.2829C451.501 70.9761 450.202 71.3779 448.812 71.3779C444.889 71.3779 441.687 68.178 441.687 64.2579C441.687 60.3379 444.889 57.1379 448.812 57.1379C450.145 57.1379 451.394 57.5073 452.463 58.1488ZM429.87 57.6274H434.566L432.089 49.0577L429.87 57.6274ZM428.948 61.1874L426.713 69.8213C426.467 70.773 425.495 71.3449 424.542 71.0987C423.59 70.8525 423.018 69.8813 423.264 68.9296L428.877 47.2484C429.738 43.9999 434.278 43.9598 435.249 47.1653L441.528 68.8813C441.801 69.8258 441.256 70.8126 440.311 71.0855C439.366 71.3584 438.379 70.814 438.106 69.8695L435.596 61.1874H428.948ZM448.812 67.8179C450.767 67.8179 452.374 66.2119 452.374 64.2579C452.374 62.304 450.767 60.6979 448.812 60.6979C446.857 60.6979 445.249 62.304 445.249 64.2579C445.249 66.2119 446.857 67.8179 448.812 67.8179Z" fill="#F2F6FB"/>
<path d="M438.763 203.501L409.522 184.675C409.131 184.947 409.131 184.947 408.78 185.257L419.711 218.134C419.711 218.134 424.006 217.552 427.324 215.689L432.283 222.055L439.505 216.504L434.547 210.099C435.952 207.887 437.358 205.674 438.763 203.501Z" fill="#E1E5F0"/>
<path d="M415.014 102.348C415.014 99.8916 417.009 97.8999 419.466 97.8999H460.343L476.91 114.276V165.985C476.91 168.443 474.921 170.435 472.459 170.435H419.466C417.007 170.435 415.014 168.438 415.014 165.986V102.348Z" fill="#F2F6FB"/>
<path d="M446.522 146.91H427.378C427.034 146.91 426.906 146.677 427.095 146.386L440.295 126.033C440.482 125.743 440.794 125.74 440.985 126.019L450.453 139.919L454.507 133.63C454.694 133.341 455.009 133.329 455.214 133.606L464.69 146.406C464.895 146.681 464.78 146.908 464.437 146.911L455.794 146.992L446.522 146.91ZM454.804 129.21C453.138 129.21 451.787 127.902 451.787 126.287C451.787 124.673 453.138 123.364 454.804 123.364C456.471 123.364 457.822 124.673 457.822 126.287C457.822 127.902 456.471 129.21 454.804 129.21Z" fill="#E1E5F0"/>
<path d="M460.343 97.8999L476.91 114.276L461.267 117.066C458.847 117.497 457.226 115.88 457.645 113.463L460.343 97.8999Z" fill="#E1E5F0"/>
<path d="M562.228 378.962V346.966C562.228 327.564 562.228 308.207 562.228 288.849V259.168C562.228 258.1 543.749 257.21 521.528 257.21H516.897C494.722 257.21 476.198 258.1 476.198 259.168V379.051C476.198 380.119 494.677 381.009 516.897 381.009H521.528C543.704 381.053 562.228 380.119 562.228 378.962Z" fill="#D8DEED"/>
<path d="M430.822 488.076L431 488.165C431.935 488.655 433.138 488.388 433.583 487.542L485.727 391.823C486.217 390.933 485.816 389.82 484.881 389.331L484.703 389.242C483.768 388.752 482.565 389.019 482.12 389.865L469.206 413.539C460.79 429.025 452.374 444.466 443.914 459.952L429.976 485.495C429.486 486.385 429.887 487.542 430.822 488.076Z" fill="#D8DEED"/>
<path d="M560.269 387.684H527.629C507.858 387.684 488.087 387.684 468.36 387.684H438.08C437.012 387.684 436.077 388.574 436.077 389.642V389.865C436.077 390.933 436.967 391.823 438.08 391.823H560.358C561.427 391.823 562.362 390.933 562.362 389.865V389.642C562.362 388.574 561.427 387.684 560.269 387.684Z" fill="#D8DEED"/>
<path d="M576.211 485.495L562.273 459.952C553.857 444.466 545.441 429.024 536.98 413.538L524.067 389.864C523.621 389.019 522.419 388.707 521.484 389.241L521.306 389.33C520.371 389.82 519.97 390.977 520.46 391.822L572.604 487.542C573.049 488.387 574.251 488.699 575.186 488.165L575.365 488.076C576.3 487.542 576.7 486.385 576.211 485.495Z" fill="#D8DEED"/>
<path d="M528.152 484.16H483.322C483.014 484.16 482.722 484.219 482.462 484.324L486.425 460.909L517.966 457.015L528.152 484.16ZM471.933 484.261C471.734 484.195 471.521 484.16 471.299 484.16H400.542C400.315 484.16 400.097 484.197 399.894 484.265C399.761 484.046 399.662 483.801 399.607 483.537V483.492C399.607 483.27 399.562 483.047 399.607 482.825C399.651 482.558 399.651 482.335 399.741 482.068C400.319 480.066 401.878 478.375 402.902 477.44C403.036 477.307 403.125 477.262 403.258 477.173C405.218 475.972 407.221 474.859 409.314 473.925C413.411 472.056 422.495 468.229 425.211 466.849C428.729 465.069 433.583 462.043 438.659 456.614C438.926 456.481 439.283 456.303 439.283 456.303L470.453 455.546C470.453 455.546 470.587 455.991 470.587 456.036L472.145 483.314C472.145 483.654 472.069 483.975 471.933 484.261Z" fill="#474961"/>
<path d="M400.542 484.16H471.344C472.45 484.16 473.348 485.056 473.348 486.162C473.348 487.268 472.45 488.165 471.344 488.165H400.542C399.435 488.165 398.538 487.268 398.538 486.162C398.538 485.056 399.435 484.16 400.542 484.16ZM483.367 484.16H527.896C529.003 484.16 529.9 485.056 529.9 486.162C529.9 487.268 529.003 488.165 527.896 488.165H483.367C482.26 488.165 481.363 487.268 481.363 486.162C481.363 485.056 482.26 484.16 483.367 484.16Z" fill="#DE3190"/>
<path d="M525.448 382.732C525.447 383.392 525.447 384.06 525.447 384.735C525.447 407.413 524.645 439.876 524.378 450.656C524.334 452.065 524.512 455.921 521.84 458.367C520.771 459.321 519.614 459.735 518.901 459.984C511.019 462.596 499.976 462.637 487.864 461.642C487.063 461.56 485.771 461.104 484.035 460.606C481.407 459.818 479.493 457.496 479.225 454.719C477.979 442.529 474.55 409.237 474.283 406.294C473.927 402.562 473.615 398.333 473.348 393.524L472.473 379.58C467.843 378.599 463.431 377.525 459.255 376.399C464.974 399.335 470.553 423.311 475.485 447.134C475.708 448.178 476.108 450.613 474.951 452.917C472.813 457.135 467.247 456.961 453.933 458.614C438.258 460.614 431.713 462.658 428.15 458.44C426.948 457.092 426.547 455.657 426.414 455.004C423.163 437.915 407.043 388.214 400.765 352.557C400.765 352.47 400.72 352.427 400.72 352.34C400.226 349.5 400.311 346.705 400.887 344.083C402.128 331.864 412.326 322.209 424.926 321.946L463.021 321.151C479.674 320.854 533.59 319.119 535.183 320.643C536.775 322.167 537.429 334.938 537.607 340.368C537.607 342.362 537.607 344.398 537.652 346.349C537.652 355.894 536.004 364.632 533.243 371.377C531.329 376.044 528.924 379.734 526.208 382.11C525.957 382.329 525.704 382.536 525.448 382.732Z" fill="#A339FF"/>
<path opacity="0.176986" d="M525.37 382.791C525.377 374.956 525.421 368.211 525.503 363.784C525.592 359.97 526.26 338.991 517.621 334.638C516.864 334.265 516.107 333.933 514.593 333.394C513.391 332.979 507.157 330.782 499.142 331.114C493.932 331.321 486.095 331.653 479.638 336.877C470.687 344.174 470.91 355.575 470.999 357.441L472.387 379.561C467.747 378.577 463.326 377.499 459.143 376.369C456.251 364.773 453.324 353.445 450.426 342.537C447.755 332.492 438.359 325.969 428.429 327.23C424.733 327.709 421.037 328.187 417.341 328.665C409.105 329.755 402.852 335.896 400.933 343.664C402.363 331.643 412.47 322.206 424.926 321.946L463.02 321.151C479.674 320.854 533.59 319.119 535.183 320.643C536.775 322.167 537.429 334.938 537.607 340.368C537.607 342.362 537.607 344.398 537.652 346.349C537.652 355.894 536.004 364.632 533.243 371.377C531.329 376.044 528.924 379.734 526.208 382.11C525.932 382.351 525.652 382.578 525.37 382.791Z" fill="#444444"/>
<path d="M458.359 291.332L439.205 289.437C437.246 289.259 437.243 285.223 437.185 283.577C437.372 281.893 438.154 279.353 439.562 278.692C438.774 277.323 438.639 274.894 439.239 272.559C439.718 270.697 441.396 269.59 443.133 269.018C444.57 264.374 446.793 256.694 447.617 253.024C450.079 241.851 453.45 237.592 454.609 236.349C455.939 234.878 457.24 233.853 458.108 233.199C463.972 228.854 470.314 228.009 473.559 227.807C473.647 227.759 473.736 227.756 473.825 227.753L486.114 227.151C487.766 226.961 489.331 226.842 490.743 226.736C495.036 226.436 499.467 226.12 503.839 226.667L517.602 226.861C517.691 226.861 517.78 226.861 517.869 226.906C521.119 226.995 527.487 227.618 533.499 231.756C534.389 232.379 535.725 233.358 537.106 234.782C538.308 235.984 541.826 240.122 544.676 251.203C545.627 254.842 548.117 262.439 549.716 267.031C551.472 267.541 553.187 268.589 553.731 270.434C554.412 272.747 554.362 275.179 553.622 276.575C555.053 277.185 555.923 279.697 556.168 281.374C556.168 283.02 556.307 287.054 554.355 287.3L537.056 289.624C538.282 299.223 538.316 307.237 537.405 312.53C537.405 312.666 537.357 312.848 537.309 312.985C537.068 314.397 536.731 315.581 536.298 316.537C536.25 316.628 536.202 316.719 536.154 316.81C533.701 320.271 514.315 319.042 509.745 319.178C502.24 319.406 493.581 319.451 482.902 319.224C479.583 319.133 473.281 319.725 465.585 317.721C465.536 317.721 465.488 317.675 465.488 317.675C465.488 317.675 464.526 317.402 463.42 316.765C462.891 316.446 462.265 316.082 461.736 315.581C456.926 311.255 457.984 300.917 457.984 300.917C458.11 297.53 458.235 294.339 458.359 291.332Z" fill="#DE3190"/>
<path d="M501.489 214.109L501.972 228.285C501.972 228.596 501.838 228.908 501.571 229.041C500.413 229.753 498.766 230.554 496.717 230.999C493.021 231.845 489.86 231.222 488.079 230.688C487.722 230.599 487.455 230.243 487.455 229.887L487.28 221.969C484.753 222.91 484.896 222.817 484.661 222.895C481.856 223.607 479.451 223.518 479.006 223.429C477.403 223.295 475.711 221.96 474.197 219.691C472.148 216.665 470.323 211.948 469.343 206.296C469.165 205.495 469.12 204.694 469.076 203.893L468.898 195.928C468.853 194.148 469.298 192.412 470.145 190.766C470.501 190.054 470.857 189.475 471.302 188.986C471.397 188.865 471.493 188.746 471.59 188.63C475.091 184.112 482.052 183.519 485.285 183.868C485.685 183.913 487.11 184.091 489.159 184.224C490.272 184.313 491.162 184.313 491.697 184.358C498.332 184.625 500.959 183.824 504.299 185.604C504.922 185.915 506.347 186.716 507.594 188.274C511.112 192.679 510.266 198.375 510.043 200.066C509.241 205.139 506.302 208.254 505.412 209.545C504.405 211.029 502.743 212.827 501.489 214.109ZM439.963 309.714L443.139 289.85L458.333 291.03L458.166 304.617C463.974 303.966 469.72 303.892 472.622 305.147C472.706 305.183 472.788 305.22 472.868 305.258C486.623 302.657 510.179 298.352 524.624 296.548L523.169 291.414L553.082 287.396C554.435 302.108 552.898 319.91 538.038 321.735C520.889 323.841 492.497 323.841 452.863 321.735H433.286C433.008 316.018 436.777 312.731 439.963 309.714Z" fill="#DB9E75"/>
<path d="M509.187 203.297C507.099 203.3 505.109 203.399 503.13 203.51C503.427 201.924 503.19 200.185 502.15 198.737C500.725 196.734 498.053 195.622 495.916 196.334C494.714 196.734 493.912 197.669 493.823 197.758C492.621 199.271 492.353 200.873 492.353 200.873L492.129 203.08C488.552 199.378 483.993 194.696 480.592 191.122C478.586 191.671 475.276 192.22 471.515 191.422C471 191.308 470.515 191.136 470.055 190.943C470.085 190.884 470.114 190.825 470.145 190.766C470.501 190.054 470.857 189.475 471.302 188.986C471.397 188.865 471.493 188.746 471.59 188.63C475.091 184.112 482.052 183.519 485.285 183.868C485.685 183.913 487.11 184.091 489.159 184.224C490.272 184.313 491.162 184.313 491.697 184.358C498.332 184.625 500.959 183.824 504.299 185.604C504.922 185.915 506.347 186.716 507.594 188.274C511.112 192.679 510.266 198.375 510.043 200.066C509.856 201.249 509.553 202.326 509.187 203.297ZM470.668 201.496C470.222 201.407 470.089 200.828 470.401 200.517C470.801 200.161 471.514 199.805 472.404 199.805C474.23 199.805 476.189 201.006 474.141 201.54C472.939 201.896 471.514 201.718 470.668 201.496ZM479.841 201.807C479.395 201.718 479.262 201.14 479.618 200.828C480.019 200.472 480.731 200.116 481.666 200.116C483.492 200.116 485.451 201.362 483.403 201.852C482.112 202.252 480.731 201.985 479.841 201.807Z" fill="#482D1F"/>
<path opacity="0.2" d="M439.927 309.822L443.139 289.85L458.333 291.03L458.165 304.691C450.253 305.578 442.227 307.536 441.123 308.665C440.74 309.049 440.339 309.433 439.927 309.822Z" fill="#8C2A00"/>
<path d="M474.141 204.656C474.096 205.412 473.963 206.658 473.517 207.103C472.76 207.771 471.781 205.546 472.36 204.166C472.582 203.588 472.894 203.499 473.25 203.543C473.785 203.632 474.141 204.122 474.141 204.656ZM482.112 204.522C482.156 205.279 482.156 206.525 481.711 207.059C481.043 207.815 479.796 205.679 480.241 204.255C480.419 203.677 480.731 203.543 481.087 203.543C481.622 203.543 482.067 203.988 482.112 204.522Z" fill="#482D1F"/>
<path d="M478.46 213.689C478.772 213.6 479.529 213.377 479.663 212.888C479.663 212.799 479.707 212.665 479.663 212.576C479.484 212.265 478.95 212.443 478.149 212.487C476.724 212.576 475.566 212.443 475.566 212.443C475.566 212.443 475.878 213.333 476.1 213.6C476.59 214.267 478.015 213.822 478.46 213.689Z" fill="#482D1F"/>
<path d="M474.769 209.444C474.685 209.946 475.074 210.439 475.582 210.523C475.693 210.534 475.693 210.534 475.765 210.539C476.516 210.597 476.986 210.618 477.792 210.618C478.038 210.618 478.238 210.419 478.238 210.173C478.238 209.928 478.038 209.728 477.792 209.728C477.011 209.728 476.563 209.708 475.833 209.652L475.689 209.641C475.688 209.639 475.647 209.588 475.649 209.579L476.318 204.806L476.323 204.744V202.119C476.323 201.873 476.123 201.674 475.878 201.674C475.632 201.674 475.432 201.873 475.432 202.119V204.713L474.769 209.444Z" fill="#482D1F"/>
<path d="M503.135 201.164C503.339 202.468 503.104 203.888 502.512 205.029C501.792 206.468 500.778 207.252 499.47 207.856C499.246 207.959 499.149 208.223 499.252 208.446C499.355 208.67 499.62 208.767 499.843 208.664C500.418 208.399 500.875 208.142 501.404 207.733C502.183 207.13 502.835 206.373 503.305 205.433C503.981 204.13 504.248 202.519 504.015 201.027C503.977 200.784 503.749 200.618 503.506 200.656C503.263 200.694 503.097 200.921 503.135 201.164Z" fill="#482D1F"/>
<path d="M474.352 204.75C474.308 205.507 474.174 206.753 473.729 207.198C472.972 207.865 471.992 205.64 472.571 204.261C472.794 203.682 473.105 203.593 473.462 203.638C473.996 203.727 474.352 204.216 474.352 204.75ZM482.323 204.617C482.368 205.373 482.368 206.619 481.922 207.153C481.254 207.91 480.007 205.774 480.453 204.35C480.631 203.771 480.943 203.638 481.299 203.638C481.833 203.638 482.278 204.083 482.323 204.617Z" fill="#482D1F"/>
<path d="M478.672 213.783C478.983 213.694 479.74 213.472 479.874 212.982C479.874 212.893 479.918 212.76 479.874 212.671C479.696 212.359 479.161 212.537 478.36 212.582C476.935 212.671 475.777 212.537 475.777 212.537C475.777 212.537 476.089 213.427 476.312 213.694C476.801 214.362 478.226 213.917 478.672 213.783Z" fill="#482D1F"/>
<path d="M503.346 201.259C503.55 202.563 503.315 203.982 502.723 205.124C502.003 206.562 500.99 207.347 499.681 207.95C499.458 208.053 499.36 208.318 499.463 208.541C499.566 208.764 499.831 208.861 500.054 208.758C500.63 208.493 501.086 208.237 501.615 207.827C502.394 207.224 503.046 206.467 503.516 205.527C504.193 204.224 504.459 202.613 504.226 201.121C504.188 200.878 503.96 200.712 503.717 200.75C503.474 200.788 503.308 201.016 503.346 201.259Z" fill="#482D1F"/>
<path d="M523.814 291.546C523.923 291.898 523.725 292.272 523.372 292.38C523.02 292.488 522.646 292.291 522.538 291.938C521.269 287.817 517.217 275.325 516.36 273.017C516.232 272.672 516.408 272.287 516.754 272.159C517.1 272.031 517.484 272.207 517.613 272.553C518.481 274.892 522.538 287.4 523.814 291.546ZM463.005 254.167C461.891 264.452 461.001 272.658 458.997 291.102C458.957 291.469 458.628 291.733 458.261 291.694C457.894 291.654 457.629 291.324 457.669 290.958C459.673 272.514 460.563 264.308 461.676 254.023C461.716 253.657 462.046 253.392 462.412 253.431C462.779 253.471 463.044 253.8 463.005 254.167Z" fill="#482D1F"/>
<path d="M487.292 222.126L490.939 220.501L487.378 226.368L487.292 222.126Z" fill="#482D1F"/>
<path d="M308.633 487.542L308.455 487.631C307.52 488.12 306.318 487.853 305.873 487.008L253.729 391.288C253.239 390.398 253.64 389.286 254.575 388.796L254.753 388.707C255.688 388.218 256.89 388.485 257.335 389.33L270.249 413.004C278.665 428.49 287.081 443.932 295.542 459.418L309.479 484.961C309.969 485.851 309.568 487.008 308.633 487.542Z" fill="#D8DEED"/>
<path d="M180.789 387.15H213.429C233.201 387.15 252.972 387.15 272.698 387.15H302.978C304.047 387.15 304.982 388.04 304.982 389.108V389.33C304.982 390.398 304.091 391.288 302.978 391.288H180.7C179.632 391.288 178.697 390.398 178.697 389.33V389.108C178.697 388.04 179.632 387.15 180.789 387.15Z" fill="#D8DEED"/>
<path d="M163.245 484.961L177.183 459.418C185.599 443.932 194.015 428.49 202.475 413.004L215.389 389.33C215.834 388.485 217.036 388.173 217.971 388.707L218.15 388.796C219.085 389.286 219.485 390.443 218.996 391.288L166.852 487.008C166.406 487.853 165.204 488.165 164.269 487.631L164.091 487.542C163.156 487.008 162.755 485.851 163.245 484.961Z" fill="#D8DEED"/>
<path d="M167.386 260.592L171.616 294.768C174.199 315.46 176.737 336.153 179.32 356.801L183.239 388.485C183.372 389.597 182.615 390.71 181.546 390.843L181.324 390.888C180.255 391.021 179.275 390.22 179.097 389.019L163.2 261.037C163.067 259.924 163.824 258.812 164.892 258.678L165.115 258.634C166.228 258.5 167.253 259.39 167.386 260.592Z" fill="#D8DEED"/>
<path d="M242.563 484.119H266.642C267.755 484.119 268.691 485.033 268.691 486.121C268.691 487.21 267.755 488.124 266.642 488.124H241.928C240.815 488.124 239.925 487.253 239.88 486.121C239.88 485.033 240.815 484.119 241.928 484.119H242.563L243.042 484.475C243.932 485.142 244.11 486.433 243.442 487.323C242.774 488.213 241.483 488.391 240.592 487.723L195.885 454.437C194.994 453.77 194.816 452.479 195.484 451.589C196.152 450.699 197.443 450.521 198.334 451.189L242.563 484.119ZM360.198 488.077H289.486C288.373 488.077 287.482 487.187 287.482 486.075C287.482 484.962 288.373 484.072 289.486 484.072H360.243C361.356 484.072 362.247 484.962 362.247 486.075C362.202 487.187 361.312 488.077 360.198 488.077Z" fill="#FFCB3D"/>
<path d="M198.342 451.226L214.676 428.09L241.483 447.537C242.953 452.521 244.467 457.505 245.981 462.533C246.782 465.159 247.584 467.74 248.385 470.321C250.879 471.3 253.016 472.19 254.53 472.857C257.425 474.103 259.874 475.26 262.545 476.996C262.545 476.996 264.861 478.42 266.152 480.467C266.553 481.134 266.909 481.891 267.132 482.692C267.221 483.048 267.221 483.404 267.266 483.715C267.258 483.873 267.235 484.04 267.203 484.21C267.012 484.151 266.81 484.119 266.601 484.119H242.522L198.342 451.226ZM360.756 484.149C360.58 484.099 360.394 484.072 360.202 484.072H289.445C289.165 484.072 288.9 484.128 288.659 484.23C288.532 483.952 288.462 483.643 288.462 483.316L290.413 457.417C290.354 456.527 300.42 456.097 320.612 456.126C321.102 456.126 321.547 456.26 321.948 456.571C327.024 462 331.878 465.026 335.396 466.806C338.112 468.186 347.196 472.013 351.293 473.882C353.385 474.816 355.389 475.929 357.349 477.13C357.482 477.219 357.571 477.264 357.705 477.397C358.729 478.332 360.288 480.023 360.866 482.025C360.955 482.292 360.955 482.515 361 482.782C361.045 483.004 361 483.227 361 483.449V483.494C360.951 483.729 360.868 483.949 360.756 484.149Z" fill="#474961"/>
<path d="M235.778 382.734L217.851 385.492C202.713 387.927 185.668 376.352 183.456 359.779C183.239 358.327 183.152 356.875 183.152 355.422C183.152 341.669 184.04 326.979 198.156 323.9C212.272 320.822 305.846 323.046 316.654 323.046C327.461 323.046 331.356 327.299 335.289 333.562C339.222 339.825 338.037 350.539 337.039 357.288C335.261 369.461 334.35 378.772 334.003 388.725C333.916 390.817 333.786 393.039 333.656 395.516C332.875 410.295 332.181 416.403 330.88 435.581C330.403 443.184 330.013 449.761 329.709 454.759C329.579 457.236 327.454 459.201 324.938 459.201H322.379L286.709 459.329C284.02 459.329 281.808 457.151 281.895 454.502L282.372 436.777L282.676 426.184C282.845 420.234 283.015 413.887 283.184 407.431C279.132 412.56 275.439 417.274 272.105 421.573C269.405 425.116 266.312 429.187 262.456 434.32C257.336 441.129 253.016 447.003 249.721 451.542C248.278 453.49 245.64 454.142 243.362 453.228C243.012 453.093 242.669 452.922 242.341 452.713L239.892 451.111L222.971 440.297L209.211 431.486C206.584 429.795 205.827 426.413 207.519 423.966L218.696 407.679L225.375 397.933C227.736 394.477 231.203 389.411 235.778 382.734Z" fill="#474BFF"/>
<path opacity="0.176986" d="M283.041 407.598C274.584 418.304 267.696 427.196 262.379 434.276C257.258 441.084 252.939 446.958 249.644 451.497C247.996 453.722 244.79 454.256 242.341 452.699L239.892 451.097L222.97 440.283L209.211 431.472C206.584 429.781 205.827 426.399 207.519 423.952L218.696 407.665L225.375 397.919C227.748 394.445 231.24 389.342 235.851 382.612L283.884 375.221V376.462L283.58 387.055C283.401 393.8 283.221 400.762 283.041 407.598L283.041 407.598Z" fill="#444444"/>
<path d="M290.524 364.854C288.338 368.158 287.684 369.059 287.018 369.803C286.281 370.627 285.585 371.585 283.355 374.956C283.084 375.366 283.196 375.918 283.607 376.189C284.017 376.46 284.569 376.347 284.841 375.937C287.026 372.633 287.681 371.733 288.346 370.989C289.084 370.164 289.78 369.207 292.01 365.836C292.281 365.426 292.168 364.874 291.758 364.603C291.348 364.331 290.795 364.444 290.524 364.854Z" fill="#482D1F"/>
<path d="M256.935 270.96C263.481 266.065 280.402 252.76 280.402 252.76C285.923 257.744 272.654 266.688 272.654 266.688" fill="#482D1F"/>
<mask id="mask0" mask-type="alpha" maskUnits="userSpaceOnUse" x="181" y="230" width="75" height="97">
<path d="M233.506 232.494C234.9 232.934 236.306 233.535 237.698 234.337C242.997 237.407 245.535 241.368 250.211 249.422C254.129 256.097 257.603 262.105 255.109 266.11C253.452 268.769 249.744 269.464 247.25 269.658L247.138 279.994V280.439L246.916 302.6C246.555 309.761 246.109 315.585 245.58 320.073C244.785 326.805 193.925 329.58 193.925 321.858C192.722 318.921 192.323 309.409 192.367 306.026L192.731 273.277C192.156 273.331 191.575 273.396 190.987 273.472C188.493 273.472 184.619 273 182.749 270.167C180.032 266.107 183.15 259.544 186.623 252.179C190.809 243.35 192.61 238.313 198.2 235.419C200.631 234.16 202.653 233.538 204.267 233.554C207.578 231.607 211.411 230.525 215.478 230.599L225.274 230.777C228.191 230.808 230.967 231.416 233.506 232.494Z" fill="white"/>
</mask>
<g mask="url(#mask0)">
<path d="M233.506 232.494C234.9 232.934 236.306 233.535 237.698 234.337C242.997 237.407 245.535 241.368 250.211 249.422C254.129 256.097 257.603 262.105 255.109 266.11C253.452 268.769 249.744 269.464 247.25 269.658L247.138 279.994V280.439L246.916 302.6C246.555 309.761 246.109 315.585 245.58 320.073C244.785 326.805 193.925 329.58 193.925 321.858C192.722 318.921 192.323 309.409 192.367 306.026L192.731 273.277C192.156 273.331 191.575 273.396 190.987 273.472C188.493 273.472 184.619 273 182.749 270.167C180.032 266.107 183.15 259.544 186.623 252.179C190.809 243.35 192.61 238.313 198.2 235.419C200.631 234.16 202.653 233.538 204.267 233.554C207.578 231.607 211.411 230.525 215.478 230.599L225.274 230.777C228.191 230.808 230.967 231.416 233.506 232.494Z" fill="#FFCB3D"/>
</g>
<path opacity="0.2" d="M222.783 230.887C227.006 230.502 232.709 231.462 237.698 234.337C242.997 237.407 245.605 241.543 250.281 249.598C254.199 256.273 257.603 262.105 255.109 266.11C253.469 268.74 249.823 269.449 247.33 269.652L247.484 255.364V254.563C247.662 241.658 237.776 231.067 225.353 230.934L222.783 230.887Z" fill="#8C2A00"/>
<path d="M293.697 276.394L293.674 280.367C293.695 282.042 292.001 283.19 290.44 282.553L286.772 281.048L269.488 255.229C268.773 254.154 269.08 252.671 270.156 251.957L273.184 249.915C274.259 249.201 275.742 249.507 276.457 250.582L293.697 276.394Z" fill="#FFCB3D"/>
<path d="M268.49 264.548L280.69 257.133C281.811 256.47 283.258 256.948 283.902 258.223L284.495 259.349C284.958 260.297 284.859 261.377 284.357 262.177C285.26 262.108 286.125 262.641 286.566 263.636L287.16 264.796C287.716 265.962 287.468 267.321 286.687 268.148C287.773 267.656 289.086 268.151 289.694 269.392L290.286 270.515C290.933 271.835 290.482 273.414 289.364 274.125L282.118 278.515C272.972 285.061 264.398 290.877 256.398 295.964L256.836 299.533C266.569 300.999 279.965 303.021 297.024 305.597L297.21 305.625C300.33 305.358 303.052 305.826 304.91 306.21C309.571 305.743 314.185 305.233 318.802 304.769C322.538 303.681 330.923 301.903 331.47 307.228C331.47 307.228 327.872 308.397 323 309.946C316.109 312.136 306.627 315.131 301.273 316.838L301.082 316.844L279.02 322.756L243.42 322.681C243.38 322.537 243.341 322.393 243.302 322.251C244.637 321.577 245.44 320.836 245.545 320.041C246.14 315.557 246.586 309.726 246.882 302.55L246.889 301.829C235.837 308.42 226.018 313.442 217.433 316.894C212.357 318.941 207.369 320.766 202.516 322.368C191.205 324.593 186.4 318.219 185.109 316.929C183.595 315.416 180.522 311.188 186.088 286.179C187.146 281.433 188.252 277.14 189.303 273.377C189.89 273.431 190.448 273.45 190.95 273.45C201.779 272.048 210.152 274.55 220.628 273.709C219.341 276.99 217.669 280.924 215.611 285.512C225.942 281.974 236.462 278.007 247.173 273.612L247.216 269.574C248.914 269.442 251.173 269.078 252.966 268.022C252.969 268.041 252.972 268.06 252.975 268.079L253.339 271.043C258.25 268.967 263.199 266.802 268.188 264.549C268.254 264.516 268.355 264.515 268.49 264.548ZM214.593 230.349C215.564 227.799 216.519 225.545 217.535 222.861C217.531 222.859 217.528 222.857 217.526 222.856L218.463 215.097C218.374 214.607 217.972 214.801 217.526 214.668C216.368 214.356 215.364 213.391 214.562 212.501C213.093 210.81 212.851 208.349 213.563 206.079C214.454 203.899 216.769 202.252 218.907 202.43C219.708 202.519 220.465 202.831 221.178 203.276L221.222 203.32C221.445 203.543 221.757 203.587 222.068 203.632C222.825 203.632 223.449 203.098 223.493 202.341L223.894 190.727C223.894 189.97 224.473 189.436 225.23 189.436C226.877 189.436 228.48 189.347 230.128 188.991C230.351 188.991 230.529 188.947 230.707 188.947C232.31 188.769 240.904 188.235 245.535 194.598C245.936 195.221 246.337 195.844 246.648 196.467C247.45 198.069 247.806 199.849 247.673 201.718L247.183 209.817C247.094 210.618 247.005 211.419 246.827 212.265C244.689 222.277 240.147 229.219 236.318 229.442C234.358 229.486 232.399 229.264 230.484 228.685C230.246 228.566 230.397 228.659 227.721 227.578L227.159 230.61C229.667 231.085 232.254 231.851 234.868 232.998C234.022 234.11 233.112 235.138 232.176 235.85C222.024 243.771 198.764 235.229 202.779 233.595C204.75 232.794 209.034 231.109 214.593 230.349Z" fill="#BF865F"/>
<path opacity="0.2" d="M247.165 301.546C250.154 299.761 253.234 297.861 256.404 295.847L256.866 299.564C263.344 300.561 276.773 302.585 297.154 305.637C297.161 305.636 297.167 305.636 297.173 305.635C300.371 305.334 303.16 305.87 305.055 306.261C309.716 305.794 314.185 305.233 318.802 304.769C322.538 303.681 330.923 301.903 331.47 307.228C331.019 307.386 328.146 308.266 323.274 309.814C316.383 312.004 306.901 314.999 301.546 316.707L301.356 316.713L279.294 322.625L243.693 322.549C243.654 322.405 243.615 322.262 243.576 322.119C244.91 321.445 245.713 320.705 245.819 319.909C246.414 315.425 246.86 309.595 247.156 302.418L247.165 301.546ZM247.448 273.357L247.49 269.443C249.097 269.317 251.208 268.984 252.95 268.053L253.306 270.917C251.347 271.745 249.394 272.558 247.448 273.357Z" fill="#8C2A00"/>
<path d="M350.669 295.16C351.025 296.539 350.224 297.919 348.843 298.275L287.037 314.918C285.656 315.274 284.276 314.473 283.92 313.093C283.563 311.714 284.365 310.334 285.745 309.978L347.552 293.335C348.888 293.024 350.313 293.825 350.669 295.16Z" fill="#474961"/>
<path d="M204.185 202.212C204.249 199.614 204.827 196.162 207.106 193.308C208.041 192.106 209.288 191.216 210.624 190.549C214.186 188.769 216.903 189.659 223.938 189.481C225.363 189.481 227.456 189.258 230.128 188.991C231.954 188.766 242.943 187.363 245.535 194.598C244.621 194.42 242.463 194.376 240.459 194.865C231.82 197.001 229.282 211.953 225.319 211.33C225.281 211.326 225.241 211.319 225.199 211.31L225.23 211.286L223.315 206.035C222.87 204.967 222.113 204.121 221.222 203.409C220.51 202.964 219.753 202.653 218.951 202.564C216.814 202.386 214.498 204.032 213.608 206.213C212.761 208.393 213.162 210.841 214.721 212.532C215.7 213.644 217.036 214.401 218.506 214.668L218.617 214.666C218.335 217.995 217.913 222.468 217.495 223.081C216.83 224.826 216.198 226.351 215.568 227.91C214.671 227.837 213.875 227.761 213.251 227.706C211.292 227.528 208.398 227.306 204.746 227.083C204.746 227.083 204.479 227.083 204.256 227.039C203.099 226.861 201.985 226.683 200.872 226.104C200.872 226.104 200.516 225.971 200.204 225.704C193.926 220.542 192.545 213.155 195.217 209.016C197.132 206.124 200.872 205.011 201.407 204.833C202.119 204.611 202.831 204.522 203.455 204.477C203.698 203.748 203.941 202.982 204.185 202.212ZM240.904 207.459C240.013 207.681 238.544 207.904 237.342 207.592C235.249 207.147 237.208 205.901 239.123 205.812C240.013 205.768 240.726 206.124 241.171 206.48C241.483 206.791 241.349 207.37 240.904 207.459ZM248.474 207.281C247.583 207.592 246.203 207.993 244.912 207.77C242.73 207.459 244.6 206.035 246.47 205.812C247.45 205.679 248.118 205.99 248.608 206.302C249.008 206.569 248.919 207.147 248.474 207.281Z" fill="#482D1F"/>
<path d="M245.179 212.888C244.778 212.354 244.912 211.152 245.045 210.351C245.09 209.773 245.624 209.417 246.114 209.417C246.426 209.461 246.827 209.639 246.916 210.262C247.227 211.731 245.713 213.778 245.179 212.888ZM237.832 212.932C237.386 212.398 237.564 211.152 237.698 210.396C237.742 209.817 238.277 209.461 238.767 209.461C239.078 209.506 239.479 209.684 239.568 210.307C239.88 211.775 238.41 213.822 237.832 212.932Z" fill="#482D1F"/>
<path d="M244.73 209.521C244.763 209.278 244.592 209.053 244.348 209.02C244.104 208.987 243.88 209.158 243.847 209.402L243.491 212.027L243.487 212.083L243.443 216.799C243.426 216.852 243.384 216.887 243.325 216.892C242.767 216.833 242.095 216.834 241.307 216.894C241.062 216.913 240.878 217.127 240.897 217.372C240.916 217.617 241.13 217.8 241.375 217.782C242.127 217.724 242.756 217.724 243.26 217.78L243.309 217.783C243.829 217.783 244.245 217.413 244.327 216.922L244.333 216.853L244.377 212.119L244.73 209.521Z" fill="#482D1F"/>
<path d="M240.815 221.209C240.503 221.165 239.702 220.987 239.524 220.497C239.524 220.408 239.435 220.275 239.479 220.186C239.613 219.963 240.993 219.963 240.993 219.963C242.819 220.008 243.264 219.919 243.398 220.141C243.442 220.275 243.442 220.453 243.131 220.853C242.73 221.61 241.26 221.343 240.815 221.209Z" fill="#482D1F"/>
<path d="M215.332 284.906C215.667 284.752 216.064 284.898 216.218 285.233C216.372 285.568 216.226 285.964 215.891 286.118L201.775 292.615C201.44 292.77 201.043 292.623 200.889 292.288C200.735 291.953 200.881 291.557 201.216 291.403L215.332 284.906ZM223.041 264.374C222.919 264.027 223.101 263.645 223.449 263.523C223.797 263.4 224.178 263.582 224.301 263.93C224.332 264.018 224.385 264.176 224.451 264.394C224.56 264.753 224.668 265.151 224.77 265.579C225.047 266.747 225.219 267.914 225.235 269.015C225.284 272.427 223.81 274.61 220.412 274.565C220.043 274.56 219.748 274.257 219.753 273.889C219.758 273.52 220.061 273.225 220.429 273.23C222.938 273.263 223.939 271.781 223.899 269.035C223.885 268.043 223.726 266.967 223.47 265.886C223.375 265.487 223.274 265.115 223.172 264.781C223.112 264.584 223.066 264.445 223.041 264.374Z" fill="#482D1F"/>
<path d="M227.813 227.529L224.206 226.06L226.343 234.115L227.813 227.529Z" fill="#482D1F"/>
<path d="M540.587 319.955H183.906C182.185 319.955 180.789 321.349 180.789 323.07C180.789 324.79 182.185 326.185 183.906 326.185H540.587C542.309 326.185 543.704 324.79 543.704 323.07C543.704 321.349 542.309 319.955 540.587 319.955Z" fill="#D8DEED"/>
<path d="M386.078 187.392H259.677C254.713 187.392 250.66 183.067 250.66 177.77V88.9169C250.66 83.6201 254.713 79.2944 259.677 79.2944H386.078C391.042 79.2944 395.095 83.6201 395.095 88.9169V177.726C395.095 183.067 391.042 187.392 386.078 187.392Z" fill="white"/>
<path d="M292.216 139.303C298.837 139.303 304.204 134.033 304.204 127.532C304.204 121.031 298.837 115.76 292.216 115.76C285.594 115.76 280.227 121.031 280.227 127.532C280.227 134.033 285.594 139.303 292.216 139.303Z" fill="#FFCB3D"/>
<path d="M321.902 139.303C328.523 139.303 333.891 134.033 333.891 127.532C333.891 121.031 328.523 115.76 321.902 115.76C315.281 115.76 309.913 121.031 309.913 127.532C309.913 134.033 315.281 139.303 321.902 139.303Z" fill="#3ABF7C"/>
<path d="M351.588 139.303C358.209 139.303 363.577 134.033 363.577 127.532C363.577 121.031 358.209 115.76 351.588 115.76C344.967 115.76 339.599 121.031 339.599 127.532C339.599 134.033 344.967 139.303 351.588 139.303Z" fill="#A339FF"/>
<path d="M363.331 158.361H282.756C281.517 158.361 280.512 159.365 280.512 160.603C280.512 161.842 281.517 162.846 282.756 162.846H363.331C364.57 162.846 365.575 161.842 365.575 160.603C365.575 159.365 364.57 158.361 363.331 158.361Z" fill="#E1E5F0"/>
<path d="M363.191 149.393H282.896C281.58 149.393 280.512 150.459 280.512 151.775C280.512 153.091 281.58 154.157 282.896 154.157H363.191C364.508 154.157 365.575 153.091 365.575 151.775C365.575 150.459 364.508 149.393 363.191 149.393Z" fill="#E1E5F0"/>
<path d="M250.255 84.9308C250.255 81.5255 253.017 78.7649 256.427 78.7649H388.804C392.212 78.7649 394.976 81.5247 394.976 84.9308V91.0968H250.255V84.9308Z" fill="#E1E5F0"/>
<path d="M258.676 87.7336C260.173 87.7336 261.388 86.5415 261.388 85.071C261.388 83.6005 260.173 82.4084 258.676 82.4084C257.178 82.4084 255.964 83.6005 255.964 85.071C255.964 86.5415 257.178 87.7336 258.676 87.7336Z" fill="#FF5645"/>
<path d="M267.525 87.7336C269.022 87.7336 270.236 86.5415 270.236 85.071C270.236 83.6005 269.022 82.4084 267.525 82.4084C266.027 82.4084 264.813 83.6005 264.813 85.071C264.813 86.5415 266.027 87.7336 267.525 87.7336Z" fill="#FFCB3D"/>
<path d="M276.659 87.7336C278.157 87.7336 279.371 86.5415 279.371 85.071C279.371 83.6005 278.157 82.4084 276.659 82.4084C275.161 82.4084 273.947 83.6005 273.947 85.071C273.947 86.5415 275.161 87.7336 276.659 87.7336Z" fill="#3ABF7C"/>
<path d="M398.337 318.402C398.781 319.185 399.623 319.715 400.587 319.715H464.575C466 319.715 467.114 318.558 467.114 317.134C467.114 315.71 465.956 314.553 464.575 314.553H402.334L380.637 256.213C380.148 254.878 378.678 254.211 377.342 254.7C376.006 255.19 375.338 256.658 375.828 257.993L398.137 317.979C398.192 318.129 398.259 318.27 398.337 318.402Z" fill="#474961"/>
</svg>
