<svg width="740" height="543" viewBox="0 0 740 543" fill="none" xmlns="http://www.w3.org/2000/svg">
<path d="M155.718 24.9888H546.119C581.466 24.9888 610.119 61.674 610.119 106.927V247.862H91.7173V106.927C91.7173 61.674 120.371 24.9888 155.718 24.9888Z" fill="#D8DEED"/>
<path d="M551.374 42.9875H390.078C385.159 42.9875 381.172 47.0394 381.172 52.0376V170.593C381.172 175.591 385.159 179.643 390.078 179.643H551.374C556.292 179.643 560.28 175.591 560.28 170.593V52.0376C560.28 47.0394 556.292 42.9875 551.374 42.9875Z" fill="#F2F6FB"/>
<path d="M408.102 169.01C399.149 169.01 391.891 161.56 391.891 152.37C391.891 143.18 399.149 135.73 408.102 135.73C417.055 135.73 424.313 143.18 424.313 152.37C424.313 161.56 417.055 169.01 408.102 169.01ZM408.137 152.301C409.333 152.301 410.303 151.318 410.303 150.106C410.303 148.894 409.333 147.911 408.137 147.911C406.941 147.911 405.971 148.894 405.971 150.106C405.971 151.318 406.941 152.301 408.137 152.301ZM408.137 153.398C405.969 153.398 404.211 155.179 404.211 157.376H412.063C412.063 155.179 410.305 153.398 408.137 153.398Z" fill="#D8DEED"/>
<path d="M391.891 72.9051C391.891 71.9034 392.686 71.0914 393.673 71.0914H507.333C508.318 71.0914 509.116 71.9048 509.116 72.9051V122.414C509.116 123.416 508.321 124.228 507.333 124.228H393.673C392.689 124.228 391.891 123.414 391.891 122.414V72.9051ZM435.94 149.271H525.407C527.202 149.271 528.656 150.749 528.656 152.572C528.656 154.396 527.202 155.874 525.407 155.874H435.94C434.146 155.874 432.691 154.396 432.691 152.572C432.691 150.749 434.146 149.271 435.94 149.271ZM435.94 160.001H541.673C543.467 160.001 544.922 161.479 544.922 163.303C544.922 165.126 543.467 166.604 541.673 166.604H435.94C434.146 166.604 432.691 165.126 432.691 163.303C432.691 161.479 434.146 160.001 435.94 160.001ZM435.94 138.541H502.636C504.43 138.541 505.885 140.019 505.885 141.842C505.885 143.666 504.43 145.144 502.636 145.144H435.94C434.146 145.144 432.691 143.666 432.691 141.842C432.691 140.019 434.146 138.541 435.94 138.541ZM381.172 50.7161C381.172 46.4477 384.577 42.9875 388.775 42.9875H553.022C557.221 42.9875 560.625 46.4468 560.625 50.7161V58.4447H381.172V50.7161Z" fill="#E1E5F0"/>
<path d="M522.976 112.604H544.1C547.259 112.604 549.819 115.206 549.819 118.416C549.819 121.626 547.259 124.228 544.1 124.228H522.976C519.817 124.228 517.257 121.626 517.257 118.416C517.257 115.206 519.817 112.604 522.976 112.604Z" fill="#A339FF"/>
<path d="M391.372 54.2291C393.186 54.2291 394.657 52.7349 394.657 50.8918C394.657 49.0486 393.186 47.5544 391.372 47.5544C389.558 47.5544 388.087 49.0486 388.087 50.8918C388.087 52.7349 389.558 54.2291 391.372 54.2291Z" fill="#FF5645"/>
<path d="M402.091 54.2291C403.905 54.2291 405.376 52.7349 405.376 50.8918C405.376 49.0486 403.905 47.5544 402.091 47.5544C400.277 47.5544 398.806 49.0486 398.806 50.8918C398.806 52.7349 400.277 54.2291 402.091 54.2291Z" fill="#FFCB3D"/>
<path d="M413.155 54.2291C414.97 54.2291 416.44 52.7349 416.44 50.8918C416.44 49.0486 414.97 47.5544 413.155 47.5544C411.341 47.5544 409.871 49.0486 409.871 50.8918C409.871 52.7349 411.341 54.2291 413.155 54.2291Z" fill="#3ABF7C"/>
<path d="M537.903 370.869V338.334C537.903 318.605 537.903 298.922 537.903 279.238V249.056C537.903 247.97 519.423 247.065 497.203 247.065H492.572C470.396 247.065 451.872 247.97 451.872 249.056V370.96C451.872 372.046 470.352 372.951 492.572 372.951H497.203C519.379 372.996 537.903 372.046 537.903 370.869Z" fill="#D8DEED"/>
<path d="M406.497 482.772L406.675 482.863C407.61 483.36 408.812 483.089 409.257 482.229L461.401 384.896C461.891 383.991 461.49 382.86 460.555 382.362L460.377 382.272C459.442 381.774 458.24 382.046 457.795 382.905L444.881 406.978C436.465 422.725 428.049 438.427 419.588 454.174L405.651 480.148C405.161 481.053 405.562 482.229 406.497 482.772Z" fill="#D8DEED"/>
<path d="M535.988 380.688H503.348C483.577 380.688 463.806 380.688 444.079 380.688H413.799C412.731 380.688 411.796 381.593 411.796 382.679V382.905C411.796 383.992 412.686 384.897 413.799 384.897H536.077C537.146 384.897 538.081 383.992 538.081 382.905V382.679C538.081 381.593 537.146 380.688 535.988 380.688Z" fill="#D8DEED"/>
<path d="M551.885 480.148L537.947 454.174C529.531 438.427 521.115 422.726 512.655 406.979L499.741 382.906C499.296 382.046 498.094 381.729 497.158 382.272L496.98 382.363C496.045 382.86 495.644 384.037 496.134 384.897L548.278 482.229C548.723 483.089 549.926 483.406 550.861 482.863L551.039 482.772C551.974 482.229 552.375 481.053 551.885 480.148Z" fill="#D8DEED"/>
<path d="M329.475 367.224C332.676 368.841 333.769 370.441 333.939 371.84C334.189 374.194 333.648 376.086 332.357 379.197C329.859 385.419 327.735 391.726 326.028 398.2C325.528 398.091 325.029 397.975 324.531 397.854C325.575 401.896 325.538 404.987 325.538 404.987C278.752 404.987 255.75 404.987 256.53 404.987C257.7 404.987 266.161 381.708 296.015 379.342C296.873 379.272 297.706 379.228 298.514 379.208C298.697 378.436 299.011 377.739 299.58 376.685C298.329 373.569 297.366 366.267 297.039 363.226C297.039 363.101 297.081 362.976 297.123 362.851C297.291 362.518 297.753 362.351 298.131 362.518L307.581 367.224C309.195 366.625 310.902 366.079 312.703 365.534C314.408 365.004 316.114 364.552 317.717 364.138L321.101 355.205C321.225 354.863 321.641 354.649 321.974 354.82C322.099 354.863 322.182 354.948 322.265 355.077C324.016 357.587 328.318 363.988 329.475 367.224Z" fill="#FFCB3D"/>
<path d="M254.736 402.12C254.384 399.855 255.324 398.477 257.556 397.986C266.761 397.468 274.951 398.162 282.127 400.068C289.303 401.974 293.482 403.639 294.665 405.061H257.556C255.98 405.061 254.736 403.763 254.736 402.12ZM327.842 386.799C328.915 385.535 332.217 380.1 332.217 380.1C332.217 380.1 328.585 391.306 326.398 398.258C326.522 397.668 324.788 402.386 324.582 401.165V401.122C324.293 399.732 323.178 398.721 321.775 398.637C320.454 398.553 319.051 398.51 317.565 398.51C315.666 398.51 313.726 398.637 311.828 398.89L309.062 390.337C311.745 391.728 314.799 392.233 317.771 391.98C318.803 391.896 319.794 391.686 320.784 391.391C323.508 390.59 325.944 388.947 327.842 386.799ZM317.913 376.458C318.499 377.125 319.453 377.355 320.28 376.975C321.033 376.53 321.432 375.669 321.273 374.794C321.206 374.425 321.445 374.071 321.808 374.003C322.171 373.934 322.519 374.178 322.586 374.547C322.852 376.005 322.175 377.446 320.916 378.17L320.869 378.194C319.75 378.725 318.487 378.577 317.53 377.911C317.231 378.64 316.636 379.263 315.834 379.631C314.221 380.254 312.413 379.641 311.599 378.193C311.416 377.867 311.528 377.453 311.848 377.267C312.168 377.081 312.576 377.194 312.759 377.52C313.24 378.376 314.35 378.752 315.321 378.378C316.056 378.04 316.476 377.348 316.401 376.67C316.398 376.665 316.396 376.661 316.394 376.656C316.2 376.315 316.162 375.888 316.2 375.504C316.239 375.205 316.394 374.949 316.587 374.82C316.974 374.522 317.554 374.692 317.786 375.119C317.99 375.53 318.007 376.031 317.913 376.458ZM306.633 376.477C307.102 377.374 306.672 378.654 306.203 378.74C305.851 378.783 305.42 378.313 305.264 378.014C305.068 377.672 305.029 377.245 305.068 376.861C305.107 376.562 305.264 376.306 305.459 376.178C305.851 375.879 306.398 376.05 306.633 376.477ZM326.687 369.237C327.121 370.134 326.726 371.329 326.252 371.5C325.897 371.543 325.462 371.073 325.304 370.774C325.107 370.432 325.067 370.005 325.107 369.621C325.146 369.322 325.304 369.066 325.502 368.938C325.897 368.639 326.45 368.81 326.687 369.237Z" fill="#DE6903"/>
<path d="M382.307 479.413H452.314C453.362 479.413 454.212 480.276 454.212 481.342C454.212 482.407 453.362 483.27 452.314 483.27H382.307C381.259 483.27 380.409 482.407 380.409 481.342C380.409 480.276 381.259 479.413 382.307 479.413ZM460.83 479.413H505.092C506.14 479.413 506.99 480.276 506.99 481.342C506.99 482.407 506.14 483.27 505.092 483.27H460.83C459.782 483.27 458.932 482.407 458.932 481.342C458.932 480.276 459.782 479.413 460.83 479.413Z" fill="#FF5645"/>
<path d="M504.597 479.413H460.921L464.423 456.004H495.549L504.597 479.413ZM453.489 479.827C453.166 479.568 452.758 479.413 452.314 479.413H382.307C382.238 479.413 382.17 479.417 382.103 479.424C382.078 479.227 382.067 478.993 382.072 478.713C382.12 478.414 382.126 478.071 382.218 477.73C382.768 475.682 383.436 474.322 385.388 473.113C387.34 471.904 389.333 470.824 391.41 469.875C399.069 466.279 401.686 466.325 406.722 463.027C408.806 461.648 410.722 460.053 412.511 458.327C413.705 457.176 416.284 455.307 420.248 452.718L450.974 452.812L453.489 479.827Z" fill="#474961"/>
<path d="M504.238 378.678C504.167 399.647 503.458 427.503 503.214 437.085C503.171 438.42 503.343 442.031 500.768 444.308C500.039 444.976 499.309 445.25 497.936 445.839C496.863 446.31 492.058 447.723 482.446 448.508C481.845 448.548 481.202 448.587 480.558 448.548C470.646 448.194 468.2 447.566 464.382 446.467C461.85 445.761 460.005 443.562 459.747 440.972C458.546 429.549 455.242 398.42 454.985 395.672C454.641 392.179 454.341 388.214 454.083 383.7L453.947 381.586L442.072 376.83C447.031 396.122 451.842 416.103 456.143 435.967C456.358 436.94 456.744 439.131 455.628 441.199C453.569 445.133 448.205 444.931 435.375 446.472C420.271 448.297 413.964 450.203 410.531 446.31C409.373 445.052 408.987 443.754 408.858 443.146C405.725 427.368 390.193 381.576 384.142 348.723C384.142 348.641 384.1 348.601 384.1 348.52C382.169 337.934 389.42 327.956 400.19 326.617C403.752 326.171 406.97 325.741 410.531 325.295C411.61 325.167 412.687 325.13 413.752 325.179L466.916 324.242C498.448 323.963 494.107 320.244 503.966 324.854C510.54 327.927 515.015 336.676 517.393 351.101C518.244 362.069 513.859 371.261 504.238 378.678Z" fill="#A339FF"/>
<path opacity="0.176986" d="M504.292 378.636C504.296 377.541 504.298 376.464 504.298 375.41C504.298 367.245 504.34 360.219 504.426 355.704C504.512 352.132 505.156 332.505 496.831 328.423C496.102 328.07 495.373 327.795 493.914 327.284C492.755 326.892 486.748 324.851 479.024 325.165C474.004 325.361 466.452 325.675 460.23 330.582C451.649 337.373 451.863 348.089 451.949 349.816L454.003 381.609L442.135 376.855C438.828 363.993 435.456 351.437 432.125 339.427C429.85 331.253 422.244 325.595 413.9 325.176L466.916 324.242C498.448 323.963 494.107 320.244 503.966 324.854C510.54 327.927 515.015 336.676 517.393 351.101C518.243 362.048 513.876 371.227 504.292 378.636Z" fill="#444444"/>
<path d="M459.071 244.313C459.587 244.087 460.115 243.885 460.654 243.71L469.811 240.603C470.342 240.505 470.87 240.419 471.396 240.345C472.118 239.503 473.588 238.79 476.137 237.995C485.189 235.121 496.742 239.9 500.857 250.609C504.444 259.941 509.207 270.482 508.764 270.621C508.669 270.65 506.59 272.162 503.741 273.098C507.861 288.897 510.081 299.473 510.4 304.826C511.037 315.489 507.508 322.635 495.548 323.541C483.589 324.446 466.943 325.722 464.987 322.187C463.729 319.913 457.819 305.878 447.254 280.079C443.305 281.378 441.242 282.043 441.067 282.074C440.516 282.172 438.641 275.897 437.421 265.976C436.021 254.591 442.816 245.096 454.076 243.154C455.938 242.825 457.603 243.211 459.071 244.313Z" fill="#FFCB3D"/>
<path opacity="0.176986" d="M459.098 244.334C447.898 249.054 442.337 265.221 446.066 277.176C446.479 278.156 446.885 279.121 447.284 280.069C443.315 281.375 441.243 282.043 441.067 282.074C440.516 282.172 438.641 275.897 437.421 265.976C436.021 254.591 442.816 245.096 454.076 243.154C455.949 242.823 457.623 243.216 459.098 244.334Z" fill="#444444"/>
<path d="M440.61 245.664C440.61 245.664 439.795 248.922 444.129 248.022C448.462 247.122 449.707 246.693 449.707 246.693L448.591 243.736L440.61 245.664Z" fill="#482D1F"/>
<path d="M465.111 243.373L473.092 281.235L474.988 270.956C484.989 272.947 493.127 273.943 499.404 273.942C499.437 273.942 499.471 273.942 499.504 273.942C498.091 279.439 494.739 303.291 489.526 312.52C482.935 324.186 479.088 325.467 469.355 324.514C468.359 324.416 467.419 324.237 466.531 323.977C466.957 324.117 467.395 324.236 467.847 324.332L417.495 325.118L417.491 325.132L417.338 325.121L417.143 325.124C417.051 325.125 416.961 325.112 416.875 325.086L396.273 323.548C392.968 323.301 389.925 321.626 387.915 318.947L385.6 315.861C385.051 315.13 384.696 314.268 384.568 313.357C384.156 310.414 386.169 307.689 389.065 307.269L395.22 306.378C399.44 305.768 403.724 305.776 407.941 306.402L420.649 308.29C430.298 305.208 443.174 301.161 446.389 300.464L442.397 281.64L447.116 279.758C448.597 283.195 449.991 286.423 451.298 289.442C449.818 275.096 449.984 259.254 448.204 245.181L443.742 245.279C441.082 246.35 435.504 248.15 434.903 244.336C434.903 244.336 442.283 241.293 447.475 239.065L447.861 238.722C448.205 238.422 448.505 238.25 448.934 238.122C449.02 238.079 449.106 238.079 449.192 238.079L449.476 238.037C448.704 238.096 448.161 238.082 447.973 238.061C444.384 237.902 439.985 231.446 437.869 222.038C437.673 221.28 437.606 220.512 437.496 219.747L436.955 212.094C436.805 210.386 437.129 208.68 437.857 207.154C437.928 206.976 438.002 206.84 438.076 206.704C438.338 206.251 438.6 205.798 438.869 205.431C439.904 203.964 441.185 202.862 442.536 202.056C445.751 200.398 449.505 199.984 451.622 200.057C451.925 200.074 452.876 200.12 454.216 200.175C455.482 200.365 456.694 200.432 457.937 200.366C458.625 200.349 459.19 200.902 459.25 201.585L459.78 212.551C459.784 212.633 459.805 212.747 459.843 212.895C464.164 211.109 467.257 212.128 469.123 215.951C471.922 221.686 469.387 220.445 468.143 221.973C467.246 223.041 466.129 223.569 465.378 223.85C465.238 223.88 465.095 223.962 464.969 224.076L468.33 224.108L468.924 226.465L469.143 229.457L471.351 240.406C471.351 240.406 468.237 242.142 465.111 243.373ZM457.607 236.858L457.354 235.628C457.249 235.673 457.141 235.718 457.032 235.764C453.461 237.281 453.667 237.177 453.418 237.284C452.883 237.451 452.362 237.584 451.868 237.69L455.714 237.136L457.607 236.858ZM492.699 456.128H464.502L465.109 446.66C468.574 447.641 471.294 448.216 480.612 448.548C481.255 448.587 481.899 448.548 482.5 448.509C487.086 448.134 490.578 447.616 493.092 447.126L495.548 456.003L492.699 456.128ZM449.746 444.703L450.974 452.812H420.087L422.124 448.216C425.58 447.814 429.919 447.138 435.429 446.472C441.946 445.689 446.536 445.356 449.746 444.703Z" fill="#F2A98A"/>
<path d="M460.228 236.53L458.607 236.757L457.7 236.89C457.669 236.882 457.638 236.873 457.607 236.864L457.353 235.626L461.959 233.642C461.338 235.069 460.762 236.032 460.228 236.53Z" fill="#482D1F"/>
<path d="M440.587 221.112C440.74 221.873 441.02 223.096 440.726 223.681C440.249 224.626 438.574 222.707 438.703 221.233C438.779 220.624 439.056 220.342 439.398 220.312C439.949 220.221 440.453 220.564 440.587 221.112ZM449.707 219.498C449.859 220.259 450.139 221.482 449.846 222.067C449.368 223.012 447.693 221.093 447.822 219.619C447.898 219.01 448.175 218.728 448.517 218.698C449.069 218.607 449.573 218.95 449.707 219.498Z" fill="#482D1F"/>
<path d="M442.695 221.02L442.678 225.324C442.722 225.852 443.159 226.309 443.662 226.264C443.959 226.262 444.149 226.245 444.909 226.163C445.249 226.126 445.481 226.103 445.756 226.078C445.993 226.057 446.167 225.849 446.147 225.613C446.127 225.378 445.919 225.203 445.683 225.224C445.401 225.249 445.164 225.274 444.819 225.311C444.09 225.39 443.913 225.405 443.621 225.409C443.604 225.409 443.539 225.341 443.535 225.286L443.553 221.021C443.554 220.784 443.363 220.592 443.126 220.592C442.889 220.592 442.696 220.784 442.695 221.02Z" fill="#482D1F"/>
<path d="M446.619 228.5C446.91 228.389 447.611 228.026 447.659 227.592C447.651 227.507 447.683 227.375 447.636 227.336C447.447 227.137 446.906 227.357 446.148 227.552C444.799 227.885 443.645 227.986 443.645 227.986C443.645 227.986 444.093 228.678 444.325 228.873C444.84 229.344 446.163 228.712 446.619 228.5Z" fill="#482D1F"/>
<path d="M456.985 216.327L458.407 215.844C459.22 215.568 459.634 216.786 458.821 217.062L457.399 217.545L456.327 217.909C456.448 218.307 456.53 218.724 456.568 219.156C456.861 222.504 454.382 225.456 451.029 225.749C448.113 226.004 445.497 224.162 444.673 221.474L443.922 221.592L443.301 221.689C443.428 224.913 440.996 227.701 437.744 227.985C434.391 228.278 431.436 225.801 431.143 222.453C430.849 219.105 433.329 216.153 436.681 215.86C439.688 215.598 442.393 217.567 443.117 220.417L443.721 220.322L443.922 221.592C443.184 221.047 443.182 221.028 443.18 221.01L442.506 220.513L443.117 220.417C443.147 220.536 443.174 220.656 443.197 220.778C443.252 220.559 443.421 220.369 443.721 220.322L444.428 220.211C444.138 216.865 446.617 213.917 449.967 213.624C452.435 213.408 454.688 214.694 455.822 216.722L456.985 216.327ZM442.707 221.783C442.352 221.839 442.02 221.594 441.969 221.239C441.92 220.891 442.159 220.568 442.506 220.513L443.721 220.322L444.428 220.211C444.428 220.213 444.428 220.215 444.428 220.217C444.467 220.652 444.55 221.072 444.673 221.474L443.922 221.592L442.707 221.783ZM443.922 221.592C443.614 221.64 443.392 221.504 443.274 221.305L443.922 221.592ZM450.917 224.468C453.561 224.237 455.517 221.909 455.286 219.268C455.054 216.627 452.724 214.674 450.079 214.905C447.435 215.136 445.48 217.464 445.711 220.105C445.942 222.745 448.273 224.699 450.917 224.468ZM436.794 217.141C434.15 217.372 432.194 219.7 432.425 222.341C432.656 224.982 434.987 226.935 437.631 226.704C440.275 226.473 442.231 224.145 442 221.504C441.992 221.415 441.982 221.327 441.969 221.239C441.61 218.725 439.339 216.919 436.794 217.141Z" fill="#482D1F"/>
<path opacity="0.2" d="M467.823 324.332L417.47 325.118L417.466 325.132L417.313 325.121L417.119 325.124C417.026 325.125 416.936 325.112 416.85 325.086L396.249 323.547C392.943 323.301 389.9 321.626 387.89 318.947L385.575 315.861C385.026 315.13 384.671 314.268 384.544 313.357C384.131 310.414 386.144 307.689 389.04 307.269L395.196 306.378C399.415 305.768 403.699 305.776 407.916 306.402L420.625 308.29C430.274 305.208 443.15 301.161 446.364 300.464L442.373 281.64L447.091 279.758C448.659 283.395 450.129 286.799 451.501 289.969C451.741 291.855 452.018 293.732 452.342 295.598C455.511 312.435 459.183 322.498 467.823 324.332Z" fill="#DE906E"/>
<path d="M472.646 281.46C472.545 281.12 472.74 280.762 473.081 280.661C473.421 280.56 473.78 280.755 473.881 281.095L478.128 295.409C478.229 295.749 478.035 296.107 477.694 296.208C477.353 296.309 476.995 296.115 476.894 295.774L472.646 281.46ZM499.53 274.467C499.175 274.465 498.889 274.175 498.892 273.82C498.894 273.465 499.185 273.179 499.54 273.182C501.331 273.195 503.012 272.934 504.586 272.4C504.922 272.286 505.288 272.466 505.402 272.802C505.517 273.138 505.337 273.503 505 273.617C503.288 274.199 501.463 274.482 499.53 274.467Z" fill="#482D1F"/>
<path d="M463.915 223.695C464.567 223.505 466.497 223.082 467.682 221.626C468.93 220.141 469.544 217.807 468.623 215.651C467.795 213.572 465.59 212.001 463.542 212.223C462.391 212.366 461.499 213.004 461.379 213.1C459.969 214.213 459.404 215.639 459.404 215.639L459.064 216.634C458.894 216.412 458.731 216.204 458.576 216.012C455.292 212.944 453.396 210.815 450.069 207.75C448.397 208.326 437.659 212.143 436.853 211.784C436.853 207.429 438.447 206.028 438.716 205.66C439.751 204.193 441.263 202.769 442.614 201.963C445.829 200.305 449.583 199.891 451.7 199.965C452.003 199.981 452.954 200.027 454.294 200.082C454.683 200.091 455.071 200.1 455.545 200.102C456.664 200.09 457.526 200.101 458.043 200.099C464.578 199.958 467.04 199.054 470.442 200.521C470.64 200.612 470.92 200.744 471.25 200.925C471.476 200.332 471.74 199.78 472.002 199.27C479.196 185.348 487.934 188.499 487.934 188.551C487.934 188.602 494.554 188.602 496.248 195.346C496.417 196.017 497.604 200.75 495.706 204.653C493.16 209.76 485.567 212.904 476.928 210.758C477.034 212.251 476.932 213.474 476.887 214.111C476.416 219.056 473.717 222.175 472.928 223.491C471.876 225.247 470.576 227.013 469.028 228.79C467.098 227.632 465.62 226.281 464.595 224.736C464.373 224.396 464.146 224.047 463.915 223.695Z" fill="#482D1F"/>
<path d="M378.378 313.459C383.221 308.651 393.109 304.881 409.447 314.381C411.938 315.782 411.029 320.187 408.267 320.18L379.802 319.985C377.663 319.999 376.763 315.077 378.378 313.459Z" fill="#474961"/>
<path d="M321.458 405.06H327.514C330.637 406.04 332.606 408.12 333.422 411.298C334.239 414.476 332.269 417.525 327.514 420.445L327.465 420.434L327.469 420.445H252.66C247.904 417.525 245.935 414.476 246.751 411.298C247.568 408.12 249.537 406.04 252.66 405.06H321.458Z" fill="#3ABF7C"/>
<path d="M351.471 215.481H215.389C210.045 215.481 205.681 211.461 205.681 206.538V123.968C205.681 119.045 210.045 115.026 215.389 115.026H351.471C356.814 115.026 361.178 119.045 361.178 123.968V206.497C361.178 211.461 356.814 215.481 351.471 215.481Z" fill="#F2F6FB"/>
<path d="M205.726 114.485C205.726 109.485 209.714 105.432 214.632 105.432H352.227C357.146 105.432 361.134 109.488 361.134 114.485V124.89H205.726V114.485Z" fill="#E1E5F0"/>
<path d="M229.661 161.542H246.804C248.218 161.542 249.365 162.707 249.365 164.144C249.365 165.581 248.218 166.746 246.804 166.746H229.661C228.246 166.746 227.1 165.581 227.1 164.144C227.1 162.707 228.246 161.542 229.661 161.542ZM229.661 190.502H246.804C248.218 190.502 249.365 191.667 249.365 193.104C249.365 194.541 248.218 195.706 246.804 195.706H229.661C228.246 195.706 227.1 194.541 227.1 193.104C227.1 191.667 228.246 190.502 229.661 190.502ZM255.933 161.542H273.077C274.491 161.542 275.637 162.707 275.637 164.144C275.637 165.581 274.491 166.746 273.077 166.746H255.933C254.519 166.746 253.372 165.581 253.372 164.144C253.372 162.707 254.519 161.542 255.933 161.542ZM255.933 190.502H273.077C274.491 190.502 275.637 191.667 275.637 193.104C275.637 194.541 274.491 195.706 273.077 195.706H255.933C254.519 195.706 253.372 194.541 253.372 193.104C253.372 191.667 254.519 190.502 255.933 190.502ZM282.205 161.542H299.349C300.763 161.542 301.909 162.707 301.909 164.144C301.909 165.581 300.763 166.746 299.349 166.746H282.205C280.791 166.746 279.645 165.581 279.645 164.144C279.645 162.707 280.791 161.542 282.205 161.542ZM282.205 190.502H299.349C300.763 190.502 301.909 191.667 301.909 193.104C301.909 194.541 300.763 195.706 299.349 195.706H282.205C280.791 195.706 279.645 194.541 279.645 193.104C279.645 191.667 280.791 190.502 282.205 190.502ZM229.661 147.062H261.499C262.913 147.062 264.059 148.227 264.059 149.664C264.059 151.101 262.913 152.266 261.499 152.266H229.661C228.246 152.266 227.1 151.101 227.1 149.664C227.1 148.227 228.246 147.062 229.661 147.062ZM301.798 147.062H337.644C339.058 147.062 340.205 148.227 340.205 149.664C340.205 151.101 339.058 152.266 337.644 152.266H301.798C300.384 152.266 299.238 151.101 299.238 149.664C299.238 148.227 300.384 147.062 301.798 147.062ZM301.798 176.022H337.644C339.058 176.022 340.205 177.187 340.205 178.624C340.205 180.061 339.058 181.226 337.644 181.226H301.798C300.384 181.226 299.238 180.061 299.238 178.624C299.238 177.187 300.384 176.022 301.798 176.022ZM270.628 176.022H277.084C278.498 176.022 279.645 177.187 279.645 178.624C279.645 180.061 278.498 181.226 277.084 181.226H270.628C269.213 181.226 268.067 180.061 268.067 178.624C268.067 177.187 269.213 176.022 270.628 176.022ZM286.213 147.062H292.67C294.084 147.062 295.23 148.227 295.23 149.664C295.23 151.101 294.084 152.266 292.67 152.266H286.213C284.799 152.266 283.652 151.101 283.652 149.664C283.652 148.227 284.799 147.062 286.213 147.062ZM308.478 161.542H337.644C339.058 161.542 340.205 162.707 340.205 164.144C340.205 165.581 339.058 166.746 337.644 166.746H308.478C307.063 166.746 305.917 165.581 305.917 164.144C305.917 162.707 307.063 161.542 308.478 161.542Z" fill="#E1E5F0"/>
<path d="M229.661 176.022H261.499C262.913 176.022 264.059 177.187 264.059 178.624C264.059 180.061 262.913 181.226 261.499 181.226H229.661C228.246 181.226 227.1 180.061 227.1 178.624C227.1 177.187 228.246 176.022 229.661 176.022ZM286.213 176.022H292.67C294.084 176.022 295.23 177.187 295.23 178.624C295.23 180.061 294.084 181.226 292.67 181.226H286.213C284.799 181.226 283.652 180.061 283.652 178.624C283.652 177.187 284.799 176.022 286.213 176.022Z" fill="#A339FF"/>
<path d="M270.628 147.062H277.084C278.498 147.062 279.645 148.227 279.645 149.664C279.645 151.101 278.498 152.266 277.084 152.266H270.628C269.213 152.266 268.067 151.101 268.067 149.664C268.067 148.227 269.213 147.062 270.628 147.062ZM308.478 190.502H337.644C339.058 190.502 340.205 191.667 340.205 193.104C340.205 194.541 339.058 195.706 337.644 195.706H308.478C307.063 195.706 305.917 194.541 305.917 193.104C305.917 191.667 307.063 190.502 308.478 190.502Z" fill="#FF5645"/>
<path d="M228.436 91.405H172.774C167.856 91.405 163.868 95.4569 163.868 100.455V128.963C163.868 133.961 167.856 138.013 172.774 138.013H228.436C233.354 138.013 237.342 133.961 237.342 128.963V100.455C237.342 95.4569 233.354 91.405 228.436 91.405Z" fill="#F2F6FB"/>
<path d="M187.62 104.075L172.774 116.213L188.359 124.89" stroke="white" stroke-width="10" stroke-linecap="round" stroke-linejoin="round"/>
<path d="M212.2 124.89L227.1 114.505L211.515 104.075" stroke="white" stroke-width="10" stroke-linecap="round" stroke-linejoin="round"/>
<path d="M196.375 130.042L203.158 99.7192" stroke="white" stroke-width="10" stroke-linecap="round" stroke-linejoin="round"/>
<path d="M244.689 419.475C244.763 419.47 244.837 419.468 244.912 419.468H333.525C335.247 419.468 336.642 420.886 336.642 422.635C336.642 424.384 335.247 425.803 333.525 425.803H244.912C244.837 425.803 244.763 425.8 244.689 425.795V480.329C244.689 482.078 243.294 483.496 241.572 483.496C239.851 483.496 238.455 482.078 238.455 480.329L238.455 323.311C238.455 321.787 239.515 320.514 240.926 320.212C241.325 320.023 241.771 319.917 242.24 319.917H507.19C508.912 319.917 510.307 321.336 510.307 323.085C510.307 324.834 508.912 326.252 507.19 326.252H244.689V419.475Z" fill="#D8DEED"/>
<path d="M306.217 313.131L310.5 295.573H278.354C275.014 295.573 272.253 292.994 272.253 289.872V240.142C272.209 236.974 274.925 234.395 278.309 234.395H376.14C379.48 234.395 382.241 236.974 382.241 240.097V289.872C382.241 292.994 379.48 295.573 376.14 295.573H336.965L335.198 313.131H346.796C348.577 313.131 349.958 314.579 349.958 316.344C349.958 318.154 348.533 319.556 346.796 319.556H297.146C295.365 319.556 293.984 318.108 293.984 316.344C293.895 314.579 295.365 313.131 297.146 313.131H306.217Z" fill="#474961"/>
<path fill-rule="evenodd" clip-rule="evenodd" d="M338.293 282.776L338.424 313.176H335.232L338.293 282.776Z" fill="white"/>
</svg>
